<?xml version="1.0" standalone="no"?>
<!DOCTYPE svg PUBLIC "-//W3C//DTD SVG 20010904//EN"
 "http://www.w3.org/TR/2001/REC-SVG-20010904/DTD/svg10.dtd">
<svg version="1.0" xmlns="http://www.w3.org/2000/svg"
 width="512.000000pt" height="512.000000pt" viewBox="0 0 512.000000 512.000000"
 preserveAspectRatio="xMidYMid meet">
<metadata>
Created by potrace 1.14, written by Peter Selinger 2001-2017
</metadata>
<g transform="translate(0.000000,512.000000) scale(0.100000,-0.100000)"
fill="#000000" stroke="none">
<path d="M2458 3829 c-377 -30 -715 -223 -937 -536 -151 -213 -232 -462 -234
-727 -1 -229 67 -483 176 -653 15 -24 27 -45 27 -48 0 -16 106 -142 181 -216
153 -151 343 -263 541 -318 69 -19 95 -25 178 -38 51 -8 266 -8 333 0 357 43
707 262 901 566 105 164 164 318 196 509 13 82 17 274 6 342 -4 25 -10 59 -12
75 -13 79 -55 215 -96 305 -67 145 -150 262 -272 383 -259 255 -620 385 -988
356z"/>
</g>
</svg>
