<svg version="1" xmlns="http://www.w3.org/2000/svg" width="682.667" height="682.667" viewBox="0 0 512.000000 512.000000"><path d="M246.7 21.6c-.1.1-6 .4-13.2.8-7.1.3-14.1.8-15.5 1-1.4.3-5 .7-8.1 1-5 .5-13.1 1.6-21.4 3.1-15.2 2.8-37.8 9.6-52.5 16-58.7 25.3-97.2 73.3-114.1 142-1.6 6.6-3.1 13.1-3.3 14.5-.3 1.4-.8 4.5-1.2 7-1 6.2-1.3 8.7-1.9 14.5-.4 2.7-.8 5.6-1 6.2-2.4 7.2-2.4 76.5 0 91.4.2 1.3.6 5.5.9 9.4.4 3.8.8 8.1 1.1 9.5.2 1.4.7 4.7 1 7.5.3 2.7 1 7.5 1.5 10.5s1.2 7.3 1.5 9.5c.4 2.2.8 4.7 1 5.5.2.8.7 3.1 1 5 .7 4.6 6.4 30.2 8 36.5 4.5 16.6 5.7 21.1 8.1 27.7 6.2 17.1 19.6 35.4 31.2 42.6 16.9 10.3 38.8 9.9 55.4-1.2 13.9-9.2 21.6-23.5 21.6-40.1 0-9.1-1.6-15.2-6.8-25.5-8.2-16.4-16.7-39.6-22.4-61.3-2-7.3-3.8-14.6-4.1-16.2-4.6-25.8-5.6-34.9-5.7-52.1-.2-40.5 10.4-71.1 32.6-93.8 25.4-25.8 63.3-38.2 116.6-38 42.3.2 72.6 7.7 98 24.2 7 4.6 8.1 5.5 15 12.2 26.2 25.6 37.3 62.9 33.5 112.5-1 13.5-4.4 33.5-8 47-4.3 16.5-5.3 19.9-9.8 32.5-5.7 15.8-8.9 23.4-13.8 33.2-6.9 13.7-8.5 25.1-5.4 37.3 8.9 34.2 51 48 80 26.2 7.5-5.7 18.2-19.9 23.5-31.4 4.1-8.7 12.5-37.2 15.4-52.3.3-1.4 1.4-6.8 2.5-12s2.2-10.9 2.5-12.5c.3-1.7 1.2-7.1 2-12 1.7-10.5 3.3-21.8 4.1-30.1.4-3.3.8-7.5 1-9.4 3-24.7 2.4-79.1-1-100.5-.2-1.7-.7-4.8-1-7-3.3-22.6-11.2-50.5-19.3-68.5C451.7 89.3 413 54.7 355.6 35.9c-11.6-3.8-29.7-8.2-38.6-9.4-2.5-.3-5.2-.8-6-1-.8-.2-4.2-.7-7.5-1-3.3-.4-7.3-.8-9-1.1-6.6-.8-47-2.4-47.8-1.8zm20 46.9c8.8 4.5 13.9 15.9 11.3 25.1-2.7 9.4-12.1 16.4-22 16.4-10.1 0-19.7-7.3-22-16.8-2.4-10.4 3.6-22 13.3-25.6 5.2-1.9 14.9-1.5 19.4.9zm-106.2 21c9.1 2.6 14.7 10 15.1 19.9.4 9.2-3.9 16.2-12.9 20.8-4.3 2.1-13.6 2.3-18.4.3-9.9-4.2-15.9-16-13.2-26 1.6-5.6 6.6-11.5 12-14 5.9-2.7 10.5-2.9 17.4-1zm209.2 1.4c10.2 5.1 14.6 17.6 9.8 27.9-6.8 14.6-26.2 17.8-37.5 6-5.3-5.5-7.1-12.9-5-20.7 1.5-5.5 7.9-12.5 13.3-14.5 5.5-2 14.1-1.5 19.4 1.3zm-274.9 77c5.2 2.7 7.7 5.1 10.2 9.8 7.3 14.2-3.3 31.4-19.5 31.6-14.4.2-24.7-10.7-23.2-24.5 1.6-14.8 19-23.8 32.5-16.9zm343.2.5c16 7.9 15.7 30.5-.5 38.6-9.6 4.8-21.1 2.4-28.3-5.9-6.5-7.6-5.9-21.1 1.4-28.4 7.6-7.6 17.5-9.2 27.4-4.3zM69.3 266.2c5.1 1.5 12.1 8.2 14 13.3 3.1 8.4.5 17.9-6.6 24-12.2 10.5-31.3 5.4-36.3-9.7-2.9-9-.6-16.9 6.8-23.2 6.3-5.4 13.7-6.9 22.1-4.4zm387.9 0c6 1.8 12.3 7.9 14.3 13.9 7.5 22.4-20.6 38.8-37.5 21.9-5.2-5.1-6.8-9.4-6.4-16.7.4-8.1 5.1-14.4 13.4-18.2 5.1-2.3 10.5-2.6 16.2-.9zm-373.4 112c13.3 6.3 16.3 24.9 5.5 34.9-4.8 4.5-9.3 6.3-15.8 6.2-7-.1-12.1-2-16.4-6.4-2.9-2.9-6.8-8.9-5.7-8.9.3 0 .1-1.3-.4-2.9-1-3.7.6-11.5 3.3-15.7 2.8-4.2 7.8-7.5 13.5-8.9 5.7-1.5 10.3-1 16 1.7zm362.9-1.1c8.5 2.8 14.5 11.5 14.5 21.1 0 4.8-.5 6.6-3.1 10.6-3.6 5.5-6.1 7.4-12.1 9.5-22.4 7.5-40-19.4-23.5-35.8 6.6-6.6 14.9-8.5 24.2-5.4z"/></svg>