<?xml version="1.0" standalone="no"?>
<!DOCTYPE svg PUBLIC "-//W3C//DTD SVG 20010904//EN"
 "http://www.w3.org/TR/2001/REC-SVG-20010904/DTD/svg10.dtd">
<svg version="1.0" xmlns="http://www.w3.org/2000/svg"
 width="512.000000pt" height="512.000000pt" viewBox="0 0 512.000000 512.000000"
 preserveAspectRatio="xMidYMid meet">
<metadata>
Created by potrace 1.14, written by Peter Selinger 2001-2017
</metadata>
<g transform="translate(0.000000,512.000000) scale(0.100000,-0.100000)"
fill="#000000" stroke="none">
<path d="M629 5097 c-95 -33 -173 -83 -253 -163 -76 -77 -123 -146 -164 -246
-22 -52 -26 -79 -27 -158 0 -90 2 -99 37 -172 72 -146 194 -242 343 -269 200
-36 467 92 587 281 49 78 69 135 75 215 18 240 -142 457 -382 520 -81 21 -138
19 -216 -8z"/>
<path d="M3250 5099 c-80 -5 -173 -11 -207 -14 l-62 -6 -5 -42 c-6 -47 -31
-542 -46 -932 -6 -143 -15 -597 -20 -1010 -9 -683 -20 -1077 -36 -1272 -5 -66
-8 -73 -27 -73 -12 0 -229 -14 -482 -30 -253 -17 -472 -30 -487 -30 l-28 0 0
-312 c1 -338 12 -727 31 -1040 l12 -196 81 -6 c45 -3 223 -10 396 -16 173 -6
567 -22 875 -35 519 -23 1088 -45 1586 -60 l205 -7 -3 293 c-6 597 -24 1595
-29 1611 -3 10 -20 20 -42 24 -40 8 -717 -2 -849 -12 l-81 -7 -6 54 c-12 118
-39 795 -45 1154 -6 395 1 1299 14 1728 l8 247 -304 -1 c-167 -1 -369 -6 -449
-10z"/>
<path d="M797 3545 c-153 -18 -280 -34 -282 -36 -9 -10 -337 -2009 -354 -2165
-32 -288 -53 -638 -74 -1247 l-3 -99 35 5 c20 3 297 31 615 63 l579 58 -7 161
c-3 88 -13 333 -21 545 -24 631 -23 612 -135 2035 -53 678 -56 716 -68 714 -4
-1 -132 -16 -285 -34z"/>
</g>
</svg>
