<svg version="1" xmlns="http://www.w3.org/2000/svg" width="682.667" height="682.667" viewBox="0 0 512.000000 512.000000"><path d="M192.9 40.4c-.2.2-2.1.7-4.1 1-2.1.3-5.7 1-8 1.5-2.4.6-5.4 1.2-6.8 1.5-1.4.2-4.9.9-7.7 1.5-10 2-15.6 6.9-16.6 14.5-.6 4.6.3 7.3 8.1 23.6 12.8 27 15.6 32.8 18.7 39.5 1.8 3.8 6.5 13.7 10.4 21.9 3.9 8.2 6.8 15.3 6.4 15.6-.6.6-22 6.3-35.3 9.4-.8.2-11.4 3-23.5 6.1-12.1 3.1-22.7 5.8-23.5 6-.8.2-2.7.6-4.2 1-2.2.6-3.6 0-8-3.7-2.9-2.3-5.5-4.5-5.8-4.8-.4-.4-3.9-3.3-13.5-11.1-1.1-.9-4.9-4.1-8.5-7-25.8-21.4-34.2-28-36.2-28.7-1.5-.6-6.7 0-15.8 2-14.7 3.2-18 5.1-18 10.6 0 1.5 2.9 8.7 6.5 16 3.6 7.3 6.5 13.5 6.5 13.7 0 .2 4.1 8.8 9.1 19.2 5 10.3 10.4 21.5 11.9 24.8 1.5 3.3 7.3 15.6 12.9 27.3 5.6 11.7 10.1 21.6 10.1 22 .1 1.1 4.5 5.8 7.1 7.5 4.4 2.8 8.9 2.7 25.6-.8 15.8-3.3 18.3-3.9 23.9-5 1.5-.3 21.9-4.6 45.4-9.5s43.8-9.1 45.1-9.4c1.3-.3 3.5-.7 4.9-1 3.9-.9 85.3-17.8 87.5-18.2 1.1-.2 9.7-2 19-4 9.4-2 18.1-3.8 19.5-4 1.4-.3 6.6-1.3 11.5-2.4 5-1 10.5-2.2 12.4-2.5 1.9-.3 3.7-.7 4-.9.3-.2 2.3-.7 4.3-1 2.1-.3 5.9-1.1 8.5-1.7 2.7-.6 5.7-1.2 6.8-1.4 4.6-.9 7.9-1.6 19-3.9 3.9-.9 8.1-1.7 9.5-2 1.4-.2 4.5-.9 7-1.5 4.5-1 7.6-1.6 12.8-2.6 1.5-.3 7-1.5 12.2-2.6 5.2-1.1 10.5-2.3 11.8-2.5 1.2-.2 3.2-.6 4.5-.8 13.3-2.5 28.1-6.3 32-8.3 6.3-3.1 12.2-9.3 15.5-16.2 2.3-4.8 2.7-6.9 2.7-14.7 0-9.9-1-12.7-7.4-21.4-10.1-13.7-28.6-25.6-46.1-29.5-9-2-23.6-2.2-31.1-.6-2.9.7-22.7 5.5-43.7 10.8-21.1 5.2-39.1 9.6-40 9.8-1 .2-4.7 1.1-8.5 2l-6.7 1.7-7.8-5.3c-4.2-2.9-14.8-10.3-23.4-16.4-17.4-12.1-60.2-42-80-55.8-11-7.6-13.4-8.9-17.6-9.2-2.7-.3-5.1-.3-5.3-.1zM225.7 278.2c-.2.8 1.2 6.7 3.3 13.3 2.1 6.6 3.6 12.3 3.4 12.6-.2.3-2.5.9-5 1.3-7 .9-8.4 2.7-8.4 10.1 0 3.8.5 6.7 1.3 7.3.6.5 3.8 1.5 7 2.2 3.1.6 5.7 1.2 5.7 1.3 0 .1-1.8 5.8-4 12.7-2.4 7.6-3.6 12.8-3.1 13.3 1.2 1.2 37 1.2 38.1.1.4-.5 2.2-5.3 4-10.7 1.7-5.3 3.5-9.7 3.8-9.7.4 0 3.4.4 6.7 1 3.3.5 7.8 1.2 10 1.5 2.3.3 5.2.7 6.5 1 1.3.3 4.2.7 6.5 1 2.2.3 6.5 1 9.5 1.5s6.9 1.1 8.5 1.4c1.7.2 7.5 1.1 13 2 14.2 2.2 16.5 2.4 21 1.4 12.7-2.8 21.3-12.1 23.1-25.1 1.4-10.4-4.5-21.4-14.6-27.1-4.8-2.7-6.4-3-13.5-3-4.4 0-10 .3-12.5.7-7.5 1.3-25.4 4.2-32.5 5.2-2.2.3-8.9 1.3-14.9 2.3-5.9 1-12.4 1.8-14.4 1.8l-3.5-.1-3.2-10-3.2-10-19-.3c-14.8-.2-19.2 0-19.6 1zM175.8 371.2c-.2.7-.4 6.8-.3 13.6v12.3l-4.8-.5c-2.6-.3-5.2-.8-5.6-1.1-2.8-1.6-8.9 10.3-7.6 14.6.4 1.1 3.1 3.2 6.1 4.7l5.5 2.8-5.1 6.9c-2.8 3.9-5.6 7.7-6.3 8.5-2.2 2.8-4.7 6.9-4.7 7.9s33.3 12.1 36 12.1c.8-.1 4.1-3.9 7.4-8.6 3.2-4.6 6.3-8.4 6.8-8.4.6 0 10.5 4.9 22.1 10.9 51 26.2 47.3 24.6 55.7 24.5 8.6 0 12.6-1.6 19.3-7.5 6.3-5.5 9.2-12.4 9.1-21.9 0-8.7-2-13.3-8.1-19.2-3.1-3-11.9-7.9-13.8-7.7-.3 0-2.4-.2-4.8-.6-2.3-.4-5.3-.8-6.7-1-1.4-.2-7-1.1-12.5-2-5.5-.9-11.6-1.8-13.5-2.1-1.9-.3-4.6-.7-6-1-1.4-.2-4.3-.7-6.5-1-11.8-1.5-23-3.6-23.5-4.4-.3-.4-.4-5.1-.3-10.3 0-5.2-.2-9.9-.5-10.4-.6-.8-34.5-12.3-36.4-12.3-.3 0-.8.6-1 1.2z"/></svg>