<?xml version="1.0" standalone="no"?>
<!DOCTYPE svg PUBLIC "-//W3C//DTD SVG 20010904//EN"
 "http://www.w3.org/TR/2001/REC-SVG-20010904/DTD/svg10.dtd">
<svg version="1.0" xmlns="http://www.w3.org/2000/svg"
 width="700.000000pt" height="700.000000pt" viewBox="0 0 700.000000 700.000000"
 preserveAspectRatio="xMidYMid meet">
<metadata>
Created by potrace 1.14, written by Peter Selinger 2001-2017
</metadata>
<g transform="translate(0.000000,700.000000) scale(0.100000,-0.100000)"
fill="#000000" stroke="none">
<path d="M3308 6475 c-2 -1 -52 -5 -113 -9 -197 -11 -270 -20 -480 -57 -1086
-195 -1795 -857 -2080 -1943 -39 -148 -38 -143 -60 -261 -24 -130 -24 -134
-44 -295 -46 -362 -48 -868 -6 -1281 13 -131 15 -155 20 -189 3 -19 7 -53 9
-75 16 -133 54 -364 87 -530 10 -55 21 -109 23 -120 21 -105 89 -370 132 -514
46 -152 137 -315 254 -454 267 -318 764 -291 993 54 123 186 134 418 29 633
-155 318 -309 815 -358 1151 -2 17 -7 43 -9 60 -3 16 -8 52 -11 80 -3 27 -8
64 -11 80 -11 67 -10 502 2 590 21 151 26 177 46 257 119 472 401 802 839 981
78 32 237 82 292 92 13 3 34 7 48 11 22 5 120 21 245 39 65 10 555 14 625 5
36 -4 90 -11 120 -14 50 -5 107 -14 200 -31 32 -6 138 -33 205 -53 154 -46
361 -152 482 -245 314 -243 503 -628 540 -1102 21 -269 4 -507 -63 -879 -3
-17 -23 -98 -45 -180 -21 -83 -41 -160 -44 -172 -24 -104 -168 -482 -255 -667
-126 -272 -87 -530 110 -728 123 -124 251 -179 419 -182 107 -2 146 4 228 33
135 47 245 143 355 307 121 181 152 262 244 623 43 172 49 200 88 400 2 8 7
33 11 55 16 80 23 121 30 170 3 22 10 63 15 90 5 28 12 75 16 105 4 30 8 64 9
75 2 11 6 45 9 75 4 30 9 71 11 90 3 19 7 64 10 100 3 36 7 81 10 100 24 200
25 825 0 1035 -1 17 -6 64 -10 105 -6 62 -38 268 -61 395 -41 217 -140 521
-240 733 -24 52 -44 96 -44 97 0 11 -111 192 -170 279 -253 372 -617 662
-1055 841 -16 7 -43 18 -60 25 -37 15 -203 70 -229 75 -10 3 -42 11 -70 19
-28 8 -94 24 -146 35 -81 18 -142 28 -320 56 -14 2 -54 6 -90 10 -36 3 -85 8
-110 11 -48 5 -566 14 -572 9z m287 -575 c130 -42 213 -183 185 -312 -30 -141
-140 -232 -278 -231 -231 3 -358 277 -211 456 34 41 103 85 146 93 15 3 29 7
31 8 7 7 90 -2 127 -14z m-1253 -286 c122 -40 203 -189 174 -320 -25 -116
-135 -212 -252 -219 -200 -12 -345 172 -288 365 14 47 103 160 126 160 5 0 24
6 41 14 59 27 118 27 199 0z m2532 1 c67 -29 114 -73 146 -139 30 -60 32 -72
28 -138 -10 -146 -112 -250 -257 -262 -201 -17 -353 188 -280 379 53 141 227
217 363 160z m-3380 -982 c68 -24 147 -101 169 -166 22 -64 16 -162 -13 -221
-27 -57 -97 -120 -155 -139 -63 -22 -159 -16 -217 11 -55 27 -112 87 -139 146
-28 63 -22 177 13 236 74 126 211 179 342 133z m4200 5 c145 -42 230 -197 188
-343 -23 -81 -69 -137 -147 -178 -58 -31 -183 -31 -243 1 -99 53 -155 144
-155 252 -1 105 44 183 140 243 59 37 141 47 217 25z m-4457 -1279 c123 -59
188 -204 149 -332 -19 -62 -48 -104 -100 -144 -171 -131 -426 -20 -444 192 -6
76 9 134 46 190 75 108 232 151 349 94z m4763 5 c183 -70 232 -313 93 -456
-171 -176 -472 -52 -476 196 -3 196 197 332 383 260z m-4674 -1399 c64 -19
122 -69 159 -136 25 -46 29 -65 29 -129 0 -57 -5 -85 -22 -116 -68 -131 -199
-190 -334 -150 -161 47 -244 228 -175 380 62 135 198 194 343 151z m4550 -13
c65 -33 101 -69 129 -126 62 -127 22 -280 -93 -356 -163 -108 -373 -30 -427
159 -15 51 -13 94 6 155 23 78 74 136 150 170 68 32 172 31 235 -2z"/>
</g>
</svg>
