<?xml version="1.0" standalone="no"?>
<!DOCTYPE svg PUBLIC "-//W3C//DTD SVG 20010904//EN"
 "http://www.w3.org/TR/2001/REC-SVG-20010904/DTD/svg10.dtd">
<svg version="1.0" xmlns="http://www.w3.org/2000/svg"
 width="512.000000pt" height="512.000000pt" viewBox="0 0 512.000000 512.000000"
 preserveAspectRatio="xMidYMid meet">
<metadata>
Created by potrace 1.14, written by Peter Selinger 2001-2017
</metadata>
<g transform="translate(0.000000,512.000000) scale(0.100000,-0.100000)"
fill="#000000" stroke="none">
<path d="M650 5106 c-259 -75 -486 -370 -468 -609 10 -129 111 -284 228 -351
84 -47 143 -62 240 -60 194 5 388 114 497 279 58 88 72 127 80 230 17 212
-119 414 -335 495 -69 27 -180 34 -242 16z"/>
<path d="M3637 5114 c-1 -1 -90 -5 -197 -8 -107 -4 -217 -9 -245 -11 -27 -2
-85 -6 -128 -9 -43 -2 -81 -6 -83 -9 -7 -7 -12 -56 -18 -197 -4 -69 -8 -165
-11 -215 -3 -49 -7 -139 -10 -200 -2 -60 -7 -159 -10 -220 -11 -247 -16 -473
-20 -910 -4 -440 -12 -887 -20 -1080 -15 -341 -23 -497 -28 -501 -1 -1 -49 -5
-107 -9 -58 -4 -125 -8 -150 -10 -25 -2 -99 -6 -165 -10 -66 -4 -138 -8 -160
-10 -22 -2 -94 -7 -160 -10 -66 -4 -129 -9 -140 -10 -11 -1 -46 -3 -78 -4
l-57 -1 5 -478 c4 -446 7 -556 20 -757 2 -44 7 -132 11 -195 4 -63 8 -116 9
-118 2 -3 95 -7 360 -17 83 -3 209 -7 280 -10 72 -3 184 -7 250 -10 66 -3 170
-7 230 -10 175 -7 363 -15 455 -20 226 -10 549 -23 738 -30 348 -12 452 -15
633 -20 l195 -6 -2 163 c-1 90 -5 413 -9 718 -4 305 -8 598 -10 650 -1 52 -4
161 -6 242 -3 118 -7 149 -18 153 -18 7 -748 -2 -876 -11 l-90 -6 -1 44 c0 24
-4 111 -8 193 -3 83 -9 200 -12 260 -3 61 -7 148 -9 195 -24 533 -24 1315 1
2293 3 146 2 188 -8 192 -12 4 -346 13 -351 9z"/>
<path d="M1069 3576 c-2 -2 -35 -7 -74 -10 -38 -3 -79 -8 -90 -10 -11 -2 -52
-7 -90 -10 -39 -4 -80 -8 -90 -10 -11 -2 -56 -7 -100 -12 -44 -4 -83 -9 -87
-10 -5 -1 -12 -2 -17 -3 -5 0 -12 -20 -16 -43 -4 -24 -9 -52 -11 -63 -2 -11
-10 -63 -18 -115 -9 -52 -18 -106 -21 -120 -7 -39 -56 -342 -61 -374 -2 -15
-5 -35 -8 -45 -3 -9 -8 -36 -11 -61 -3 -25 -15 -94 -25 -155 -11 -60 -22 -123
-24 -140 -3 -16 -14 -86 -26 -155 -12 -69 -23 -136 -25 -150 -2 -14 -11 -68
-20 -120 -19 -115 -20 -121 -40 -240 -8 -52 -17 -104 -19 -115 -2 -11 -7 -42
-10 -70 -4 -27 -9 -61 -11 -75 -2 -14 -6 -52 -10 -85 -4 -32 -8 -66 -10 -75
-2 -8 -6 -55 -10 -105 -3 -49 -8 -108 -10 -130 -7 -69 -14 -176 -20 -305 -3
-69 -8 -159 -10 -200 -3 -63 -14 -339 -19 -500 -3 -68 0 -72 53 -66 25 3 91
10 146 16 55 6 118 12 140 15 22 2 69 7 105 10 36 3 76 8 90 10 14 3 59 7 100
11 41 3 91 7 110 9 115 11 168 16 195 20 17 2 62 7 100 11 39 4 79 8 90 9 11
1 37 3 59 4 l39 1 -8 188 c-4 103 -8 214 -10 247 -2 33 -6 146 -10 250 -13
380 -24 620 -30 680 -3 22 -7 90 -10 150 -3 61 -7 124 -9 140 -2 17 -7 79 -11
139 -4 60 -8 117 -10 127 -2 10 -6 62 -9 116 -4 54 -8 109 -10 123 -2 14 -7
70 -11 125 -4 55 -8 116 -10 135 -2 19 -7 78 -10 130 -4 52 -9 109 -10 125 -2
17 -6 73 -10 125 -4 52 -9 113 -11 135 -2 22 -6 78 -9 125 -3 47 -7 99 -10
115 -2 17 -7 75 -10 129 -4 54 -9 106 -10 115 -2 9 -4 22 -4 29 -1 11 -13 16
-22 8z"/>
</g>
</svg>
