<?xml version="1.0" standalone="no"?>
<!DOCTYPE svg PUBLIC "-//W3C//DTD SVG 20010904//EN"
 "http://www.w3.org/TR/2001/REC-SVG-20010904/DTD/svg10.dtd">
<svg version="1.0" xmlns="http://www.w3.org/2000/svg"
 width="512.000000pt" height="512.000000pt" viewBox="0 0 512.000000 512.000000"
 preserveAspectRatio="xMidYMid meet">
<metadata>
Created by potrace 1.14, written by Peter Selinger 2001-2017
</metadata>
<g transform="translate(0.000000,512.000000) scale(0.100000,-0.100000)"
fill="#000000" stroke="none">
<path d="M3307 4974 c-1 -2 -19 -4 -40 -6 -20 -1 -37 -6 -37 -12 0 -5 -3 -7
-6 -3 -8 8 -84 -33 -84 -46 0 -6 -3 -7 -7 -4 -11 12 -85 -75 -112 -133 -20
-43 -27 -75 -29 -142 -2 -49 -8 -89 -13 -89 -10 -2 -25 -5 -36 -9 -5 -1 -11
-2 -15 -1 -5 0 -8 -4 -8 -10 0 -5 -4 -7 -10 -4 -5 3 -10 1 -10 -5 0 -6 -4 -8
-10 -5 -5 3 -10 1 -10 -6 0 -7 -3 -10 -6 -6 -6 6 -41 -21 -78 -61 l-22 -22
-22 20 c-12 12 -22 25 -22 30 0 6 -7 10 -15 10 -9 0 -18 7 -21 15 -4 8 -10 13
-14 10 -4 -3 -13 2 -20 10 -7 8 -16 12 -21 9 -5 -3 -9 -1 -9 4 0 9 -38 21 -82
27 -10 1 -21 4 -25 5 -8 2 -46 0 -88 -5 -44 -5 -85 -18 -85 -26 0 -5 -3 -8 -7
-7 -9 2 -49 -18 -70 -36 -71 -58 -130 -159 -135 -231 -2 -40 -15 -55 -29 -34
-5 8 -9 10 -9 4 0 -5 -4 -4 -9 3 -4 7 -14 14 -22 16 -8 1 -25 8 -39 16 -14 7
-26 13 -27 12 -12 -8 -31 1 -27 11 3 8 -1 27 -7 43 -7 16 -13 31 -13 34 -2 12
-52 77 -77 100 -50 46 -69 60 -84 60 -8 0 -15 4 -15 10 0 5 -3 9 -7 9 -5 -1
-10 0 -13 1 -41 16 -207 23 -215 9 -4 -5 -15 -9 -25 -9 -10 0 -25 -6 -32 -13
-13 -13 -21 -17 -36 -17 -9 0 -91 -79 -115 -111 -10 -13 -25 -47 -33 -75 l-15
-51 -72 1 c-69 2 -193 -23 -206 -41 -3 -4 -12 -9 -19 -11 -50 -10 -180 -127
-214 -193 -17 -32 -38 -82 -44 -104 -22 -76 -25 -194 -7 -259 8 -28 15 -56 17
-63 1 -7 5 -16 9 -19 16 -16 4 -20 -64 -19 -196 2 -343 -92 -421 -272 -14 -34
-24 -64 -20 -68 4 -3 0 -10 -8 -15 -10 -6 -11 -10 -3 -10 8 0 10 -7 5 -22 -11
-36 3 -170 19 -176 5 -2 9 -10 9 -17 0 -7 6 -24 13 -37 18 -36 88 -128 96
-128 4 0 16 -9 28 -19 18 -17 78 -53 96 -57 4 -1 9 -3 12 -4 3 -1 8 -3 13 -5
4 -1 15 -5 24 -9 9 -4 22 -5 28 -1 5 3 10 2 10 -3 0 -5 33 -8 73 -8 l73 1 1
-60 c1 -33 5 -123 9 -200 4 -77 8 -188 8 -247 1 -60 4 -108 7 -108 3 0 6 -48
8 -108 1 -59 4 -123 6 -142 2 -19 7 -111 10 -205 4 -93 8 -204 10 -245 2 -41
7 -131 9 -200 22 -494 24 -535 45 -609 20 -73 37 -109 77 -168 33 -51 131
-150 163 -167 38 -19 74 -40 91 -51 8 -5 20 -10 25 -12 6 -1 24 -6 42 -11 17
-6 34 -8 37 -4 3 3 6 1 6 -4 0 -5 10 -11 23 -13 40 -6 2451 -6 2487 1 19 3 47
11 61 16 15 6 30 8 33 5 3 -4 6 -1 6 6 0 7 4 10 9 6 5 -3 12 -1 16 5 4 6 10 8
15 5 5 -3 18 3 30 15 11 11 20 18 20 14 0 -3 16 7 35 22 19 14 35 22 35 18 1
-5 7 2 15 16 8 14 14 22 15 17 0 -4 17 12 38 35 20 24 40 45 45 46 4 2 7 10 7
18 0 8 4 14 8 14 14 0 59 93 80 166 20 67 26 131 37 399 3 72 8 164 10 205 2
41 7 138 10 215 3 77 8 181 10 230 3 50 7 142 10 205 3 63 7 165 10 225 3 61
8 155 10 210 2 55 7 143 11 195 3 52 7 129 7 170 l0 75 66 1 c72 0 123 8 143
20 7 5 19 9 26 10 34 6 174 118 180 144 2 8 7 17 10 20 13 9 42 67 46 91 3 13
6 26 7 29 1 3 3 10 4 15 2 6 4 12 5 15 2 5 11 77 11 95 1 10 -3 28 -18 90 -4
17 -7 32 -8 35 0 3 -6 15 -13 26 -6 12 -8 24 -5 28 3 3 2 6 -4 6 -5 0 -15 11
-21 24 -15 33 -93 116 -109 116 -7 0 -13 5 -13 10 0 6 -7 10 -15 10 -8 0 -15
4 -15 8 0 16 -130 54 -191 56 l-63 2 -1 74 c-1 47 -9 92 -20 120 -19 47 -52
100 -69 112 -5 3 6 21 24 39 108 109 80 279 -58 345 -38 18 -110 23 -149 10
-19 -6 -23 -4 -23 14 0 27 -92 120 -120 120 -21 0 -24 14 -11 60 9 32 -7 110
-27 133 -8 9 -12 17 -8 17 14 0 -78 72 -104 82 -14 5 -54 8 -89 6 -70 -3 -64
-8 -73 59 -1 7 -5 10 -10 7 -8 -5 -12 9 -9 34 1 6 -4 12 -10 12 -7 0 -10 3 -6
6 3 3 -2 14 -11 23 -9 10 -27 28 -39 42 -20 22 -72 63 -83 65 -3 0 -18 6 -35
13 -16 7 -38 13 -47 14 -10 1 -18 4 -18 7 0 5 -98 9 -103 4z"/>
</g>
</svg>
