<?xml version="1.0" standalone="no"?>
<!DOCTYPE svg PUBLIC "-//W3C//DTD SVG 20010904//EN"
 "http://www.w3.org/TR/2001/REC-SVG-20010904/DTD/svg10.dtd">
<svg version="1.0" xmlns="http://www.w3.org/2000/svg"
 width="512.000000pt" height="512.000000pt" viewBox="0 0 512.000000 512.000000"
 preserveAspectRatio="xMidYMid meet">
<metadata>
Created by potrace 1.11, written by Peter Selinger 2001-2013
</metadata>
<g transform="translate(0.000000,512.000000) scale(0.100000,-0.100000)"
fill="#000000" stroke="none">
<path d="M3263 4970 c-97 -20 -188 -92 -235 -188 -28 -57 -34 -79 -36 -154 -3
-62 -8 -88 -16 -88 -27 0 -133 -61 -165 -94 l-34 -35 -43 39 c-23 21 -66 51
-96 67 -47 25 -63 28 -148 28 -81 0 -103 -4 -145 -25 -107 -52 -181 -147 -204
-262 l-12 -57 -62 30 c-34 16 -67 29 -73 29 -7 0 -15 15 -18 34 -9 47 -75 145
-121 180 -198 151 -487 62 -556 -172 l-12 -42 -46 6 c-66 9 -165 -12 -249 -52
-222 -107 -332 -367 -253 -600 10 -30 16 -56 13 -59 -3 -3 -38 -5 -78 -5 -270
0 -467 -227 -425 -490 22 -135 104 -246 228 -307 65 -32 86 -37 162 -41 l87
-4 22 -477 c43 -891 71 -1436 81 -1537 11 -111 37 -192 86 -269 40 -63 125
-157 156 -172 91 -45 181 -82 224 -93 39 -10 305 -14 1190 -15 627 -2 1185 1
1240 5 111 9 194 34 270 82 28 17 62 38 78 45 35 18 117 120 156 192 50 94 61
162 77 455 25 470 63 1231 75 1512 l13 272 85 4 c71 3 98 10 153 37 85 40 158
113 200 199 28 56 33 78 36 157 5 112 -11 171 -71 263 -30 46 -60 75 -107 106
-78 52 -123 68 -214 75 l-69 6 -2 75 c-1 78 -29 159 -74 216 l-20 26 35 36
c42 43 69 125 59 181 -19 112 -147 201 -249 173 -36 -10 -37 -10 -55 26 -23
45 -66 87 -103 101 -26 10 -26 12 -21 65 7 70 -14 130 -64 179 -45 46 -89 60
-164 55 -32 -2 -59 -1 -59 3 0 5 -9 33 -20 63 -59 157 -234 250 -407 216z
m1295 -1788 c-5 -102 -24 -144 -78 -177 -35 -20 -42 -20 -1920 -20 -1878 0
-1885 0 -1920 20 -54 33 -73 75 -78 177 l-4 88 2002 0 2002 0 -4 -88z"/>
</g>
</svg>
