<?xml version="1.0" standalone="no"?>
<!DOCTYPE svg PUBLIC "-//W3C//DTD SVG 20010904//EN"
 "http://www.w3.org/TR/2001/REC-SVG-20010904/DTD/svg10.dtd">
<svg version="1.0" xmlns="http://www.w3.org/2000/svg"
 width="512.000000pt" height="512.000000pt" viewBox="0 0 512.000000 512.000000"
 preserveAspectRatio="xMidYMid meet">
<metadata>
Created by potrace 1.14, written by Peter Selinger 2001-2017
</metadata>
<g transform="translate(0.000000,512.000000) scale(0.100000,-0.100000)"
fill="#000000" stroke="none">
<path d="M3038 4985 c-2 -2 -31 -6 -66 -9 -101 -10 -219 -38 -342 -81 -41 -14
-83 -28 -93 -32 -9 -3 -68 -29 -130 -58 -268 -123 -476 -267 -591 -409 -37
-45 -84 -131 -91 -165 -2 -11 -6 -24 -8 -29 -3 -4 -8 -29 -11 -56 -4 -27 -9
-52 -11 -56 -2 -3 -7 -33 -10 -65 -4 -33 -9 -69 -11 -79 -11 -61 -19 -214 -19
-382 l1 -192 -26 5 c-38 8 -286 7 -360 -1 -316 -34 -586 -127 -820 -282 -263
-174 -415 -395 -406 -588 4 -99 57 -176 154 -225 20 -10 145 -48 277 -85 132
-36 254 -71 270 -76 17 -5 197 -50 400 -100 204 -50 389 -95 412 -101 l42 -11
-67 -57 c-37 -31 -76 -64 -87 -73 -11 -9 -30 -26 -43 -36 -13 -11 -42 -35 -64
-54 -23 -18 -62 -50 -87 -72 -25 -21 -56 -47 -69 -57 -12 -11 -165 -135 -340
-276 -174 -142 -351 -291 -393 -333 -238 -235 -272 -484 -91 -651 70 -64 162
-111 267 -135 17 -4 93 -8 170 -9 135 -2 155 0 345 41 114 24 369 121 515 196
363 186 716 418 1011 664 l111 93 149 -79 c81 -44 149 -80 151 -80 2 0 20 -10
41 -23 20 -13 71 -42 112 -64 41 -22 104 -56 140 -76 183 -100 387 -116 650
-51 213 53 469 175 645 308 207 157 333 307 396 472 5 15 12 57 15 93 9 109
-31 195 -121 260 -36 26 -352 177 -585 281 -47 21 -115 52 -153 69 -37 17 -69
31 -71 31 -16 0 -136 64 -129 69 5 3 33 53 62 111 87 172 212 390 258 450 333
429 578 792 634 940 41 108 23 212 -52 290 -55 58 -186 125 -304 156 -81 20
-342 28 -440 13 -63 -10 -202 -43 -245 -58 -93 -33 -182 -70 -227 -92 -32 -17
-53 -23 -54 -16 0 7 -2 21 -4 31 -2 11 -6 56 -10 100 -3 44 -8 96 -10 116 -2
19 -6 71 -10 115 -14 194 -27 249 -68 310 -46 68 -134 123 -233 146 -43 9
-268 21 -276 14z"/>
</g>
</svg>
