<?xml version="1.0" standalone="no"?>
<!DOCTYPE svg PUBLIC "-//W3C//DTD SVG 20010904//EN"
 "http://www.w3.org/TR/2001/REC-SVG-20010904/DTD/svg10.dtd">
<svg version="1.0" xmlns="http://www.w3.org/2000/svg"
 width="512.000000pt" height="512.000000pt" viewBox="0 0 512.000000 512.000000"
 preserveAspectRatio="xMidYMid meet">
<metadata>
Created by potrace 1.14, written by Peter Selinger 2001-2017
</metadata>
<g transform="translate(0.000000,512.000000) scale(0.100000,-0.100000)"
fill="#000000" stroke="none">
<path d="M0 2560 l0 -2560 2560 0 2560 0 0 2560 0 2560 -2560 0 -2560 0 0
-2560z m3836 923 c-9 -200 -24 -360 -42 -468 -13 -77 -111 -555 -159 -781
l-16 -71 -145 -13 c-79 -7 -147 -10 -150 -8 -7 8 -82 765 -94 954 -5 93 -11
239 -13 324 l-2 155 310 26 c171 15 312 27 314 28 2 0 1 -65 -3 -146z m-1751
111 c281 -8 580 -19 665 -22 l155 -7 6 -75 c13 -144 22 -557 13 -562 -5 -3
-124 -11 -265 -18 l-257 -13 -6 -56 c-4 -31 -11 -245 -16 -476 -10 -469 -28
-835 -41 -849 -5 -6 -126 -12 -270 -14 l-261 -5 5 39 c4 22 9 188 12 369 6
297 -3 628 -21 843 l-6 73 -248 -3 c-137 -2 -251 -1 -254 2 -3 3 -8 185 -12
403 l-7 398 149 -6 c82 -3 379 -12 659 -21z m1585 -1695 c24 -11 53 -27 63
-37 29 -26 57 -87 57 -123 0 -98 -115 -210 -245 -239 -94 -21 -223 34 -271
115 -43 74 -28 150 42 217 94 89 239 117 354 67z"/>
</g>
</svg>
