<?xml version="1.0" standalone="no"?>
<!DOCTYPE svg PUBLIC "-//W3C//DTD SVG 20010904//EN"
 "http://www.w3.org/TR/2001/REC-SVG-20010904/DTD/svg10.dtd">
<svg version="1.0" xmlns="http://www.w3.org/2000/svg"
 width="640.000000pt" height="640.000000pt" viewBox="0 0 640.000000 640.000000"
 preserveAspectRatio="xMidYMid meet">
<metadata>
Created by potrace 1.11, written by Peter Selinger 2001-2013
</metadata>
<g transform="translate(0.000000,640.000000) scale(0.100000,-0.100000)"
fill="#000000" stroke="none">
<path d="M1250 4400 l0 -150 -150 0 -150 0 0 -150 0 -150 -150 0 -150 0 0
-150 0 -150 -150 0 -150 0 0 -150 0 -150 -150 0 -150 0 0 -150 0 -150 150 0
150 0 0 -450 0 -450 300 0 300 0 0 -150 0 -150 450 0 450 0 0 150 0 150 300 0
300 0 0 150 0 150 150 0 150 0 0 300 0 300 150 0 150 0 0 -300 0 -300 150 0
150 0 0 -150 0 -150 150 0 150 0 0 -150 0 -150 600 0 600 0 0 150 0 150 150 0
150 0 0 150 0 150 150 0 150 0 0 450 0 450 150 0 150 0 0 150 0 150 150 0 150
0 0 300 0 300 150 0 150 0 0 150 0 150 -300 0 -300 0 0 -300 0 -300 -150 0
-150 0 0 -150 0 -150 -1200 0 -1200 0 0 -150 0 -150 -300 0 -300 0 0 150 0
150 -600 0 -600 0 0 150 0 150 150 0 150 0 0 150 0 150 150 0 150 0 0 150 0
150 -300 0 -300 0 0 -150z m-300 -1800 l0 -150 -150 0 -150 0 0 150 0 150 150
0 150 0 0 -150z m3000 0 l0 -150 150 0 150 0 0 -150 0 -150 -150 0 -150 0 0
150 0 150 -150 0 -150 0 0 150 0 150 150 0 150 0 0 -150z m-2400 -300 l0 -150
-150 0 -150 0 0 150 0 150 150 0 150 0 0 -150z"/>
</g>
</svg>
