<?xml version="1.0" standalone="no"?>
<!DOCTYPE svg PUBLIC "-//W3C//DTD SVG 20010904//EN"
 "http://www.w3.org/TR/2001/REC-SVG-20010904/DTD/svg10.dtd">
<svg version="1.0" xmlns="http://www.w3.org/2000/svg"
 width="600.000000pt" height="600.000000pt" viewBox="0 0 600.000000 600.000000"
 preserveAspectRatio="xMidYMid meet">
<metadata>
Created by potrace 1.14, written by Peter Selinger 2001-2017
</metadata>
<g transform="translate(0.000000,600.000000) scale(0.100000,-0.100000)"
fill="#000000" stroke="none">
<path d="M4410 5968 c0 -3 -9 -4 -20 -1 -11 3 -28 -1 -37 -8 -12 -10 -14 -10
-9 -1 4 6 3 12 -3 12 -5 0 -13 -5 -16 -10 -4 -7 -13 -7 -26 0 -14 8 -19 7 -19
-1 0 -8 -4 -9 -13 0 -10 8 -17 7 -25 -1 -9 -9 -12 -9 -12 1 0 8 -5 7 -16 -4
-12 -12 -19 -13 -24 -5 -5 8 -10 9 -14 2 -4 -6 -13 -9 -21 -5 -9 3 -15 -1 -15
-8 0 -12 -2 -12 -9 0 -6 9 -10 10 -16 2 -5 -9 -11 -9 -23 1 -12 10 -14 10 -8
1 5 -9 -3 -13 -28 -14 -34 -1 -53 -4 -58 -9 -5 -3 -42 -9 -71 -12 -16 -1 -31
-6 -33 -10 -3 -4 -11 -5 -19 -1 -9 3 -15 -1 -15 -8 0 -11 -3 -11 -10 1 -5 8
-10 10 -10 5 0 -6 -8 -11 -17 -12 -41 -3 -63 -8 -63 -13 0 -4 -10 -6 -22 -5
-13 1 -32 -5 -42 -14 -11 -9 -16 -10 -12 -3 4 6 2 12 -3 12 -6 0 -11 -4 -11
-8 0 -8 -13 -10 -79 -15 -16 -1 -29 -6 -28 -12 1 -5 -8 -9 -20 -9 -13 1 -23
-3 -23 -8 0 -5 -4 -7 -9 -4 -5 3 -25 -1 -45 -9 -20 -8 -36 -12 -36 -9 0 4 -7
1 -15 -6 -8 -6 -19 -9 -25 -5 -5 3 -10 1 -10 -5 0 -6 -5 -8 -10 -5 -6 4 -16 2
-23 -4 -7 -5 -25 -12 -40 -15 -15 -3 -40 -11 -55 -19 -16 -7 -36 -13 -45 -11
-9 1 -17 -2 -17 -7 0 -5 -9 -9 -20 -9 -11 0 -20 -4 -20 -9 0 -5 -8 -8 -17 -7
-9 2 -30 -4 -47 -13 -31 -15 -50 -21 -73 -23 -7 -1 -13 -6 -13 -11 0 -5 -7 -6
-16 -3 -8 3 -12 2 -9 -4 3 -6 -2 -10 -12 -10 -10 0 -30 -8 -43 -17 -14 -10
-26 -17 -27 -16 -4 4 -37 -8 -66 -23 -15 -8 -32 -12 -39 -8 -7 4 -8 3 -4 -4 5
-8 0 -12 -13 -12 -12 0 -21 -5 -21 -12 0 -6 -3 -9 -6 -5 -4 3 -19 0 -35 -9
-16 -8 -32 -15 -36 -17 -9 -2 -253 -126 -343 -173 -30 -16 -56 -32 -58 -36 -2
-5 -9 -8 -17 -8 -7 0 -18 -7 -25 -15 -6 -8 -15 -14 -18 -12 -4 1 -19 -6 -34
-16 -54 -33 -73 -44 -78 -44 -3 0 -49 -30 -103 -66 -54 -37 -101 -67 -105 -67
-4 0 -21 -12 -38 -27 -18 -16 -37 -29 -43 -31 -7 -1 -22 -12 -34 -23 -12 -12
-32 -25 -45 -30 -13 -5 -20 -13 -17 -19 3 -5 -1 -10 -9 -10 -9 0 -25 -9 -36
-20 -11 -11 -23 -21 -27 -22 -9 -3 -38 -25 -65 -50 -10 -10 -18 -16 -18 -13 0
6 -21 -10 -50 -39 -11 -11 -20 -16 -20 -10 -1 5 -7 -2 -15 -16 -8 -14 -14 -21
-15 -16 0 5 -11 -3 -25 -18 -13 -14 -27 -26 -30 -26 -3 0 -21 -16 -40 -35 -20
-19 -39 -36 -43 -37 -4 -2 -6 -6 -4 -10 1 -5 -2 -8 -7 -8 -5 0 -31 -20 -57
-45 -25 -25 -50 -45 -54 -45 -3 0 -13 -11 -20 -25 -7 -13 -18 -23 -24 -22 -6
1 -10 -4 -8 -12 2 -8 -3 -11 -12 -8 -9 4 -15 2 -13 -2 1 -5 -9 -19 -24 -33
-14 -13 -28 -31 -32 -41 -3 -9 -10 -16 -14 -15 -4 2 -9 -1 -10 -5 -1 -5 -13
-18 -27 -31 -14 -12 -26 -25 -26 -28 0 -4 -16 -23 -35 -43 -20 -19 -33 -35
-29 -35 4 0 -4 -10 -17 -22 -13 -13 -42 -48 -64 -78 -21 -30 -44 -58 -50 -62
-5 -4 -6 -8 -2 -8 7 0 0 -10 -30 -45 -7 -7 -13 -16 -13 -19 0 -3 -13 -27 -29
-55 -16 -27 -27 -52 -24 -55 4 -3 1 -6 -6 -6 -7 0 -10 -4 -6 -9 3 -5 0 -15 -7
-23 -21 -22 -49 -109 -52 -160 0 -16 -4 -28 -8 -28 -4 0 -3 -11 2 -24 5 -13 7
-26 4 -29 -8 -7 37 -88 52 -94 8 -3 12 -9 9 -13 -8 -13 73 -72 86 -64 8 5 9 3
4 -5 -5 -9 0 -12 16 -10 13 1 31 -1 39 -4 13 -6 40 -4 60 3 3 1 17 2 33 2 15
1 27 5 27 9 0 5 11 9 25 9 14 0 25 5 25 11 0 5 4 8 9 5 5 -3 14 1 21 9 7 8 16
13 20 10 4 -3 13 2 20 10 12 15 40 10 40 -7 0 -6 11 -21 24 -33 14 -13 22 -26
19 -29 -4 -3 1 -6 10 -6 9 0 22 -9 29 -20 7 -11 18 -20 25 -20 7 0 13 -7 13
-15 0 -8 4 -15 9 -15 9 0 78 -61 141 -125 14 -14 29 -25 33 -25 4 0 21 -16 38
-35 17 -19 38 -35 46 -35 8 0 12 -4 8 -9 -3 -5 8 -18 25 -27 16 -10 33 -26 36
-36 3 -10 8 -17 12 -17 19 3 32 -2 32 -12 0 -6 7 -17 15 -25 8 -9 15 -12 15
-7 0 4 7 -3 16 -15 8 -12 22 -22 30 -22 8 0 13 -3 11 -7 -3 -5 1 -14 9 -21 8
-7 14 -11 14 -8 0 3 17 -12 39 -34 21 -21 41 -36 45 -33 3 4 6 -1 6 -10 0 -9
6 -16 13 -14 6 1 11 -3 10 -10 -2 -6 6 -14 16 -18 11 -3 22 -12 25 -20 3 -8
12 -15 21 -15 8 0 15 -6 15 -14 0 -8 9 -17 19 -21 11 -3 22 -12 25 -20 3 -8
13 -15 21 -15 9 0 13 -4 10 -10 -3 -5 0 -10 7 -10 7 0 22 -11 32 -25 10 -13
23 -22 29 -18 6 3 7 1 3 -5 -4 -6 4 -16 16 -23 32 -17 48 -35 40 -44 -4 -5 -1
-5 6 -1 7 4 15 1 18 -8 3 -9 13 -16 21 -16 8 0 11 -4 8 -10 -3 -5 1 -10 10
-10 9 0 13 -5 10 -10 -3 -6 -1 -10 5 -10 19 0 100 -76 100 -94 0 -6 4 -5 9 3
7 11 10 9 16 -8 3 -11 11 -21 16 -21 6 0 28 -18 50 -40 22 -22 42 -40 46 -40
3 0 19 -14 35 -30 15 -17 33 -30 39 -30 5 0 7 -4 4 -10 -3 -6 -2 -10 3 -10 5
0 29 -18 52 -40 23 -22 47 -40 52 -40 5 0 6 -4 3 -10 -3 -5 -1 -10 4 -10 6 0
33 -22 61 -49 27 -27 50 -46 50 -43 0 4 5 -1 11 -11 6 -9 15 -15 20 -11 5 3 8
0 7 -8 -2 -7 3 -12 10 -11 6 2 12 -5 12 -14 0 -9 2 -14 5 -11 3 3 29 -16 57
-43 28 -26 55 -46 60 -43 4 3 5 -3 1 -12 -5 -14 -3 -16 12 -10 11 4 16 4 13 0
-8 -8 16 -34 32 -34 6 0 8 -4 5 -10 -3 -5 -1 -10 5 -10 6 0 25 -14 42 -30 16
-17 34 -30 39 -30 5 0 9 -7 9 -15 0 -8 5 -15 10 -15 5 0 19 -9 30 -20 11 -11
20 -18 20 -16 0 3 25 -20 55 -50 30 -31 55 -53 55 -50 0 3 25 -18 56 -46 31
-29 69 -65 85 -81 16 -15 32 -27 35 -27 3 0 15 -10 28 -22 13 -13 40 -36 59
-53 19 -16 33 -33 30 -38 -2 -4 -1 -7 4 -6 20 3 34 -2 28 -11 -3 -5 1 -10 9
-10 9 0 16 -7 16 -16 0 -8 4 -13 8 -10 5 3 15 -4 22 -15 8 -10 20 -19 27 -19
6 0 15 -9 18 -21 4 -11 9 -18 12 -16 8 9 42 -26 36 -36 -3 -6 -1 -7 5 -3 7 4
12 2 12 -5 0 -7 3 -10 6 -6 8 8 34 -18 34 -33 0 -6 5 -8 10 -5 6 3 14 -4 19
-17 6 -13 10 -17 10 -10 1 15 41 -23 41 -40 0 -6 3 -9 6 -5 4 3 21 -10 39 -29
18 -18 37 -34 44 -34 6 0 11 -7 11 -15 0 -8 5 -15 11 -15 7 0 25 -13 41 -30
15 -16 33 -30 38 -30 6 0 10 -7 10 -15 0 -8 6 -15 14 -15 8 0 26 -13 39 -30
14 -16 29 -30 32 -30 4 0 20 -13 35 -30 15 -16 33 -30 38 -30 6 0 13 -9 17
-20 3 -11 10 -19 14 -17 5 1 25 -15 45 -35 20 -21 41 -38 46 -38 6 0 10 -5 10
-11 0 -5 5 -7 12 -3 6 4 8 3 5 -3 -4 -6 6 -19 21 -29 15 -9 39 -31 54 -48 15
-17 28 -28 28 -24 0 4 21 -13 46 -38 26 -24 50 -44 55 -44 5 0 9 -7 9 -15 0
-8 5 -15 10 -15 6 0 31 -20 55 -44 25 -24 46 -41 49 -39 3 3 11 -4 18 -16 7
-12 19 -21 26 -21 7 0 11 -3 9 -7 -3 -5 1 -14 9 -21 8 -7 14 -10 14 -7 0 4 36
-24 65 -52 7 -7 15 -9 19 -6 3 4 6 1 6 -6 0 -7 4 -10 9 -7 5 4 11 3 13 -2 5
-12 77 -52 94 -52 8 0 12 -4 9 -10 -4 -6 5 -10 19 -10 14 0 26 -5 26 -11 0 -6
7 -9 15 -5 8 3 15 2 15 -2 0 -4 8 -8 18 -9 9 -1 43 -5 75 -8 42 -4 57 -3 52 5
-4 7 -1 10 6 9 8 -1 23 2 34 6 21 9 75 51 76 59 2 21 13 46 19 46 4 0 11 15
15 33 4 17 9 34 10 37 1 3 5 23 10 45 4 22 12 48 17 57 5 10 5 18 0 18 -5 0
-9 7 -9 15 0 8 3 12 7 10 9 -5 5 159 -4 173 -3 6 -2 14 4 17 8 5 7 11 -1 21
-6 7 -9 20 -6 29 4 8 1 17 -5 21 -7 4 -6 9 3 15 9 6 10 12 4 16 -5 5 -10 24
-10 43 0 19 -4 38 -10 42 -6 5 -5 8 3 8 8 0 10 5 5 13 -4 6 -8 23 -9 37 -2 33
-14 163 -20 225 -3 28 -6 66 -7 85 -2 19 -6 41 -11 49 -7 10 -6 12 4 6 9 -6
11 -4 5 4 -4 7 -8 28 -10 47 -1 19 -5 37 -8 40 -4 4 -2 15 4 25 5 11 6 19 1
19 -4 0 -9 17 -9 38 -5 102 -9 138 -16 150 -5 6 -4 12 2 12 6 0 6 11 1 29 -4
16 -5 32 -2 36 4 3 0 10 -8 15 -8 6 -10 10 -4 10 6 0 10 10 8 22 -1 13 -3 23
-5 23 -1 0 -2 14 -3 30 -1 17 -6 36 -10 43 -4 7 -2 12 4 12 7 0 8 6 2 18 -5 9
-8 34 -8 54 1 21 -1 38 -4 38 -3 0 -6 21 -7 48 -4 111 -8 152 -15 152 -4 0 -3
11 2 24 5 13 6 27 2 30 -8 9 -15 63 -28 236 -5 66 -7 81 -17 97 -4 6 -3 14 3
18 6 4 8 11 4 17 -3 5 -8 37 -11 71 -6 93 -11 148 -17 187 -3 19 -7 58 -10 86
-2 29 -7 57 -10 63 -4 6 -1 11 6 11 10 0 10 2 -1 9 -9 6 -10 11 -2 15 6 4 9
12 5 17 -3 5 -11 6 -17 2 -9 -5 -9 -3 0 8 10 12 10 18 1 27 -9 9 -9 12 0 12 8
0 9 7 3 23 -4 12 -7 39 -6 60 1 20 -1 37 -4 37 -3 0 -7 24 -8 53 -2 60 -11
192 -14 192 -2 0 -7 48 -13 125 -2 36 -5 65 -6 65 -1 0 -3 27 -6 60 -2 33 -6
85 -9 115 -12 127 -16 178 -18 223 -1 26 -4 47 -8 47 -4 0 -5 17 -4 38 1 20
-2 43 -8 50 -5 6 -6 12 -1 12 13 0 9 63 -5 68 -6 2 -8 9 -4 15 11 18 12 37 2
37 -11 0 -7 23 6 32 6 5 5 8 -2 8 -7 0 -13 10 -13 23 -1 76 -3 97 -12 97 -7 0
-6 5 1 13 6 8 8 16 6 19 -3 3 -8 30 -11 59 -3 30 -7 69 -9 87 -1 18 -6 36 -9
39 -3 3 -1 12 5 20 6 7 7 13 2 13 -4 0 -8 20 -8 45 0 25 -3 45 -7 45 -11 0 -5
23 7 32 6 5 5 8 -3 8 -7 0 -11 4 -7 9 3 5 1 12 -5 16 -7 4 -7 12 0 24 5 10 7
21 4 24 -3 3 -8 32 -10 64 -8 89 -10 109 -18 122 -4 6 -2 11 4 11 6 0 8 5 4
11 -3 6 -8 27 -10 47 -7 70 -16 177 -18 212 -1 19 -5 40 -9 47 -4 6 -1 14 5
16 8 3 9 6 2 6 -7 1 -10 14 -8 32 2 16 0 28 -5 24 -5 -3 -8 1 -7 9 2 14 116
82 116 69 0 -3 8 4 19 15 10 12 24 22 31 22 7 0 11 2 8 5 -3 3 10 21 29 41 18
20 31 39 28 44 -3 5 0 10 6 12 12 4 20 106 10 123 -7 12 -8 18 -10 51 0 14 -5
23 -10 20 -5 -3 -12 4 -15 17 -3 12 -14 31 -24 42 -17 21 -91 61 -104 57 -5
-1 -8 3 -8 10 0 6 -3 9 -6 5 -4 -3 -18 0 -33 7 -14 7 -34 12 -43 11 -10 -2
-18 0 -18 4 0 9 -9 11 -72 14 -27 1 -48 4 -48 7 0 8 -58 12 -217 14 -79 0
-143 -2 -143 -6z"/>
</g>
</svg>
