<svg version="1" xmlns="http://www.w3.org/2000/svg" width="682.667" height="682.667" viewBox="0 0 512.000000 512.000000"><path d="M184.9 29.7c-.5 9.3-.2 20.3.6 20.3.7 0 .7.3 0 .8-.5.4-1 3.8-1 7.7 0 3.8.5 7.3 1 7.7.7.5.7.8 0 .8-.6 0-.9 3.5-.8 9l.2 9-2.7.1c-1.5 0-11 .1-21.2.2l-18.5.2-.1 13c-.1 7.1-.2 13.5-.3 14-.1.7-5 1.1-14 1-11.7 0-14.1.2-14.3 1.5-.2.8-.3 7.2-.2 14.2.1 9.1-.1 12.8-.9 12.9-.7.1-7 .2-14.2.2l-13 .2-.2 43.5c-.1 23.9-.3 46.2-.3 49.6v6H56.8l-28.3-.1v14.2c-.1 12 .1 14.2 1.5 14.5.8.2 13.5.3 28.3.3l26.7-.1v2.6c0 1.4.2 23.6.3 49.5l.2 47H113c15.2.1 28 .4 28.5.7.6.4 1 13.7.9 35.6l-.1 35.1 35.5-.2 35.4-.2V370.2l2.1-.4c1.8-.2 74.5-.2 81.3.1l2.2.1v70.5l35.5.1 35.4.2-.1-35.4c-.1-23 .3-35.4.9-35.5.6 0 13.4-.2 28.5-.2l27.5-.2.2-45c.1-24.8.2-47.1.3-49.6v-4.5h28.3l28.2.1.1-13.5c0-7.4-.3-14-.7-14.5-.5-.6-11-1-28.3-.9l-27.6.1-.1-5.1v-94.2l-11.7-.1c-6.4 0-12.8-.1-14.2-.2l-2.6-.1.1-13.3c.1-7.2-.2-13.7-.6-14.2-.4-.6-6.3-1-14.3-.9-11.7 0-13.6-.2-13.7-1.5 0-.9-.1-7.2-.2-14.1l-.2-12.5h-42.3l.2-28.3c0-15.5-.1-28.3-.4-28.3-.3-.1-6.7-.2-14.2-.3-13.3-.2-13.8-.2-13.9 1.8 0 1.2-.1 13.9 0 28.3V85l-4.7.1c-7.1 0-70 .1-75.8 0l-5.2-.1V61.2c-.1-13-.1-25.8-.1-28.3l-.1-4.5h-14c-10.5.1-14 .4-14.1 1.3zM226 184.9c1.3.1 1.5 6.9 1.4 56.3-.1 31-.2 56.6-.3 56.9 0 .4-12.7.7-28.1.7-20.8 0-28-.2-28-1.1-.1-.7-.2-26.3-.3-56.9l-.2-55.7 5-.3c4-.2 44.7-.1 50.5.1zm115.1 4.1v107.6c-.1 2.1-.3 2.1-28.1 2.2-20.9.1-28-.2-28.1-1.1-.1-.7-.2-26.2-.3-56.7-.1-43.1.1-55.6 1.1-56 .7-.3 13.4-.5 28.3-.5h27l.1 4.5zM0 163.5v78.2l13.4-.1c7.4-.1 13.8-.5 14.3-.9.4-.5.8-35.7.8-78.2V85.2H14.3L0 85.3v78.2zM483.5 163.5v78.2h14.3l14.2-.1V85.2h-28.5v78.3zM88.8 440.8l-3.8.3.3 28.2.2 28.2 28.3.1c15.5 0 28.2-.2 28.3-.5.5-2.4.3-54.5-.2-55.2-.8-1.3-18.9-1.7-18.9-.4 0 .7-.3.7-.8 0-.4-.6-5.5-1-11.7-1-6.2 0-11.3.4-11.7 1-.5.7-.8.7-.8 0 0-1-2.7-1.2-9.2-.7zM371.9 441l-2.3.6v27.3c-.1 15 .1 27.6.4 28 .3.5 13.1.8 28.5.7l28-.1.2-28.3c.2-26 .1-28.2-1.5-28.3-9.3-.4-51.6-.3-53.3.1z"/></svg>