<svg version="1" xmlns="http://www.w3.org/2000/svg" width="682.667" height="682.667" viewBox="0 0 512.000000 512.000000"><path d="M296.9 23.5c-.2.2-2.4.6-4.9.8-29.8 3.4-77.5 25.9-100.2 47.3-12.8 11.9-17.9 23-20.3 44.5-.3 2.6-.8 5.7-1 7-1.1 5.4-1.9 23.7-1.9 39l.1 16.6-3.2-.7c-4.4-1-31.3-.5-41.1.8-12.8 1.7-37.2 8-39.8 10.4-.6.4-1.6.8-2.4.8-2.4 0-20.1 9-28.2 14.3-13.6 8.9-20.8 15.5-28.7 26.2-18.5 24.7-15.4 46.9 7.7 55 3.7 1.3 17.3 5.3 24 7 .8.2 9.8 2.7 20 5.4 10.2 2.8 19.4 5.3 20.5 5.6 1.1.2 9.2 2.2 18 4.5 8.8 2.2 17.1 4.2 18.5 4.5 1.4.3 8.5 2 15.9 3.8l13.5 3.3-10 8.4c-5.5 4.7-11.9 10.1-14.3 12-2.4 1.9-5.3 4.3-6.4 5.4-1.2 1-4.2 3.5-6.7 5.5s-4.7 3.8-5 4.1c-.3.3-2.7 2.4-5.5 4.5-2.7 2.2-5.2 4.2-5.5 4.5-.3.3-2.7 2.4-5.5 4.5-2.7 2.2-5.2 4.2-5.5 4.5-.3.3-2.5 2.1-5 4s-4.7 3.7-5 4c-.3.3-5.2 4.4-11 9s-10.7 8.7-11 9c-.3.3-2.7 2.3-5.5 4.5-12.8 10.3-23.6 24.3-27 35.1-3.8 11.9-1.6 24.3 6.1 33.3 5.2 6.2 18.4 13.5 28.1 15.7 6 1.3 24.6 1.6 33 .4 24.9-3.2 53.5-14.1 87.3-33.2 27-15.2 60.5-38.3 79-54.5 6.2-5.4 8.5-7.3 9.1-7.3.5 0 44.4 23.7 56.2 30.4 17.6 10 39.2 11.7 64.5 5.1 28.8-7.6 57.7-24 78.2-44.5 15.9-15.8 22.3-27.6 22.4-41.5.1-9.5-1.7-13.9-8-20-4.7-4.4-8.1-6.3-29.4-16.1-8-3.7-17.6-8.1-21.5-9.9-3.8-1.8-14.9-6.7-24.5-11s-17.7-8-18-8.2c-.9-.8 24.5-48.3 28.4-53 12.1-14.6 31.1-40.4 42.4-57.8 5.1-7.7 9.8-14.9 10.5-16 4.1-6 10.2-18.4 11.2-23 3.3-14.2-2.8-25-18.7-32.8-17.9-8.8-39.4-10.8-66.8-6.1-9.7 1.7-33.7 10.1-39.8 14.1-2.8 1.7-3.3 1.4-3.7-2.4-.1-1.5-.6-6.4-1-10.8s-.8-10.3-1.1-13c-1.5-21.4-2.6-28.1-5.1-33.7-4.2-9.5-13.2-15.9-25.8-18.6-4.5-1-29.8-1.6-30.6-.7z"/></svg>