<?xml version="1.0" standalone="no"?>
<!DOCTYPE svg PUBLIC "-//W3C//DTD SVG 20010904//EN"
 "http://www.w3.org/TR/2001/REC-SVG-20010904/DTD/svg10.dtd">
<svg version="1.0" xmlns="http://www.w3.org/2000/svg"
 width="512.000000pt" height="512.000000pt" viewBox="0 0 512.000000 512.000000"
 preserveAspectRatio="xMidYMid meet">
<metadata>
Created by potrace 1.14, written by Peter Selinger 2001-2017
</metadata>
<g transform="translate(0.000000,512.000000) scale(0.100000,-0.100000)"
fill="#000000" stroke="none">
<path d="M2538 3835 c-2 -1 -41 -5 -88 -8 -47 -4 -97 -9 -112 -12 -16 -3 -38
-7 -50 -9 -13 -2 -61 -16 -108 -31 -262 -83 -475 -235 -639 -455 -69 -93 -72
-98 -116 -188 -43 -87 -74 -165 -87 -212 -16 -65 -19 -75 -28 -120 -23 -120
-30 -272 -16 -390 18 -153 100 -396 168 -496 15 -23 28 -45 28 -48 0 -31 245
-294 310 -333 17 -9 30 -21 30 -25 0 -4 4 -8 10 -8 5 0 38 -17 72 -37 212
-127 400 -178 653 -177 243 0 427 51 660 184 89 50 258 200 335 296 122 152
226 388 256 579 4 28 9 57 11 65 5 24 5 251 0 295 -22 175 -88 363 -182 524
-61 103 -208 265 -302 334 -24 17 -43 34 -43 39 0 4 -5 8 -10 8 -6 0 -37 16
-68 36 -135 87 -314 152 -477 173 -80 11 -202 20 -207 16z"/>
</g>
</svg>
