<?xml version="1.0" encoding="UTF-8"?>
<!DOCTYPE svg PUBLIC "-//W3C//DTD SVG 1.1//EN" "http://www.w3.org/Graphics/SVG/1.1/DTD/svg11.dtd">
<svg version="1.1" xmlns="http://www.w3.org/2000/svg" xmlns:xlink="http://www.w3.org/1999/xlink" x="0" y="0" width="512" height="512" viewBox="0, 0, 512, 512">
  <g id="Layer_1">
    <path d="M110.397,471.328 L110.397,395.04 L164.537,395.04 L164.537,370.432 L110.397,370.432 L110.397,318.548 L57.078,318.548 L57.078,267.279 L3.758,267.279 L3.758,141.158 L79.636,141.158 L79.636,244.721 L110.397,244.721 L110.397,141.158 L164.537,141.158 L164.537,116.549 L110.397,116.549 L110.397,40.672 L187.095,40.672 L187.095,93.991 L240.414,93.991 L240.414,141.158 L271.586,141.158 L271.586,93.991 L324.905,93.991 L324.905,40.672 L401.603,40.672 L401.603,116.549 L347.463,116.549 L347.463,141.158 L401.603,141.158 L401.603,244.721 L432.364,244.721 L432.364,141.158 L508.242,141.158 L508.242,267.279 L454.922,267.279 L454.922,318.548 L401.603,318.548 L401.603,370.432 L347.463,370.432 L347.463,395.04 L401.603,395.04 L401.603,471.328 L324.905,471.328 L324.905,417.599 L271.586,417.599 L271.586,370.432 L240.414,370.432 L240.414,417.599 L187.095,417.599 L187.095,471.328 z M132.955,448.77 L164.537,448.77 L164.537,417.599 L132.955,417.599 z M26.317,244.721 L57.078,244.721 L57.078,163.717 L26.317,163.717 z M347.463,448.77 L379.045,448.77 L379.045,417.599 L347.463,417.599 z M175.406,256 L175.406,202.476 L229.135,202.476 L229.135,256 z M187.095,395.04 L217.856,395.04 L217.856,347.873 L294.144,347.873 L294.144,395.04 L324.905,395.04 L324.905,347.873 L379.045,347.873 L379.045,295.99 L432.364,295.99 L432.364,267.279 L379.045,267.279 L379.045,163.717 L324.905,163.717 L324.905,116.549 L294.144,116.549 L294.144,163.717 L217.856,163.717 L217.856,116.549 L187.095,116.549 L187.095,163.717 L132.955,163.717 L132.955,267.279 L79.636,267.279 L79.636,295.99 L132.955,295.99 L132.955,347.873 L187.095,347.873 z M132.955,93.991 L164.537,93.991 L164.537,63.23 L132.955,63.23 z M282.865,256 L282.865,202.476 L336.594,202.476 L336.594,256 z M454.922,244.721 L485.683,244.721 L485.683,163.717 L454.922,163.717 z M347.463,93.991 L379.045,93.991 L379.045,63.23 L347.463,63.23 z" fill="#000000"/>
  </g>
</svg>
