<svg xmlns="http://www.w3.org/2000/svg" xml:space="preserve" fill-rule="evenodd" stroke-linejoin="round" stroke-miterlimit="2" clip-rule="evenodd" viewBox="0 0 127 111">
  <path fill-rule="nonzero" d="M76.018 110.987 63.61 90.952l-29.11 13.94 4.117-17.385L3.304 90.21l25.399-20.883L-.001 47.86l31.486-.583L3.595 2.385l52.65 28.674L63.03 0l17.977 28.09 36.297-26.182-13.51 38.904 22.615-5.512-21.919 28.037 21.976 6.626-22.904 9.593 14.15 24.7-33.17-12.191-8.523 18.922Zm-.87-12.932 6.089-12.88 24.18 8.904-9.8-16.96 15.366-6.309-15.423-5.088 16.873-21.518-16.41 3.232 10.147-30.9-26.847 19.4L65.64 14.364 60.247 39.38 19.308 17.067l21.918 35.3-25.86.476L37.458 69.22 19.946 83.637l25.92-1.961-3.19 13.357L66.044 83.85l9.105 14.205ZM73.758 83.85l-6.088-10.018-13.975 8.374 4.292-10.07-19.194 4.293L51.2 65.987l-16.7-7.844 17.977-.53-15.02-23.904 26.964 15.212 4.06-18.657 9.277 15.212L93.935 31.96l-8.813 22.05 11.713-.955-13.453 14.681 9.51 3.234-9.452 2.28 6.09 7.897-12.641-6.467-3.132 9.17Z"/>
</svg>
