<?xml version="1.0" encoding="UTF-8"?>
<!DOCTYPE svg PUBLIC "-//W3C//DTD SVG 1.1//EN" "http://www.w3.org/Graphics/SVG/1.1/DTD/svg11.dtd">
<svg version="1.1" xmlns="http://www.w3.org/2000/svg" xmlns:xlink="http://www.w3.org/1999/xlink" x="0" y="0" width="114" height="128" viewBox="0, 0, 114, 128">
  <g id="Background">
    <rect x="0" y="0" width="114" height="128" fill="#000000" fill-opacity="0"/>
  </g>
  <g id="Background"/>
  <g id="Layer_1">
    <path d="M58.415,128 Q49.8,128 46.2,122.369 Q42.6,116.738 42.6,103.754 Q31.585,103.077 23.062,96.954 Q14.538,90.831 9.708,80.462 Q4.877,70.092 4.877,56.738 Q4.877,44.985 9.031,38.646 Q13.185,32.308 20.692,32.308 Q27.031,32.308 29.923,36.892 Q32.815,41.477 32.815,49.6 Q32.815,53.538 32.446,57.692 Q32.077,61.846 32.077,65.662 Q32.077,71.631 34.6,74.738 Q37.123,77.846 41.738,78.523 L41.738,69.231 Q41.738,65.477 41.308,60.369 Q40.877,55.262 40.292,49.692 Q39.708,44.123 39.277,39.015 Q38.846,33.908 38.846,30.154 Q38.846,17.846 44.077,11.692 Q49.308,5.538 58.415,5.538 Q66.969,5.538 71.769,10.831 Q76.569,16.123 76.569,26.892 Q76.569,30.092 76.354,34.892 Q76.138,39.692 75.769,45.077 Q75.4,50.462 75.031,55.477 Q74.662,60.492 74.354,64.185 Q75.277,64.738 76.477,65.015 Q77.677,65.292 78.6,65.292 Q80.692,65.292 81.985,63.877 Q83.277,62.462 83.277,60.185 Q83.277,55.262 82.877,51.108 Q82.477,46.954 82.477,42.154 Q82.477,27.569 95.154,27.569 Q102.538,27.569 105.708,32.923 Q108.877,38.277 108.877,50.277 Q108.877,61.662 105.308,70.492 Q101.738,79.323 95.4,84.308 Q89.062,89.292 80.815,89.292 Q77.8,89.292 74.662,88.554 L74.662,104.985 Q74.662,117.108 70.846,122.554 Q67.031,128 58.415,128 z M13.431,93.662 Q12.385,93.662 12.385,92.123 Q12.385,91.015 12.877,89.723 Q12.138,90.031 11.523,90.154 Q10.908,90.277 10.415,90.277 Q8.938,90.277 8.938,89.231 Q8.938,88.554 9.8,87.692 Q11.338,86.154 14.231,86.154 Q14.723,86.154 15.246,86.215 Q15.769,86.277 16.262,86.4 Q16.446,87.138 16.446,88.062 Q16.446,90.092 15.615,91.877 Q14.785,93.662 13.431,93.662 z M40.077,116.923 Q38.046,116.923 38.046,115.754 Q38.046,114.523 40.754,113.292 Q38.108,112.062 38.108,110.831 Q38.108,109.662 40.077,109.662 Q41.492,109.662 43.031,110.677 Q44.569,111.692 45.554,113.292 Q44.569,114.892 43.031,115.908 Q41.492,116.923 40.077,116.923 z M4.138,72.985 Q2.169,72.985 2.169,71.815 Q2.169,70.585 4.877,69.354 Q2.169,68.123 2.169,66.892 Q2.169,65.723 4.138,65.723 Q5.554,65.723 7.092,66.708 Q8.631,67.692 9.615,69.292 Q8.631,70.954 7.092,71.969 Q5.554,72.985 4.138,72.985 z M5.677,52.431 Q2.785,52.431 1.246,50.892 Q0.385,50.031 0.385,49.354 Q0.385,48.308 1.862,48.308 Q2.354,48.308 2.969,48.431 Q3.585,48.554 4.323,48.862 Q3.831,47.569 3.831,46.462 Q3.831,44.923 4.877,44.923 Q6.231,44.923 7.062,46.708 Q7.892,48.492 7.892,50.523 Q7.892,51.446 7.708,52.185 Q7.215,52.308 6.692,52.369 Q6.169,52.431 5.677,52.431 z M16.692,62.277 Q13.8,62.277 12.262,60.738 Q11.4,59.877 11.4,59.2 Q11.4,58.154 12.877,58.154 Q13.369,58.154 13.985,58.277 Q14.6,58.4 15.338,58.708 Q14.846,57.415 14.846,56.308 Q14.846,54.769 15.892,54.769 Q17.246,54.769 18.077,56.554 Q18.908,58.338 18.908,60.369 Q18.908,61.292 18.723,62.031 Q18.231,62.154 17.708,62.215 Q17.185,62.277 16.692,62.277 z M76.754,116.923 Q75.4,116.923 73.862,115.908 Q72.323,114.892 71.277,113.292 Q72.323,111.692 73.862,110.677 Q75.4,109.662 76.754,109.662 Q78.723,109.662 78.723,110.831 Q78.723,112.062 76.077,113.292 Q78.785,114.523 78.785,115.754 Q78.785,116.923 76.754,116.923 z M45.246,93.046 Q30.969,93.046 23.738,84.215 Q16.508,75.385 16.508,58.031 Q16.508,47.692 19.092,34.4 L22.662,35.138 Q20.138,48.492 20.138,58.215 Q20.138,73.846 26.415,81.569 Q32.692,89.292 45.308,89.292 Q49.062,89.292 52.938,88.677 L53.431,92.369 Q48.877,93.046 45.246,93.046 z M39.892,72 Q37.923,72 37.923,70.831 Q37.923,69.6 40.631,68.369 Q37.923,67.138 37.923,65.908 Q37.923,64.738 39.892,64.738 Q41.308,64.738 42.846,65.754 Q44.385,66.769 45.369,68.369 Q44.385,69.969 42.846,70.985 Q41.308,72 39.892,72 z M77.985,101.538 Q76.631,101.538 75.092,100.523 Q73.554,99.508 72.508,97.908 Q73.554,96.308 75.092,95.292 Q76.631,94.277 77.985,94.277 Q79.954,94.277 79.954,95.446 Q79.954,96.677 77.308,97.908 Q80.015,99.138 80.015,100.369 Q80.015,101.538 77.985,101.538 z M51.954,124.431 Q51.954,104.985 51.646,89.969 Q51.338,74.954 50.908,63.077 Q50.662,55.2 50.477,48.523 Q50.292,41.846 50.292,36.062 Q50.292,27.815 50.754,20.769 Q51.215,13.723 52.508,7.015 L56.138,7.692 Q54.908,14.215 54.415,21.077 Q53.923,27.938 53.923,36 Q53.923,41.785 54.108,48.369 Q54.292,54.954 54.538,62.831 Q54.969,74.646 55.308,89.754 Q55.646,104.862 55.646,124.431 z M20.815,35.569 Q19.215,34.585 18.2,33.046 Q17.185,31.508 17.185,30.092 Q17.185,28.062 18.354,28.062 Q19.585,28.062 20.815,30.769 Q22.046,28.062 23.277,28.062 Q24.446,28.062 24.446,30.092 Q24.446,31.508 23.431,33.046 Q22.415,34.585 20.815,35.569 z M58.415,123.077 Q64.631,123.077 67.185,119.138 Q69.738,115.2 69.738,104.985 L69.738,81.538 Q75.831,84.369 80.815,84.369 Q87.585,84.369 92.815,80.031 Q98.046,75.692 101,68 Q103.954,60.308 103.954,50.277 Q103.954,40.123 102.015,36.308 Q100.077,32.492 95.154,32.492 Q91.031,32.492 89.215,34.708 Q87.4,36.923 87.4,42.154 Q87.4,46.831 87.8,51.169 Q88.2,55.508 88.2,60.185 Q88.2,64.492 85.462,67.354 Q82.723,70.215 78.6,70.215 Q73.308,70.215 69.431,66.646 Q69.677,63.508 70.046,58.031 Q70.415,52.554 70.785,46.4 Q71.154,40.246 71.4,34.954 Q71.646,29.662 71.646,26.892 Q71.646,18.092 68.231,14.277 Q64.815,10.462 58.415,10.462 Q51.585,10.462 47.677,15.138 Q43.769,19.815 43.769,30.154 Q43.769,33.723 44.2,38.8 Q44.631,43.877 45.215,49.446 Q45.8,55.015 46.231,60.185 Q46.662,65.354 46.662,69.231 L46.662,83.446 Q46.046,83.508 45.4,83.538 Q44.754,83.569 44.138,83.569 Q36.138,83.569 31.646,78.985 Q27.154,74.4 27.154,65.662 Q27.154,63.754 27.338,60.554 Q27.523,57.354 27.708,54.246 Q27.892,51.138 27.892,49.6 Q27.892,43.385 26.292,40.308 Q24.692,37.231 20.692,37.231 Q15.523,37.231 12.662,42.092 Q9.8,46.954 9.8,56.738 Q9.8,69.292 14.446,78.769 Q19.092,88.246 27.554,93.569 Q36.015,98.892 47.523,98.892 L47.523,103.754 Q47.523,111.2 48.538,115.415 Q49.554,119.631 51.954,121.354 Q54.354,123.077 58.415,123.077 z M60.077,124.431 Q60.077,104.923 60.415,89.908 Q60.754,74.892 61.185,63.138 Q61.492,55.077 61.646,48.308 Q61.8,41.538 61.8,35.692 Q61.8,27.631 61.308,20.862 Q60.815,14.092 59.585,7.631 L63.215,6.954 Q64.508,13.785 64.969,20.831 Q65.431,27.877 65.431,36.308 Q65.431,42.031 65.308,48.615 Q65.185,55.2 64.877,62.954 Q64.446,74.769 64.108,89.846 Q63.769,104.923 63.769,124.431 z M36.2,28.308 Q34.231,28.308 34.231,27.138 Q34.231,25.908 36.938,24.677 Q34.231,23.446 34.231,22.215 Q34.231,21.046 36.2,21.046 Q37.615,21.046 39.154,22.062 Q40.692,23.077 41.677,24.677 Q40.692,26.277 39.154,27.292 Q37.615,28.308 36.2,28.308 z M54.846,45.046 Q54.354,45.046 53.831,44.985 Q53.308,44.923 52.815,44.8 Q52.631,44.062 52.631,43.138 Q52.631,41.108 53.462,39.323 Q54.292,37.538 55.646,37.538 Q56.692,37.538 56.692,39.077 Q56.692,40.185 56.2,41.477 Q56.938,41.169 57.554,41.046 Q58.169,40.923 58.662,40.923 Q60.138,40.923 60.138,41.969 Q60.138,42.646 59.277,43.508 Q57.738,45.046 54.846,45.046 z M98.538,87.877 Q97.185,87.877 96.323,85.908 Q95.462,83.938 95.462,82.154 Q95.462,80.985 95.708,80.185 Q98.169,80.185 100.631,80.985 Q103.092,81.785 103.092,83.446 Q103.092,83.938 102.569,84.215 Q102.046,84.492 101.431,84.492 Q100.569,84.492 99.092,83.938 Q99.585,85.231 99.585,86.277 Q99.585,86.892 99.369,87.385 Q99.154,87.877 98.538,87.877 z M79.154,80.123 Q74.969,80.123 70.785,78.308 Q66.6,76.492 61.985,73.169 L64.2,70.215 Q68.323,73.169 71.892,74.769 Q75.462,76.369 79.031,76.369 Q86.169,76.369 90.446,69.938 Q94.723,63.508 94.723,51.385 Q94.723,46.215 93.923,41.231 Q93.123,36.246 91.215,30.092 L94.785,29.231 Q96.692,35.508 97.523,40.554 Q98.354,45.6 98.354,50.954 Q98.354,64.738 93.062,72.431 Q87.769,80.123 79.154,80.123 z M109.923,68.677 Q108.508,68.677 106.969,67.662 Q105.431,66.646 104.385,64.985 Q105.431,63.385 106.969,62.4 Q108.508,61.415 109.923,61.415 Q111.831,61.415 111.831,62.523 Q111.831,63.815 109.185,65.046 Q111.892,66.277 111.892,67.508 Q111.892,68.677 109.923,68.677 z M58.354,8.246 Q56.631,7.2 55.492,5.477 Q54.354,3.754 54.354,2.215 Q54.354,0 55.646,0 Q57.062,0 58.354,2.954 Q59.646,0 61.062,0 Q62.354,0 62.354,2.215 Q62.354,3.754 61.246,5.477 Q60.138,7.2 58.354,8.246 z M75.831,20.431 Q75.338,20.431 74.815,20.369 Q74.292,20.308 73.8,20.185 Q73.554,19.385 73.554,18.277 Q73.554,16.431 74.477,14.677 Q75.4,12.923 76.631,12.923 Q77.677,12.923 77.677,14.462 Q77.677,15.569 77.185,16.862 Q77.923,16.554 78.538,16.431 Q79.154,16.308 79.646,16.308 Q81.123,16.308 81.123,17.354 Q81.123,18.708 79.369,19.569 Q77.615,20.431 75.831,20.431 z M108.323,45.046 Q107.831,45.046 107.308,44.985 Q106.785,44.923 106.292,44.8 Q106.108,44.062 106.108,43.138 Q106.108,41.108 106.938,39.323 Q107.769,37.538 109.123,37.538 Q110.169,37.538 110.169,39.077 Q110.169,40.185 109.677,41.477 Q110.415,41.169 111.031,41.046 Q111.646,40.923 112.138,40.923 Q113.615,40.923 113.615,41.969 Q113.615,42.646 112.754,43.508 Q111.215,45.046 108.323,45.046 z M95.4,30.031 Q93.8,29.046 92.785,27.508 Q91.769,25.969 91.769,24.554 Q91.769,22.523 92.938,22.523 Q94.169,22.523 95.4,25.231 Q96.631,22.523 97.862,22.523 Q99.031,22.523 99.031,24.554 Q99.031,25.969 98.015,27.508 Q97,29.046 95.4,30.031 z" fill="#000000"/>
  </g>
</svg>
