<svg xmlns="http://www.w3.org/2000/svg" width="114" height="128" viewBox="0 0 114 128"><path d="M58 128Q49.4 128 45.3 122.4 41.1 116.8 41.1 103.9 30.2 103.1 21.9 96.9 13.6 90.8 9 80.4 4.4 70.1 4.4 56.8 4.4 44.9 8.7 38.5 12.9 32 20.7 32 27.2 32 30.6 36.7 34 41.4 34 49.7 34 53.6 33.6 57.8 33.2 61.9 33.2 65.6 33.2 71.1 35.1 74 37 76.9 40.9 77.7L40.9 69.2Q40.9 65.5 40.5 60.4 40.2 55.3 39.7 49.9 39.1 44.4 38.8 39.3 38.4 34.2 38.4 30.5 38.4 17.6 43.6 11.5 48.8 5.5 58 5.5 66.8 5.5 72 10.7 77.2 15.9 77.2 27.2 77.2 30.4 77 35 76.8 39.7 76.4 45 76.1 50.3 75.7 55.3 75.3 60.2 75 63.9 75.8 64.3 76.6 64.5 77.3 64.7 78 64.7 79.8 64.7 80.9 63.5 82.1 62.2 82.1 60.2 82.1 55.3 81.7 51.3 81.3 47.2 81.3 42.4 81.3 27.3 94.4 27.3 102 27.3 105.6 32.8 109.2 38.3 109.2 50.4 109.2 61.9 105.5 70.7 101.7 79.6 95.1 84.6 88.6 89.7 80.2 89.7 77.4 89.7 74.7 89.1L74.7 104.6Q74.7 116.8 70.8 122.4 66.8 128 58 128zM13.9 93.7Q12.7 93.7 12.7 92.1 12.7 91 13.3 89.5 12.5 89.8 11.8 89.9 11.2 90.1 10.6 90.1 9 90.1 9 88.9 9 88.1 9.9 87.2 11.6 85.6 14.8 85.6 15.4 85.6 15.9 85.6 16.5 85.7 17 85.8 17.2 86.6 17.2 87.7 17.2 89.8 16.3 91.8 15.4 93.7 13.9 93.7zM40.1 116.8Q37.9 116.8 37.9 115.5 37.9 114.2 40.8 112.8 37.9 111.5 37.9 110.1 37.9 108.9 40.1 108.9 41.6 108.9 43.3 110 44.9 111.1 46 112.8 44.9 114.5 43.3 115.7 41.6 116.8 40.1 116.8zM4.5 73.3Q2.3 73.3 2.3 72 2.3 70.6 5.3 69.3 2.3 68 2.3 66.6 2.3 65.3 4.5 65.3 6 65.3 7.7 66.4 9.4 67.5 10.4 69.2 9.4 71 7.7 72.1 6 73.3 4.5 73.3zM6 52.9Q2.9 52.9 1.2 51.3 0.3 50.3 0.3 49.6 0.3 48.4 1.9 48.4 2.4 48.4 3.1 48.5 3.8 48.7 4.6 49 4 47.4 4 46.4 4 44.7 5.2 44.7 6.7 44.7 7.6 46.7 8.5 48.6 8.5 50.8 8.5 51.8 8.3 52.7 7.8 52.8 7.2 52.8 6.7 52.9 6 52.9zM17.2 62.7Q14 62.7 12.4 61 11.5 60.1 11.5 59.3 11.5 58.1 13.1 58.1 13.6 58.1 14.3 58.3 14.9 58.5 15.7 58.8 15.2 57.2 15.2 56.1 15.2 54.5 16.3 54.5 17.8 54.5 18.7 56.4 19.6 58.4 19.6 60.6 19.6 61.6 19.5 62.4 18.9 62.5 18.4 62.6 17.8 62.7 17.2 62.7zM76.7 116.8Q75.2 116.8 73.5 115.7 71.9 114.5 70.8 112.8 71.9 111.1 73.5 110 75.2 108.9 76.7 108.9 78.9 108.9 78.9 110.1 78.9 111.5 76 112.8 78.9 114.2 78.9 115.5 78.9 116.8 76.7 116.8zM45.5 93.9Q30.9 93.9 23.3 84.7 15.7 75.5 15.7 57.6 15.7 47.6 18.2 34.6L24.2 35.5Q21.6 48.9 21.6 58.9 21.6 73.6 27.5 80.7 33.3 87.8 45.2 87.8 49 87.8 52.9 87.2L53.6 93.3Q49.5 93.9 45.5 93.9zM39.9 72.3Q37.7 72.3 37.7 71 37.7 69.6 40.7 68.3 37.7 67 37.7 65.6 37.7 64.4 39.9 64.4 41.5 64.4 43.1 65.5 44.8 66.6 45.8 68.3 44.8 70 43.1 71.2 41.5 72.3 39.9 72.3zM78 101.5Q76.4 101.5 74.8 100.4 73.1 99.3 72 97.6 73.1 95.8 74.8 94.7 76.4 93.6 78 93.6 80.1 93.6 80.1 94.9 80.1 96.3 77.2 97.6 80.2 98.9 80.2 100.3 80.2 101.5 78 101.5zM51.4 123.9Q51.4 104.5 51.1 89.6 50.9 74.7 50.3 63 49.7 52.5 49.4 44.1 49 35.7 49 28.5 49 22.5 49.6 17.1 50.1 11.6 51.6 6.3L56.9 7.3Q55.6 13.9 55.1 20.8 54.6 27.7 54.6 36 54.6 41.8 54.8 48.3 55 54.9 55.2 62.7 55.7 74.4 56 89.4 56.3 104.4 56.3 123.9zM21.2 36.2Q19.5 35.2 18.4 33.5 17.3 31.8 17.3 30.2 17.3 28 18.5 28 19.9 28 21.2 31 22.5 28 23.9 28 25.2 28 25.2 30.2 25.2 31.8 24.1 33.5 23 35.2 21.2 36.2zM58 121.9Q63.9 121.9 66.3 118.2 68.6 114.5 68.6 104.6L68.6 80.5Q75.1 83.6 80.2 83.6 86.7 83.6 91.8 79.4 96.8 75.2 99.7 67.7 102.5 60.2 102.5 50.4 102.5 40.6 100.8 37 99 33.4 94.4 33.4 90.6 33.4 89.3 35.4 88 37.4 88 42.4 88 46.1 88.4 51.1 88.8 56.1 88.8 60.2 88.8 64.7 85.6 67.7 82.4 70.8 78 70.8 73 70.8 68.9 66.9 69.1 63.6 69.4 58.3 69.7 53 69.9 47 70.2 41 70.3 35.7 70.5 30.4 70.5 27.2 70.5 18.8 67.3 15.2 64 11.6 58 11.6 51.6 11.6 48 16 44.5 20.5 44.5 30.5 44.5 34.1 44.9 39.1 45.2 44.1 45.8 49.6 46.3 55 46.6 60.2 47 65.3 47 69.2L47 83.8Q46.2 83.9 45.4 83.9 44.6 84 43.8 84 35.7 84 31.1 79.2 26.5 74.5 26.5 65.6 26.5 63.7 26.7 60.6 26.9 57.4 27.1 54.4 27.3 51.3 27.3 49.7 27.3 43.8 25.8 40.9 24.4 38.1 20.7 38.1 15.9 38.1 13.5 42.7 11.1 47.4 11.1 56.8 11.1 69.1 15.5 78.3 19.9 87.6 28.1 92.8 36.3 98 47.9 98L47.9 103.4Q47.9 110.6 48.8 114.6 49.7 118.7 52 120.3 54.2 121.9 58 121.9zM59.5 123.9Q59.5 104.6 59.8 89.8 60.1 74.9 60.5 63.3 60.8 56.2 61 49 61.1 41.8 61.1 36 61.1 27.7 60.7 20.8 60.2 13.9 58.8 7.3L64.2 6.3Q65.7 11.6 66.2 17.1 66.8 22.5 66.8 28.5 66.8 35.7 66.4 44.1 66 52.5 65.5 63 64.9 74.7 64.6 89.6 64.4 104.5 64.4 123.9zM36.2 29Q34.1 29 34.1 27.7 34.1 26.3 37 25.1 34.1 23.8 34.1 22.4 34.1 21.1 36.2 21.1 37.8 21.1 39.5 22.2 41.2 23.3 42.2 25.1 41.2 26.8 39.5 27.9 37.8 29 36.2 29zM54.7 45.6Q54.1 45.6 53.6 45.5 53 45.5 52.5 45.3 52.3 44.5 52.3 43.5 52.3 41.3 53.2 39.4 54.1 37.4 55.6 37.4 56.8 37.4 56.8 39.1 56.8 40.1 56.2 41.7 57 41.4 57.7 41.2 58.3 41.1 58.9 41.1 60.5 41.1 60.5 42.2 60.5 43 59.6 43.9 57.9 45.6 54.7 45.6zM98.1 88Q96.6 88 95.6 85.9 94.7 83.7 94.7 81.8 94.7 80.6 95 79.7 97.7 79.7 100.3 80.5 103 81.4 103 83.2 103 83.7 102.5 84.1 101.9 84.4 101.3 84.4 100.2 84.4 98.7 83.7 99.2 85.3 99.2 86.3 99.2 86.9 99 87.5 98.8 88 98.1 88zM79.2 80.6Q75.5 80.6 71.3 79.1 67 77.5 62.4 74.2L65.2 69.7Q69.1 72.5 72.6 73.8 76.1 75.1 79.1 75.1 85.7 75.1 89.6 69.2 93.5 63.4 93.5 52.9 93.5 48.1 92.6 42.4 91.7 36.8 89.7 30.4L95.1 29.3Q96.9 35.5 97.8 41.2 98.6 46.9 98.6 52 98.6 65.2 93.3 72.9 88 80.6 79.2 80.6zM109.6 69Q108.1 69 106.4 67.9 104.7 66.7 103.6 65 104.7 63.3 106.4 62.2 108.1 61.1 109.6 61.1 111.7 61.1 111.7 62.3 111.7 63.8 108.8 65 111.7 66.4 111.7 67.7 111.7 69 109.6 69zM58.3 8.2Q56.6 7.1 55.5 5.4 54.4 3.7 54.4 2.2 54.4 0 55.7 0 57.1 0 58.3 2.9 59.6 0 61 0 62.3 0 62.3 2.2 62.3 3.7 61.2 5.4 60.1 7.1 58.3 8.2zM75.5 21.2Q74.9 21.2 74.4 21.2 73.8 21.1 73.3 21 73 20.1 73 18.9 73 16.9 74 15 75 13 76.4 13 77.5 13 77.5 14.7 77.5 15.7 77 17.3 77.8 17 78.5 16.9 79.1 16.7 79.7 16.7 81.3 16.7 81.3 17.9 81.3 19.3 79.4 20.3 77.5 21.2 75.5 21.2zM108 45.6Q107.3 45.6 106.8 45.5 106.3 45.5 105.7 45.3 105.5 44.5 105.5 43.5 105.5 41.3 106.4 39.4 107.3 37.4 108.8 37.4 110 37.4 110 39.1 110 40.1 109.4 41.7 110.2 41.4 110.9 41.2 111.6 41.1 112.1 41.1 113.7 41.1 113.7 42.2 113.7 43 112.8 43.9 111.1 45.6 108 45.6zM95 30.7Q93.3 29.7 92.2 28 91.1 26.3 91.1 24.7 91.1 22.6 92.4 22.6 93.8 22.6 95 25.5 96.3 22.6 97.7 22.6 99 22.6 99 24.7 99 26.3 97.9 28 96.8 29.7 95 30.7z"/></svg>