<svg xmlns="http://www.w3.org/2000/svg" viewBox="0 0 512 512"><path d="M307.1 500.8L256.7 413.2 138.5 474.7 154.6 398.2 10.5 410.6 113.3 317.6 -0.5 221.7 125.4 218.9 12.8 19.6 226.4 146.2 254.6 11.2 327.1 132.9 474.7 17.9 420.4 189.5 512.5 165.1 423.2 290.3 510.6 319.7 419 362.8 475.4 471.9 341.6 418.1zM302.9 431.8L325.5 381.4 416 417.8 380.7 349.7 435.8 324.1 380 302.6 444.9 212.2 383.3 224.1 420.9 95.3 319.2 174.4 267.2 87.2 245.7 190.2 88.8 97.2 172.8 245.7 73.9 248.1 155.7 316.9 90.9 375.6 189.8 367.2 178.1 422.5 268.6 375.4zM298.2 384L272.8 338.5 214.5 376.8 232.2 331.1 152.5 350.7 204.7 302.6 134.8 266.5 209.8 264.2 148 156.2 259.3 225 276.1 141 314.3 209.6 382.1 147.8 345.5 248.1 393.8 243.6 338.8 309.4 378.9 324.3 339 335 365.6 372.8 311.3 342.3z"/></svg>
