<svg xmlns="http://www.w3.org/2000/svg" width="128" height="128" viewBox="0 0 128 128"><path d="M18 68.6C23 69.1 20.9 68.5 24.5 69.9L64.3 88.9 104 69.9C115.9 64.4 122.6 80.5 110.8 86L24.5 126.8C12.3 132.5 5.6 116.6 17.6 110.9L43.9 98.2 17.6 86C11.1 82.9 8.1 73.8 14.7 69.7 15.7 69.1 16.9 69 18 68.6zM94.7 102.9L74.9 113.5 104 126.8C116.1 132.3 122.6 116.6 110.8 110.9L94.7 102.9zM76.9 31C81.2 31 85.5 33.6 85.5 38.7 85.5 43.4 81.8 46.9 76.9 46.9 71.8 46.9 68.4 43.4 68.4 38.7 68.4 33.6 72.4 31 76.9 31zM51 31C55.7 31 59.2 33.6 59.2 38.7 59.2 43.4 56.3 46.9 51 46.9 46.4 46.9 42.7 43.4 42.7 38.7 42.7 33.6 47.4 31 51 31zM64.1 0C43.1 0 32.1 14.3 32.1 28.9 32.1 57.3 50.6 70.1 64.1 70.1 78.1 70.1 96.1 56.9 96.1 28.9 96.1 14.3 85.1 0 64.1 0z"/></svg>
