<svg xmlns="http://www.w3.org/2000/svg" width="256" height="256" viewBox="0 0 256 256"><path d="M171.8 143.6L135.6 149.3 132.3 139.4C132.1 138.8 131.8 138.5 131.3 138.5L113.8 138.5C113 138.5 112.5 139.4 112.7 140.2L116.5 152.2 111.7 153.1C110.3 153.3 109.5 154.4 109.5 155.5L109.5 159.8C109.5 161.1 110.3 161.9 111.7 162.2L116.5 163 112.7 175.1C112.5 175.9 113 176.7 113.8 176.7L131.3 176.7C131.8 176.7 132.3 176.4 132.3 175.9L135.6 166 171.8 171.6C180.7 172.9 188.5 166.2 188.5 157.4 188.5 149 180.7 142.3 171.8 143.6z"/><path d="M143.1 207.6L106.8 202 106.8 191.7C106.8 191.2 106.6 190.7 106 190.7L89.4 185.3C88.6 184.5 87.7 185.3 87.7 186.1L87.7 198.7 82.6 197.9C81.3 197.7 80.2 198.5 80 199.5L78.6 203.6C78.3 204.6 78.9 206 80 206.5L84.5 208.9 76.7 219.4C76.2 220.2 76.5 221 77.3 221.3L93.9 226.7C94.5 226.9 95 226.7 95.3 226.1L101.4 217.8 134 234.5C141.8 238.5 151.4 234.5 154.1 226.1 157.3 217.8 151.7 208.9 143.1 207.6z"/><path d="M252.5 67.3C243.1 54.4 226.4 47.7 210 52L163.5 63.6 103.1 21.4C101.2 20.1 99 19.8 96.9 20.1L81 23.3C75.9 24.3 73.2 30 75.4 34.6L97.1 80.5 52 92.1 18.7 64.7C17.6 63.8 16.5 63.6 15.2 63.8L3.6 66.3C1 66.8-0.4 69.8 0.7 72.2L29.2 132.1C30.8 135.6 34.5 137.5 38.3 136.7L242.2 94.2C254.1 91.5 259.7 77.3 252.5 67.3z"/></svg>
