<svg xmlns="http://www.w3.org/2000/svg" xml:space="preserve" fill-rule="evenodd" stroke-linejoin="round" stroke-miterlimit="2" clip-rule="evenodd" viewBox="0 0 128 124"><g fill-rule="nonzero"><path d="M49.013 76.79a9.737 9.737 0 0 0-3.077 7.028 3.366 3.366 0 0 0 2.077 3.092 3.367 3.367 0 0 0 3.656-.722 8.3 8.3 0 0 0 2.606-4.758c0-.252.538-3.75-.52-4.724a3.364 3.364 0 0 0-4.742.083Zm11.585.807a3.36 3.36 0 0 0-4.136 2.355 10.43 10.43 0 0 0 .857 8.137 3.369 3.369 0 0 0 3.363 1.681 3.454 3.454 0 0 0 2.79-2.404c.774-2-.116-4.875-.403-6.305-.286-1.43-.924-3.128-2.47-3.464Zm-7.902-8.037c3.195-4.203 1.682-9.45-2.42-12.392h-.001a26.475 26.475 0 0 0-6.49-2.74c-5.245-.387-9.868 4.169-11.247 8.977-1.48 5.178 2.202 9.701 7.162 10.81v.002a12.983 12.983 0 0 0 12.996-4.657Zm24.445-14.594C69.98 54.058 61.91 57 60.48 64.885c-1.345 7.448 6.002 12.862 12.542 14.223v.001a14.008 14.008 0 0 0 16.308-9.096c3.212-9.818-11.92-14.997-12.19-15.047h.001Z"/><path d="M127.85 19.541c-1.11-7.178-8.642-12.508-15.333-9.886l-.001.001a8.906 8.906 0 0 0-1.142-1.682c-2.304-2.505-5.868-2.59-8.978-2.135-8.305 1.228-9.5 8.188-7.162 14.761-1.95 2.556-4.001 5.044-6.17 7.398-9.18-4.59-18.83-6.724-22.865-6.573h-.002a56.554 56.554 0 0 0-19.049 2.59 73.935 73.935 0 0 0-11.55-9.988c.655-4.288.1-8.524-3.7-11.517a11.517 11.517 0 0 0-7.84-2.49C18.223.355 13.523 5.08 13.22 10.916c-4.522 1.682-7.313 10.726-5.683 14.812a8.876 8.876 0 0 0 8.91 5.347 7.93 7.93 0 0 0 2.69-.707c1.548-.706 1.11-.958 2.758-.302 2.051.823 4.44 3.531 6.288 5.296v-.001a40.574 40.574 0 0 0-7.936 11.601 35.422 35.422 0 0 0 4.943 37.661l-8.087 7.868h.001a39.781 39.781 0 0 1-4.977 4.776 8.206 8.206 0 0 1-4.456 1.277 9.065 9.065 0 0 0-7.6 8.037A8.406 8.406 0 0 0 0 107.678c0 4.61 3.795 8.405 8.406 8.405.361 0 .722-.023 1.081-.07a9.237 9.237 0 0 0 4.035 6.995 8.108 8.108 0 0 0 8.945-1.26 11.574 11.574 0 0 0 4.119-8.407c.084-2.455-1.009-4.035.639-6.154a22.826 22.826 0 0 1 2.219-2.371 9.878 9.878 0 0 0 2.842 2.892c4.304 2.942 8.406 1.463 11.768-1.361a10.199 10.199 0 0 0 7.5 4.795 10.19 10.19 0 0 0 8.405-2.93 9.47 9.47 0 0 0 6.036 3.582c6.725 1.009 9.214-1.916 9.651-7.851.185-2.572-.1-2.018 3.766-3.179 1.682-.47 3.362-.639 4.91-1.143v.001a39.053 39.053 0 0 0 6.254-2.606 35.77 35.77 0 0 1 7.01 6.205c1.85 2.504 0 3.9.102 6.724.55 4.93 4.765 8.702 9.725 8.702a9.807 9.807 0 0 0 9.34-6.869c6.204-2.32 10.323-9.55 6.557-15.855-1.681-2.908-4.707-3.733-7.818-4.421-4.035-.908-7.599-3.632-10.995-6.271v-.001a39.053 39.053 0 0 0 2.724-4.137 38.389 38.389 0 0 0-.203-37.426c-.302-.555-.639-1.093-.992-1.682l7.398-10.089.001.002a11.105 11.105 0 0 0 10.698-2.11 11.11 11.11 0 0 0 3.727-10.248v.001Zm-101.2 5.75c-1.815-1.513-3.53-3.16-6.069-2.993-1.934.136-4.119 2.69-5.867 1.682-2.102-1.127-2.303-4.237-.874-6.422h-.001a2.951 2.951 0 0 1 3.363-1.547c2.102 2.471 3.7 5.28 7.112 3.8 3.968-1.682.656-4.371-3.362-5.8-2.388-.807-1.581-2.69-.707-4.17a5.69 5.69 0 0 1 3.868-3.077 4.7 4.7 0 0 1 4.69 2.168 8.627 8.627 0 0 1 1.143 6.07c-.64 2.455 0 3.127 1.783 4.49v-.001a66.76 66.76 0 0 1 8.692 7.162 45.23 45.23 0 0 0-7.062 4.237c-2.286-1.85-4.472-3.75-6.708-5.599Zm1.412 73.977c-2.858 2.471-6.724 5.464-6.994 8.961-.185 2.354.958 4.44.168 6.826-.488 1.48-1.816 3.648-3.532 3.749-2.505.151-4.405-2.622-4.59-4.522 1.077-.757 3.211-1.682 3.968-2.908h.002c.197-.366.3-.776.3-1.192a2.534 2.534 0 0 0-2.522-2.522c-.864 0-1.67.445-2.132 1.176-.858 2.085-6.96 3.833-8.12-.27-1.16-4.102 2.773-4.337 5.834-4.858v-.001a6.489 6.489 0 0 0 3.614-1.144 63.324 63.324 0 0 0 7.415-7.212l7.178-7.112c.672.589 1.345 1.16 2.068 1.682a22.579 22.579 0 0 0-2.655 9.264l-.002.083Zm82.735-3.867c1.682.74 3.682.757 5.447 1.412 4.792 1.783 3.817 6.624.723 9.13h.001a15.364 15.364 0 0 0-4.859-7.65c-2.42-2.152-6.002 1.413-3.564 3.565 2.993 2.656 6.39 9.7.387 11.6a5.301 5.301 0 0 1-3.597-.413 5.3 5.3 0 0 1-2.49-2.63l.808-3.059a8.514 8.514 0 0 0 .655-2.606c0-2.287-1.682-3.699-3.16-5.044a314.36 314.36 0 0 0-6.188-5.347h.001a41.62 41.62 0 0 0 6.237-5.346 45.596 45.596 0 0 0 9.6 6.305l-.001.083Zm-7.615-21.52a33.653 33.653 0 0 1-24.681 20.175c-3.11.656-5.917.504-7.919 3.362-.806 1.144.404 2.556.388 3.649l-.002.001a4.272 4.272 0 0 1-2.118 2.925c-3.362.37-5.335-.992-5.917-4.086a3.376 3.376 0 0 0-3.696-2.45 3.374 3.374 0 0 0-2.913 3.341c-1.025 2.673-7.213 4.237-7.128-.74.084-4.976-3.85-5.85-6.154-2.59-1.866 4.355-7.936 1.514-8.02-1.058-.084-2.572 1.816-4.036 3.044-5.885v.001a3.36 3.36 0 0 0-1.211-4.607c-13.737-8.406-16.813-25.858-8.844-39.459 8.406-14.324 24.731-18.73 40.57-18.192 2.085 0 21.302 4.287 28.582 12.744a32.328 32.328 0 0 1 6.019 32.87v-.001Zm7.852-47.226-8.255 11.298a42.858 42.858 0 0 0-7.852-6.456c2.438-2.757 4.758-5.582 6.944-8.558.6-1.04.6-2.322 0-3.362-1.295-2.673-2.606-6.086 1.329-6.96h-.001a3.096 3.096 0 0 1 3.259.95 3.1 3.1 0 0 1 .423 3.37 3.013 3.013 0 0 0 1.8 4.026 3.008 3.008 0 0 0 3.882-2.092 4.48 4.48 0 0 1 1.329-2.303 4.74 4.74 0 0 1 2.492-.709c2.526 0 4.63 2.018 4.737 4.541.74 4.036-2.994 6.087-6.44 4.809l.001.001a2.753 2.753 0 0 0-3.648 1.445Z"/></g></svg>
