<svg xmlns="http://www.w3.org/2000/svg" width="129" height="129" viewBox="0 0 129 129"><rect width="129" height="129" fill="none"/><path d="M85.2 105.3C87 105.1 88.6 104.9 90.3 104.8 92.4 104.8 94.6 104.8 96.7 105 98.3 105.1 99.8 105.2 101.4 105.3 102.8 105.3 104 106.4 104.2 107.8 104.2 108.6 104 109.4 103.4 110 102.9 110.6 102.1 110.9 101.3 110.9 100.1 110.9 98.8 110.8 97.6 110.7 91 110.1 84.3 110.7 78 112.6 76.4 113.1 74.7 113.5 73.1 113.6 71 113.8 68.9 113.6 66.9 113 65.1 112.2 63.4 111.1 61.9 109.8 60 108.1 58.2 106.3 56.3 104.7L56.3 104.7C51.8 100.8 46.2 98.2 40.2 97.4 36.2 96.9 32 96.8 28 97.3 20.1 98.1 12.4 100 5 102.8 4.3 103.1 3.5 103.2 2.8 103.1 1.7 102.9 0.8 102 0.5 100.9 0.3 99.8 0.8 98.7 1.7 98.1 2.5 97.6 3.4 97.2 4.3 97 9.8 95 15.4 93.5 21.1 92.5 22.4 92.3 23.6 92.1 24.9 91.9 25.1 91.9 25.2 91.9 25.2 91.7 25.3 91.1 25.5 90.5 25.8 89.9 27.4 86.6 29.2 83.4 31.1 80.2 36.2 71.3 41.9 62.7 48 54.4 50.6 50.8 53.5 47.4 56.7 44.3 58.9 42 61.5 40.3 64.5 39.1 66.8 38.2 69.3 37.9 71.8 38 73.9 38.2 75.9 38.4 77.9 38.8 80.6 39.3 83.3 38.5 85.3 36.8 87.8 34.8 90.1 32.5 92 30 94.8 26.3 97.3 22.4 99.4 18.2 99.6 17.8 99.9 17.4 100.1 17 100.3 16.7 100.2 16.6 100 16.4 98.7 15.5 97.5 14.5 96.3 13.6L96.3 13.6C95.7 13.1 95.2 12.5 95.1 11.7 94.8 10.7 95.2 9.6 96 9 96.9 8.3 98 8.2 99 8.6 99.3 8.8 99.7 9 100 9.3 101.5 10.5 103 11.7 104.6 12.9 104.7 13 105 13.1 105.2 13.1 105.8 13 106.4 13.1 107 13.3 107.3 13.4 107.4 13.3 107.6 13L107.6 13C109.2 10.3 111 7.7 112.9 5.2 113.6 4.3 114.4 3.6 115.3 3 116.7 2.2 118.4 2 120 2.7 120.4 2.8 120.8 3 121.2 3.3 123 4.3 124.8 5.5 126.4 6.7 127.5 7.4 128.2 8.5 128.4 9.7 128.7 10.9 128.4 12.2 127.6 13.2 126.9 14.3 126 15.3 125.1 16.2 123.1 18.3 121.2 20.6 119.5 23 119.4 23.2 119.3 23.3 119.5 23.5 119.6 23.7 119.7 23.8 119.8 24 120.1 24.8 120.6 25.4 121.3 25.8 123.1 27.2 124.9 28.6 126.6 29.9 127.3 30.4 127.7 31 127.9 31.7 128.2 32.8 127.8 33.9 127 34.6 126.1 35.3 125 35.4 124 34.9 123.5 34.7 123.1 34.4 122.7 34 121.8 33.3 120.9 32.6 120 31.9 119.8 31.8 119.7 31.7 119.6 32L119.6 32C117.7 35.6 115.5 38.9 112.8 42 111.4 43.9 109.8 45.7 108.4 47.6 108 48.1 107.7 48.6 107.4 49.2 107.2 49.6 107.2 50.2 107.4 50.6 107.8 51.4 108.2 52.1 108.7 52.8 109.7 54.1 110.5 55.5 111.3 56.9 113.4 60.9 113.5 65.7 111.5 69.7 110.2 72.3 108.6 74.8 106.7 77 103.3 81.3 99.8 85.5 96.4 89.9 92.6 94.7 88.9 99.6 85.6 104.8 85.5 104.9 85.4 105.1 85.2 105.3zM71.7 108.1L71.7 108.1C71.9 108.1 72.1 108.1 72.3 108.1 73.8 107.9 75.2 107.5 76.6 107.1 77.2 107.1 77.8 106.6 78 106 78.1 105.9 78.2 105.7 78.3 105.6 82.9 98.4 87.9 91.5 93.2 84.8 96.4 80.8 99.7 76.9 102.8 72.9L102.8 72.9C104.2 71.1 105.5 69.1 106.5 67.1 107.7 64.6 107.6 61.8 106.2 59.4 105.6 58.3 104.9 57.1 104.1 56 103.4 55.1 102.9 54.1 102.4 53.1 101.3 51 101.4 48.5 102.5 46.4 102.8 45.9 103.1 45.3 103.5 44.8 104.9 42.8 106.4 41 107.9 39.2L107.9 39.2C109.9 36.8 111.8 34.2 113.5 31.6 114 30.6 114.5 29.6 114.9 28.5 115 28.3 114.9 28 114.7 27.8 111.5 25.4 108.4 23 105.2 20.5 104.8 20.2 104.8 20.2 104.6 20.7L104.6 20.7C102.1 25.3 99.3 29.7 96.2 33.8 93.9 36.8 91.3 39.4 88.3 41.6 85.6 43.7 82.2 44.8 78.8 44.6 76.9 44.4 75 44 73.1 43.8 71.4 43.6 69.7 43.6 68 43.9 65.8 44.5 63.7 45.6 62 47.1 59.4 49.4 57 51.9 54.9 54.7 46.1 66.1 38.3 78.2 31.6 90.9 31.5 91 31.5 91.2 31.5 91.3L31.9 91.3C36.3 91.2 40.8 91.6 45.1 92.6 45.4 92.7 45.5 92.6 45.6 92.4 46.4 90.7 47.3 89.1 48.3 87.5 53.9 78.5 60.3 69.8 67.2 61.7 69.4 59.1 71.9 56.8 74.7 55 78 52.8 82 51.8 86 52.3 89.2 52.6 92.1 54.4 93.9 57.1 95.1 58.9 95.8 61 96.1 63.2 96.5 66.1 95.9 68.9 94.4 71.3 94.3 71.5 94.3 71.6 94.2 71.8 94.1 72.4 93.9 72.9 93.6 73.3 91.3 76.6 89.2 79.9 87.1 83.3 82.1 91.6 77.2 99.8 71.8 107.7 71.7 107.8 71.6 107.9 71.7 108.1zM90.5 65C90.5 64.6 90.5 64.1 90.4 63.6 90.3 62.2 89.7 60.8 88.7 59.6 87.3 58.1 85.2 57.4 83.1 57.8 81.2 58 79.3 58.7 77.7 59.8 75.3 61.4 73.1 63.4 71.2 65.7 67.1 70.5 63.3 75.5 59.7 80.6L59.7 80.6C56.5 84.9 53.6 89.4 51 94.2 50.8 94.5 50.8 94.6 51.2 94.7 53.6 95.8 55.9 97.2 58.1 98.8 58.4 99.1 58.5 99.1 58.7 98.7 63.3 90.3 67.9 82 72.9 73.8 74.4 71.3 75.8 68.7 77.5 66.3L77.5 66.3C77.9 65.6 78.4 65 79 64.6 79.7 63.9 80.7 63.7 81.6 63.8 82.6 64 83.4 64.5 83.9 65.4 84.3 66 84.6 66.8 84.8 67.5 85.1 68.3 85.3 69 85.7 69.7 85.9 70.1 86.4 70.4 86.9 70.3 87.7 70.2 88.4 69.8 88.9 69.2 90 68.1 90.6 66.6 90.5 65zM80.5 72.1C80.4 72.2 80.3 72.3 80.3 72.5 79.5 73.8 78.7 75.1 77.9 76.4 72.6 85 67.8 93.8 63 102.7 62.9 102.8 62.8 103 63 103.1 64 104 64.9 104.9 65.9 105.8 66.1 106 66.2 105.9 66.4 105.7 67.8 103.6 69.2 101.5 70.6 99.4 75.6 91.8 80.2 83.9 85 76.1 85.1 75.9 85.1 75.8 84.8 75.7L84.8 75.7C83.1 75.2 81.6 74 80.7 72.4 80.7 72.3 80.6 72.2 80.5 72.1zM118.1 8C117.8 8.1 117.6 8.3 117.5 8.5 115.6 10.9 113.9 13.4 112.3 16.1 112.2 16.3 112.3 16.4 112.4 16.5 113.3 17.3 114.2 18 115.1 18.8 115.4 19.1 115.5 19.1 115.7 18.8L115.7 18.8C117.3 16.5 119.1 14.3 121.1 12.3 121.5 11.9 121.8 11.4 122.2 11 122.3 10.9 122.4 10.8 122.2 10.6 120.9 9.9 119.7 8.9 118.4 8.2 118.3 8.1 118.2 8.1 118.1 8z"/><path d="M26.3 107.5C33.3 107.6 40.1 109.3 46.3 112.4 49.5 114 52.7 115.8 55.9 117.5L55.9 117.5C58.3 118.8 60.8 119.8 63.5 120.4 65.9 120.9 68.4 121.2 70.9 121.1 74.9 120.9 78.8 120.5 82.7 119.9 84.4 119.7 86.1 119.4 87.8 119.2L87.8 119.2C88.6 119.1 89.4 119.2 90 119.7 90.6 120.1 91.1 120.8 91.2 121.6 91.4 123 90.5 124.3 89.1 124.6 88 124.9 86.8 125.1 85.6 125.2 82.8 125.6 80 126 77.2 126.3L77.2 126.3C72.9 126.9 68.6 126.9 64.4 126.4 60.9 125.8 57.6 124.7 54.4 123.1 51.4 121.5 48.4 119.8 45.4 118.3 41.7 116.3 37.7 114.8 33.6 113.9 27.9 112.8 22 112.9 16.4 114.3 14.5 114.8 12.6 115.4 10.8 116.1 10.1 116.4 9.3 116.5 8.5 116.3 7.4 116 6.7 115.1 6.6 114 6.4 112.9 7 111.8 7.9 111.3 8.9 110.8 9.9 110.4 10.9 110.1 15.9 108.4 21.1 107.5 26.3 107.5z"/><path d="M122.6 89.2C122.6 90.2 122 91 121.2 91.4 119.8 92.1 118.5 92.6 117.1 93.1 114.4 94.1 111.6 95 108.9 95.9L108.9 95.9C107.8 96.4 106.6 96.2 105.7 95.5 105.1 94.9 104.7 94 104.8 93.2 104.9 92.3 105.4 91.5 106.1 91.1 106.6 90.8 107.1 90.6 107.6 90.4 111.3 89.1 114.9 87.9 118.5 86.5 119.9 85.9 121.5 86.3 122.2 87.6 122.5 88.1 122.6 88.7 122.6 89.2z"/><path d="M15 85.6C13.8 85.6 12.5 85.3 11.1 85.1 9.7 84.9 8.3 84.7 6.9 84.4L6.9 84.4C5.7 84.3 4.8 83.4 4.5 82.3 4.2 81.4 4.4 80.5 5.1 79.8 5.7 79.1 6.6 78.7 7.5 78.9 9 79 10.6 79.3 12.1 79.6 13.3 79.7 14.4 79.9 15.6 80.1 16.9 80.3 18 81.3 18.1 82.6 18.2 83.5 17.9 84.3 17.3 84.9 16.7 85.5 15.8 85.8 15 85.6z"/><path d="M20.7 65.9C20.7 64.9 21.3 64.1 22.1 63.6 23 63 24.2 63.1 25 63.7 25.8 64.3 26.3 65.2 26.4 66.2 26.6 67.9 26.7 69.5 26.8 71.2L26.8 71.2C26.9 72 26.7 72.9 26.2 73.5 25.6 74.4 24.5 74.8 23.5 74.5 22.5 74.4 21.7 73.6 21.4 72.6 21.2 71.8 21.1 70.9 21.1 70.1 20.9 68.8 20.9 67.6 20.7 65.9z"/><path d="M9.3 64.5C8.7 64.5 8 64.3 7.5 63.9 6.5 63.1 5.5 62.2 4.5 61.3 3.9 60.7 3.5 59.8 3.6 58.9 3.7 58 4.2 57.2 5 56.7 5.9 56.2 7.1 56.3 8 56.9 9.2 57.8 10.3 58.7 11.3 59.8 12.1 60.6 12.4 61.9 11.9 62.9 11.4 63.9 10.4 64.6 9.3 64.5z"/><path d="M106.2 102.2C106.2 101.4 106.5 100.5 107.2 100 107.8 99.4 108.7 99.2 109.5 99.3 110.8 99.6 112.1 100 113.3 100.6 114.6 101.2 115.3 102.7 114.8 104.1 114.3 105.4 112.8 106.2 111.4 105.8 110.2 105.5 109 105.1 107.9 104.5 106.9 104.2 106.3 103.3 106.2 102.2z"/></svg>
