<svg class="twit" xmlns="http://www.w3.org/2000/svg" width="128" height="128" viewBox="0 0 128 128"><rect width="128" height="128" fill="none"/><path d="M64 0C28.7 0 0 28.7 0 64 0 99.4 28.7 128 64 128 99.4 128 128 99.4 128 64 128 28.7 99.3 0 64 0zM96.2 51.1C96.3 51.8 96.3 52.5 96.3 53.2 96.3 74.5 80.1 99.1 50.4 99.1 41.3 99.1 32.8 96.4 25.7 91.8 26.9 92 28.2 92.1 29.5 92.1 37.1 92.1 44 89.5 49.6 85.2 42.5 85 36.5 80.4 34.5 73.9 35.5 74.1 36.5 74.2 37.5 74.2 39 74.2 40.4 74 41.8 73.7 34.4 72.2 28.8 65.7 28.8 57.9 28.8 57.8 28.8 57.7 28.8 57.7 31 58.9 33.5 59.6 36.1 59.7 31.8 56.8 29 51.8 29 46.2 29 43.3 29.8 40.5 31.1 38.1 39.1 47.9 51 54.3 64.4 55 64.1 53.8 64 52.6 64 51.3 64 42.4 71.2 35.2 80.1 35.2 84.7 35.2 88.9 37.1 91.9 40.3 95.6 39.6 99 38.2 102.1 36.4 100.9 40.1 98.4 43.3 95 45.3 98.3 44.9 101.4 44 104.3 42.7 102.1 46 99.4 48.8 96.2 51.1z"/></svg>
