<svg xmlns="http://www.w3.org/2000/svg" width="128" height="128" viewBox="0 0 128 128"><rect width="128" height="128" fill="none"/><path d="M109.2 8.4C100.5 3.6 88.1-0.6 74.3 0.9 64.2 2 52.5 7.1 40.9 11.1 29.9 14.9 19.3 21.3 13 27.2 8.3 31.7 3.1 39.3 1.2 45.5 -2.9 59.1 7.1 77.1 16.2 84.2 20.1 87.2 24.3 87.3 29.1 91.2 28.9 101.9 21.9 119.9 32.4 123.9 35.9 125.3 42.7 124.6 46.9 122.9 51.5 126.4 60.1 124.9 64.1 121.8 67.9 125.7 75.2 128.2 81.2 127.2 93.1 125.1 92.8 109.3 94.7 97.1 114.6 93.7 125.9 75.7 127.5 54.1 129.2 30.1 123.5 16.4 109.2 8.4M118.9 51.4C118.4 55.9 116.3 62.9 113.5 68.6 111.2 73.2 107.9 80.1 104.9 82 100.6 84.7 93.5 83.3 88.8 85.8 77.6 91.7 92 119.5 73.2 118 71.5 111.6 76.7 95.6 68.9 94.9 62.4 94.4 64.6 101.3 63.5 107.3 62.5 112.8 59.1 118.8 53.3 118.6 51.1 114.5 57.8 94.2 50.1 94.4 43.8 94.5 47.3 112.6 44.2 116.4 41.2 116.5 39.1 115.8 36.6 115.4 37.8 107.4 37.2 101.1 37.7 94.4 37.9 92.2 39.1 89.7 38.8 87.4 37.7 79.9 28.5 79.7 23.2 76.1 18.7 73.1 12.5 64.8 11.4 57.9 10 49.1 15.3 41.2 19.4 36.9 29.6 26.2 54.7 13.1 75.9 11.1 91.8 9.6 105.6 14.3 113 23.5 117.2 28.7 120.2 39.2 118.9 51.4"/><path d="M60.3 55.7C61.3 48.1 47.9 40 43.6 39 41.5 38.6 37.5 38.8 36.1 39 33.2 39.6 30.6 40.6 30.2 44.4 29.5 51 35.8 53.8 39.3 55.7 45.2 58.9 59 65.6 60.3 55.7"/><path d="M99 39.1C97.1 39.9 92.7 40.3 89.9 41.2 83.7 43.2 74.3 49.9 74.8 56.3 75.3 62.1 84.2 61.1 88.8 59.5 91.2 58.6 95.6 55.4 99 53 103.8 49.7 107.9 45.1 104.4 40.7 103 40.1 100.4 38.5 99 39.1"/><path d="M51.7 82C51.9 84.7 53.7 87.8 57.1 87.4 61.5 86.9 59.3 81.5 63.5 79.9 64.8 84 68.4 87.7 72.1 85.8 79 82.4 70.9 72.1 68.4 68.1 61.2 64.7 51.2 74.7 51.7 82"/></svg>
