<svg xmlns="http://www.w3.org/2000/svg" xml:space="preserve" style="fill-rule:evenodd;clip-rule:evenodd;stroke-linejoin:round;stroke-miterlimit:2" viewBox="0 0 505 431"><path d="M106.897 430.828V354.54h54.14v-24.608h-54.14v-51.884H53.578v-51.269H.258V100.658h75.878v103.563h30.761V100.658h54.14V76.049h-54.14V.172h76.698v53.319h53.319v47.167h31.172V53.491h53.319V.172h76.698v75.877h-54.14v24.609h54.14v103.563h30.761V100.658h75.878v126.121h-53.32v51.269h-53.319v51.884h-54.14v24.608h54.14v76.288h-76.698v-53.729h-53.319v-47.167h-31.172v47.167h-53.319v53.729h-76.698Zm22.558-22.558h31.582v-31.171h-31.582v31.171ZM22.817 204.221h30.761v-81.004H22.817v81.004ZM343.963 408.27h31.582v-31.171h-31.582v31.171ZM171.906 215.5v-53.524h53.729V215.5h-53.729Zm11.689 139.04h30.761v-47.167h76.288v47.167h30.761v-47.167h54.14V255.49h53.319v-28.711h-53.319V123.217h-54.14V76.049h-30.761v47.168h-76.288V76.049h-30.761v47.168h-54.14v103.562H76.136v28.711h53.319v51.883h54.14v47.167Zm-54.14-301.049h31.582V22.73h-31.582v30.761ZM279.365 215.5v-53.524h53.729V215.5h-53.729Zm172.057-11.279h30.761v-81.004h-30.761v81.004ZM343.963 53.491h31.582V22.73h-31.582v30.761Z" style="fill-rule:nonzero"/></svg>