<svg xmlns="http://www.w3.org/2000/svg" width="256" height="256" viewBox="0 0 256 256"><path d="M245.3 181.3L245.3 202.7 10.7 202.7 10.7 181.3 245.3 181.3z"/><path d="M202.7 53.3L202.7 117.3 224 117.3 224 53.3 245.3 53.3 245.3 138.7 224 138.7 224 160 202.7 160 202.7 138.7 181.3 138.7 181.3 53.3 202.7 53.3z"/><path d="M117.3 53.3L117.3 117.3 138.7 117.3 138.7 53.3 160 53.3 160 138.7 138.7 138.7 138.7 160 117.3 160 117.3 138.7 96 138.7 96 53.3 117.3 53.3z"/><path d="M10.7 53.3L32 53.3 32 117.3 53.3 117.3 53.3 53.3 74.7 53.3 74.7 138.7 53.3 138.7 53.3 160 32 160 32 138.7 10.7 138.7 10.7 53.3z"/></svg>
