<?xml version="1.0" encoding="UTF-8"?><svg clip-rule="evenodd" fill-rule="evenodd" stroke-linejoin="round" stroke-miterlimit="2" viewBox="0 0 77 74" xmlns="http://www.w3.org/2000/svg"><path d="m74.617 44.225c-4.022 9.737-12.688 16.821-23.031 18.826-2.902.612-5.522.471-7.389 3.138-.753 1.066.376 2.384.361 3.404-.223 1.157-.947 2.157-1.977 2.73-3.138.345-4.979-.926-5.522-3.813-.371-1.362-1.617-2.314-3.028-2.314-1.722 0-3.138 1.416-3.138 3.137v.009c-.957 2.494-6.73 3.953-6.652-.69.079-4.644-3.592-5.46-5.742-2.416-1.741 4.063-7.405 1.412-7.483-.989-.079-2.4 1.694-3.765 2.839-5.491.282-.481.431-1.028.431-1.586 0-1.116-.595-2.151-1.56-2.712-12.818-7.844-15.689-24.129-8.252-36.821 7.844-13.366 23.077-17.477 37.856-16.975 1.945 0 19.877 4.001 26.67 11.892 7.409 8.377 9.577 20.212 5.617 30.671zm-39.739 3.467c-.271-.075-.552-.113-.833-.113-1.41 0-2.654.95-3.026 2.309-.779 2.534-.49 5.278.8 7.594.627 1.111 1.872 1.733 3.137 1.568 1.227-.182 2.243-1.057 2.605-2.243.721-1.867-.11-4.55-.377-5.883-.267-1.334-.863-2.918-2.306-3.232zm-7.374-7.499c2.981-3.922 1.569-8.817-2.259-11.562-1.895-1.119-3.932-1.979-6.056-2.558-4.894-.36-9.209 3.891-10.495 8.378-1.381 4.832 2.055 9.052 6.683 10.088 4.534 1.002 9.261-.692 12.127-4.346zm22.811-13.618c-6.683-.847-14.213 1.899-15.547 9.257-1.255 6.95 5.601 12.001 11.704 13.272 6.461 1.451 13.057-2.227 15.217-8.487 2.997-9.163-11.123-13.995-11.374-14.042zm-26.246 20.364c-1.814 1.7-2.852 4.072-2.871 6.558.007 1.716 1.421 3.124 3.137 3.124.829 0 1.625-.328 2.212-.912 1.285-1.166 2.141-2.73 2.432-4.44 0-.235.502-3.499-.486-4.409-1.237-1.187-3.23-1.151-4.424.079z"/></svg>
