<svg xmlns="http://www.w3.org/2000/svg" width="64" height="64" viewBox="0 0 64 64"><path d="M32 0C46.8 0 56.5 7.7 56.5 24.8L56.5 34C56.5 53.6 45.2 51.5 43.4 57.4 41.5 63.3 40.3 64 32.1 64 23.6 64 22.4 63.3 20.5 57.4 18.5 51.1 7.5 53.6 7.5 34L7.5 24.8C7.5 7.7 17.2 0 32 0zM32 47.3L31.6 47.4C29.7 48.2 29 52 28.2 53.8 27.8 54.9 30 56.1 32.1 56.1 34.3 56.1 36.3 54.9 35.8 53.7 35 51.4 34.4 48.9 32.5 47.3L32 47.3zM21.2 33.1L19.9 33.1C16.5 33.7 14.3 36.4 14.2 39.8 14.2 43.5 17.1 46.4 21.3 46.4 25.3 46.4 28.2 43.5 28.2 39.8 27.8 35.9 26.3 34.1 22.5 33.1L21.2 33.1zM41.5 33.1C37.6 34.4 36.2 35.3 35.8 39.8 35.8 43.5 38.5 46.4 42.8 46.4 47 46.4 49.8 43.5 49.8 39.8 49.3 34.8 46.2 32.9 41.5 33.1z"/></svg>
