<svg xmlns="http://www.w3.org/2000/svg" viewBox="0 0 512 512"><path d="M257.5 512Q198.5 512 160.5 490.7 122.6 469.3 104.5 424.7 86.3 380.1 86.3 310.6L116.1 321.1Q116.1 405.5 150.4 445.3 184.8 485.2 257.5 485.2 326 485.2 364.6 452 403.3 418.9 403.3 362.1 403.3 321.3 379.6 303.3 356 285.3 321.1 285.3 278.7 285.3 253.6 288.5 228.5 291.8 217.5 299.5 206.5 307.2 206.5 320.1 206.5 332.8 218.2 338.7 229.9 344.5 254.5 344.5 279.4 344.5 296.2 348 313.1 351.6 326.8 361.9 340.6 372.3 356.2 392.5L334 409.4Q322.8 393.5 313.7 385.8 304.5 378.1 291 375.2 277.5 372.3 253.3 371.3 214.8 369.4 196 356.9 177.3 344.5 177.3 320.4 177.3 299.2 188.5 286.6 199.7 274 219.6 268.1 239.4 262.1 265.5 260.3 291.6 258.4 321.1 258.4 352.1 258.4 377.3 269.5 402.5 280.6 417.5 303.5 432.5 326.5 432.5 362.1 432.5 407.9 411.4 441.7 390.3 475.4 351.2 493.7 312.1 512 257.5 512zM295.5 435.9L267.9 432Q270.1 408.6 283.2 389.7 296.2 370.8 316.2 361.1L327.4 386.7Q313.8 393.5 305.7 407.4 297.7 421.3 295.5 435.9zM135.3 347.7Q112.9 347.7 101.7 338.7 90.5 329.6 86.6 315.9 82.7 302.1 81.7 287.9L79.7 256.2Q78 226.3 94.6 210.8 111.2 195.3 135.1 195.3 147.7 195.3 159.2 200.2 170.7 205 177.7 215.5L158.5 215.5Q161.4 191.6 175.4 179.1 189.4 166.5 210.4 166.5 236.3 166.5 249.8 181.6 263.3 196.8 266 228.7L270.6 283.3 242.6 285.7 238 229.2Q236.5 211.1 229.5 202.2 222.6 193.3 210.2 193.3 196.8 193.3 190.3 204.8 183.8 216.3 185.5 236L189.4 280.4Q190.4 291.4 193.5 297.4 196.5 303.5 203.3 307.2L197 336Q176.3 331.1 170.3 318.9 164.3 306.7 162.6 287.5L158.5 239.9Q157.7 230.9 151.4 226.5 145.1 222.1 135.3 222.1 121.7 222.1 114.2 231 106.8 239.9 107.8 256.5L110 288.2Q111.2 305.3 118.2 313.1 125.3 320.9 135.3 320.9 149.5 320.9 156 314 162.6 307.2 166 294.3L193.3 302.1Q187.2 324.8 173.3 336.2 159.5 347.7 135.3 347.7zM396.2 308.4L370.8 288.9 400.8 90.2Q404.5 65.8 398.6 53 392.8 40.2 377.2 40.2 366.4 40.2 360.6 48 354.7 55.8 350.8 74.9L321.3 218 287 218 247.7 51.2Q242.1 26.8 222.1 26.8 210.9 26.8 203.6 34.9 196.3 42.9 196.3 53.6 196.3 59.7 197.9 69.9 199.4 80 202.4 92.2L222.1 176.3 194.6 182.6 175.1 98Q169.7 75.3 168.4 67.2 167 59 167 53.6 167 30.7 182.5 15.4 198 0 221.6 0 242.3 0 256.1 11.3 269.9 22.7 274.8 43.9L303.5 166 323.3 69.2Q328.9 42.4 342.3 27.9 355.7 13.4 377.7 13.4 407.9 13.4 420.9 35.7 434 58 428.6 93.1z"/></svg>
