<svg xmlns="http://www.w3.org/2000/svg" width="128" height="128" viewBox="0 0 128 128"><path d="M64 0.7C149.9 0.7 126 98.5 120.8 114.2 120 116.6 118.4 119.3 116 122.3 111.5 128 103.2 129 97.5 124.5 92.6 120.6 91.1 113.8 93.9 108.2 102.8 90.3 117.8 36.5 64 36.5L64 24.6C67.3 24.6 70 21.9 70 18.6 70 15.3 67.3 12.6 64 12.6L64 0.7zM111.8 96.3C108.5 96.3 105.8 99 105.8 102.3 105.8 105.6 108.5 108.2 111.8 108.2 115.1 108.2 117.8 105.6 117.8 102.3 117.8 99 115.1 96.3 111.8 96.3zM114.8 66.4C111.5 66.4 108.8 69.1 108.8 72.4 108.8 75.7 111.5 78.4 114.8 78.4 118.1 78.4 120.8 75.7 120.8 72.4 120.8 69.1 118.1 66.4 114.8 66.4zM108.8 39.5C105.5 39.5 102.8 42.2 102.8 45.5 102.8 48.8 105.5 51.5 108.8 51.5 112.1 51.5 114.8 48.8 114.8 45.5 114.8 42.2 112.1 39.5 108.8 39.5zM90.9 18.6C87.6 18.6 84.9 21.3 84.9 24.6 84.9 27.9 87.6 30.6 90.9 30.6 94.2 30.6 96.9 27.9 96.9 24.6 96.9 21.3 94.2 18.6 90.9 18.6zM37.1 18.6C33.8 18.6 31.1 21.3 31.1 24.6 31.1 27.9 33.8 30.6 37.1 30.6 40.4 30.6 43.1 27.9 43.1 24.6 43.1 21.3 40.4 18.6 37.1 18.6zM19.2 39.5C15.9 39.5 13.2 42.2 13.2 45.5 13.2 48.8 15.9 51.5 19.2 51.5 22.5 51.5 25.2 48.8 25.2 45.5 25.2 42.2 22.5 39.5 19.2 39.5zM13.2 66.4C9.9 66.4 7.2 69.1 7.2 72.4 7.2 75.7 9.9 78.4 13.2 78.4 16.5 78.4 19.2 75.7 19.2 72.4 19.2 69.1 16.5 66.4 13.2 66.4zM16.2 96.3C12.9 96.3 10.2 99 10.2 102.3 10.2 105.6 12.9 108.2 16.2 108.2 19.5 108.2 22.2 105.6 22.2 102.3 22.2 99 19.5 96.3 16.2 96.3zM64 0.7L64 12.6C60.7 12.6 58 15.3 58 18.6 58 21.9 60.7 24.6 64 24.6L64 36.5C10.2 36.5 25.2 90.3 34.1 108.2 36.9 113.8 35.4 120.6 30.5 124.5 24.8 129 16.5 128 12 122.3 9.6 119.3 8 116.6 7.2 114.2 2 98.5-21.9 0.7 64 0.7z"/></svg>
