<svg xmlns="http://www.w3.org/2000/svg" width="128" height="128" viewBox="0 0 128 128"><path d="M109.6 7.9C100.9 3.1 88.3-1.2 74.4 0.3 64.2 1.4 52.4 6.6 40.7 10.6 29.6 14.5 18.9 20.9 12.5 26.9 7.7 31.4 2.5 39 0.6 45.3 -3.6 59 6.6 77.2 15.8 84.4 19.7 87.5 23.9 87.5 28.8 91.4 28.6 102.2 21.6 120.4 32.1 124.5 35.7 125.9 42.5 125.1 46.7 123.4 51.4 127 60.1 125.4 64.1 122.3 68 126.3 75.3 128.8 81.4 127.8 93.4 125.6 93 109.7 95 97.4 115.1 93.9 126.5 75.8 128.1 54 129.8 29.7 124.1 15.9 109.6 7.9zM119.4 51.3C118.9 55.9 116.8 62.9 114 68.6 111.6 73.3 108.3 80.3 105.3 82.2 100.9 84.9 93.7 83.5 89 86 77.8 91.9 92.3 120 73.3 118.5 71.6 112 76.8 95.9 68.9 95.2 62.3 94.7 64.6 101.6 63.5 107.7 62.5 113.2 59 119.3 53.2 119.1 51 115 57.7 94.5 49.9 94.7 43.6 94.8 47.1 113 44 116.9 41 117 38.8 116.3 36.4 115.8 37.5 107.8 36.9 101.5 37.5 94.7 37.7 92.4 38.9 89.9 38.6 87.6 37.5 80.1 28.2 79.8 22.8 76.2 18.3 73.2 12 64.8 10.9 57.8 9.5 49 14.9 41 19 36.6 29.2 25.9 54.6 12.6 76 10.6 92 9.1 106 13.8 113.4 23.1 117.6 28.4 120.7 39 119.4 51.3z"/><path d="M60.3 55.6C61.3 47.9 47.7 39.8 43.4 38.8 41.3 38.3 37.2 38.5 35.8 38.8 32.9 39.4 30.3 40.3 29.9 44.2 29.1 50.9 35.6 53.7 39.1 55.6 45 58.9 58.9 65.6 60.3 55.6z"/><path d="M99.8 38.8C97.9 39.7 93.4 40.1 90.6 41 84.4 43 74.9 49.8 75.4 56.2 75.9 62.1 84.9 61.1 89.5 59.4 91.9 58.6 96.4 55.3 99.8 52.9 104.7 49.5 108.8 44.9 105.3 40.4 103.9 39.9 101.3 38.2 99.8 38.8z"/><path d="M51.6 82.2C51.8 84.9 53.6 88 57 87.6 61.5 87.1 59.2 81.6 63.5 80 64.8 84.2 68.4 87.9 72.2 86 79.1 82.5 71 72.2 68.4 68.1 61.1 64.7 51 74.8 51.6 82.2z"/></svg>