<svg xmlns="http://www.w3.org/2000/svg" width="90" height="90" viewBox="0 0 90 90"><path d="M24.5 9C25.7 10.8 25.3 13.1 23.6 14.3 21.9 15.5 19.5 15.1 18.3 13.4 17.1 11.7 17.5 9.3 19.2 8.1 20.9 6.9 23.3 7.3 24.5 9z"/><path d="M71.8 76.5C73 78.3 72.6 80.6 70.9 81.8 69.1 83 66.8 82.6 65.6 80.9 64.4 79.2 64.8 76.8 66.5 75.6 68.2 74.4 70.6 74.8 71.8 76.5z"/><path d="M9.2 24.2C11.1 25 11.9 27.3 11.1 29.2 10.2 31.1 7.9 31.9 6 31 4.1 30.2 3.3 27.9 4.2 26 5.1 24.1 7.3 23.3 9.2 24.2z"/><path d="M84 59C85.9 59.8 86.7 62.1 85.9 64 85 65.9 82.7 66.7 80.8 65.8 78.9 65 78.1 62.7 79 60.8 79.9 58.9 82.1 58.1 84 59z"/><path d="M7.7 48.2C7.9 50.3 6.3 52.1 4.2 52.3 2.1 52.5 0.3 51 0.1 48.9 -0.1 46.8 1.5 44.9 3.6 44.8 5.7 44.6 7.5 46.1 7.7 48.2z"/><path d="M89.9 41.1C90.1 43.2 88.5 45 86.4 45.2 84.3 45.4 82.5 43.9 82.3 41.8 82.1 39.7 83.7 37.8 85.8 37.7 87.9 37.5 89.7 39 89.9 41.1z"/><path d="M14.3 66.5C15.5 68.2 15.1 70.6 13.4 71.8 11.7 73 9.3 72.6 8.1 70.8 6.9 69.1 7.3 66.8 9 65.6 10.8 64.3 13.1 64.8 14.3 66.5z"/><path d="M81 24.4C82.7 23.2 83.1 20.8 81.9 19.1L81.9 19.1C80.7 17.4 78.3 17 76.6 18.2L76.6 18.2C74.9 19.4 74.5 21.8 75.7 23.5 76.9 25.2 79.2 25.6 81 24.4z"/><path d="M29.2 78.8L29.2 78.8C27.3 77.9 25 78.7 24.1 80.6 23.2 82.5 24 84.8 25.9 85.7 27.8 86.6 30.1 85.8 31 83.9 31.9 82 31.1 79.7 29.2 78.8z"/><path d="M60.8 11C62.7 11.9 65 11.1 65.9 9.2 66.8 7.3 66 5 64.1 4.1 62.1 3.2 59.9 4.1 59 6L59 6C58.1 7.9 58.9 10.2 60.8 11z"/><path d="M48.3 82.2L48.3 82.2C46.2 82.4 44.6 84.2 44.8 86.3 45 88.4 46.8 90 48.9 89.8 51 89.6 52.6 87.8 52.4 85.7 52.2 83.6 50.4 82 48.3 82.2z"/><path d="M45.2 3.6C45.4 5.7 43.8 7.5 41.7 7.7 39.6 7.9 37.8 6.4 37.6 4.3 37.4 2.2 39 0.3 41.1 0.2 43.2 0 45 1.5 45.2 3.6z"/><path d="M21.1 20.9C22.4 22 22.6 23.9 21.5 25.2 20.4 26.5 18.4 26.7 17.1 25.6 15.8 24.5 15.6 22.6 16.7 21.2 17.8 19.9 19.8 19.8 21.1 20.9z"/><path d="M72.9 64.4C74.2 65.5 74.4 67.4 73.3 68.8 72.2 70.1 70.2 70.2 68.9 69.1 67.6 68 67.4 66.1 68.5 64.8 69.6 63.5 71.6 63.3 72.9 64.4z"/><path d="M12.3 36.1C13.9 36.3 15.1 38 14.8 39.6 14.5 41.3 12.9 42.5 11.2 42.2 9.5 41.9 8.4 40.3 8.7 38.6 9 36.9 10.6 35.8 12.3 36.1z"/><path d="M78.8 47.8C80.5 48.1 81.7 49.7 81.4 51.4 81.1 53.1 79.5 54.2 77.8 53.9 76.1 53.6 75 52 75.2 50.3 75.5 48.7 77.2 47.5 78.8 47.8z"/><path d="M16.1 55.5C16.7 57.1 15.9 58.9 14.3 59.5 12.6 60 10.9 59.2 10.3 57.6 9.7 56 10.5 54.2 12.1 53.6 13.7 53 15.5 53.9 16.1 55.5z"/><path d="M77.9 36.3L77.9 36.3C79.5 35.7 80.4 33.9 79.8 32.3 79.2 30.7 77.4 29.8 75.8 30.4 74.2 31 73.3 32.8 73.9 34.4 74.4 36.1 76.2 36.9 77.9 36.3z"/><path d="M25.3 68.5C24 67.4 22 67.6 20.9 68.9L20.9 68.9C19.8 70.2 20 72.2 21.3 73.3 22.6 74.4 24.6 74.2 25.7 72.9 26.8 71.6 26.6 69.6 25.3 68.5z"/><path d="M64.7 21.4C66 22.5 68 22.3 69.1 21 70.2 19.7 70 17.7 68.7 16.6L68.7 16.6C67.4 15.5 65.4 15.7 64.3 17 63.2 18.3 63.4 20.3 64.7 21.4z"/><path d="M39.7 75.3C41.4 75.6 42.5 77.2 42.2 78.9 41.9 80.6 40.3 81.7 38.6 81.4 36.9 81.1 35.8 79.5 36.1 77.8 36.4 76.1 38 75 39.7 75.3z"/><path d="M51.4 8.6C53.1 8.9 54.2 10.5 53.9 12.2 53.6 13.9 52 15 50.3 14.7 48.6 14.4 47.5 12.8 47.8 11.1 48.1 9.4 49.7 8.3 51.4 8.6z"/><path d="M55.5 73.8C53.9 74.4 53 76.2 53.6 77.8 54.2 79.4 56 80.3 57.6 79.7L57.6 79.7C59.2 79.1 60.1 77.3 59.5 75.7 58.9 74 57.1 73.2 55.5 73.8z"/><path d="M36.3 12.1C36.9 13.7 36.1 15.5 34.4 16.1 32.8 16.7 31.1 15.8 30.5 14.2 29.9 12.6 30.7 10.8 32.3 10.2 33.9 9.7 35.7 10.5 36.3 12.1z"/><path d="M31.2 20.8C32 21.9 31.8 23.6 30.6 24.4 29.4 25.2 27.8 24.9 27 23.7 26.1 22.6 26.4 20.9 27.6 20.1 28.8 19.3 30.4 19.6 31.2 20.8z"/><path d="M63.1 66.2C63.9 67.4 63.6 69 62.4 69.9 61.3 70.7 59.6 70.4 58.8 69.2 58 68.1 58.3 66.4 59.4 65.6 60.6 64.8 62.2 65.1 63.1 66.2z"/><path d="M21 30.9C22.3 31.5 22.8 33 22.2 34.3 21.6 35.6 20.1 36.2 18.8 35.6 17.5 35 16.9 33.4 17.5 32.1 18.1 30.8 19.7 30.3 21 30.9z"/><path d="M71.3 54.4C72.6 55 73.1 56.5 72.5 57.8 71.9 59.1 70.4 59.7 69.1 59.1 67.8 58.5 67.2 57 67.8 55.6 68.4 54.3 70 53.8 71.3 54.4z"/><path d="M20 47.2C20.1 48.6 19.1 49.9 17.6 50 16.2 50.2 14.9 49.1 14.8 47.7 14.7 46.2 15.7 45 17.2 44.9 18.6 44.7 19.9 45.8 20 47.2z"/><path d="M75.2 42.3C75.3 43.7 74.3 45 72.8 45.1 71.4 45.3 70.1 44.2 70 42.8 69.9 41.3 70.9 40.1 72.4 40 73.8 39.8 75.1 40.9 75.2 42.3z"/><path d="M24.4 59.4C25.2 60.5 24.9 62.2 23.8 63 22.6 63.8 21 63.5 20.1 62.3 19.3 61.2 19.6 59.5 20.8 58.7 22 57.9 23.6 58.2 24.4 59.4z"/><path d="M69.8 27.6L69.8 27.6C69 26.4 67.4 26.2 66.2 27L66.2 27C65 27.8 64.8 29.4 65.6 30.6 66.4 31.8 68 32 69.2 31.2 70.4 30.3 70.6 28.7 69.8 27.6z"/><path d="M34.4 67.8C35.7 68.4 36.3 69.9 35.7 71.2 35.1 72.5 33.5 73.1 32.2 72.5 30.9 71.9 30.4 70.3 31 69 31.6 67.7 33.1 67.2 34.4 67.8z"/><path d="M57.8 17.5C59.1 18.1 59.7 19.7 59 21 58.4 22.3 56.9 22.8 55.6 22.2 54.3 21.6 53.7 20.1 54.3 18.8 54.9 17.5 56.5 16.9 57.8 17.5z"/><path d="M47.2 70C45.8 70.1 44.7 71.4 44.9 72.8 45 74.2 46.3 75.3 47.7 75.1 49.1 75 50.2 73.7 50 72.3 49.9 70.9 48.6 69.9 47.2 70L47.2 70z"/><path d="M42.4 14.8C41 14.9 39.9 16.2 40.1 17.6L40.1 17.6C40.2 19 41.5 20.1 42.9 19.9 44.3 19.8 45.4 18.5 45.2 17.1 45 15.7 43.8 14.6 42.4 14.8z"/><path d="M29.5 29.3C30.3 30 30.4 31.3 29.7 32.1 29 33 27.7 33.1 26.9 32.4 26 31.7 25.9 30.4 26.6 29.6 27.3 28.7 28.6 28.6 29.5 29.3z"/><path d="M63.1 57.5C63.9 58.3 64 59.5 63.3 60.4 62.6 61.2 61.3 61.3 60.5 60.6 59.6 59.9 59.5 58.6 60.2 57.8 60.9 56.9 62.2 56.8 63.1 57.5z"/><path d="M23.7 39.2C24.8 39.4 25.5 40.4 25.3 41.5 25.1 42.6 24.1 43.3 23 43.1 21.9 42.9 21.2 41.9 21.4 40.8 21.6 39.7 22.6 39 23.7 39.2z"/><path d="M67 46.9C68.1 47 68.8 48.1 68.6 49.2 68.4 50.3 67.4 51 66.3 50.8 65.2 50.6 64.5 49.6 64.7 48.5 64.9 47.4 65.9 46.7 67 46.9z"/><path d="M26.3 51.8C26.6 52.8 26.1 53.9 25.1 54.3 24 54.7 22.9 54.2 22.5 53.1 22.1 52.1 22.7 50.9 23.7 50.6 24.7 50.2 25.9 50.7 26.3 51.8z"/><path d="M67.5 36.8C67.8 37.8 67.3 39 66.3 39.3 65.2 39.7 64.1 39.2 63.7 38.1 63.3 37.1 63.9 36 64.9 35.6 65.9 35.2 67.1 35.7 67.5 36.8z"/><path d="M32.2 60.3C33.1 61 33.2 62.3 32.5 63.1 31.8 64 30.5 64.1 29.6 63.4 28.8 62.7 28.7 61.4 29.4 60.5 30.1 59.7 31.4 59.6 32.2 60.3z"/><path d="M60.7 29.4C61.4 28.5 61.3 27.3 60.4 26.5L60.4 26.5C59.5 25.8 58.3 25.9 57.5 26.8 56.8 27.7 56.9 28.9 57.8 29.7 58.7 30.4 60 30.3 60.7 29.4z"/><path d="M41.6 64.6C42.7 64.8 43.4 65.9 43.2 66.9 43 68 42 68.8 40.9 68.6 39.8 68.4 39.1 67.3 39.3 66.3 39.5 65.2 40.5 64.4 41.6 64.6z"/><path d="M49.1 21.4C50.2 21.6 50.9 22.6 50.8 23.7 50.6 24.8 49.5 25.5 48.4 25.4 47.3 25.2 46.6 24.1 46.8 23 47 22 48 21.2 49.1 21.4z"/><path d="M54.4 65C54.8 66 54.2 67.1 53.2 67.5 52.2 67.9 51 67.4 50.6 66.3 50.3 65.3 50.8 64.1 51.8 63.8 52.9 63.4 54 63.9 54.4 65z"/><path d="M39.4 23.7C39.7 24.7 39.2 25.8 38.2 26.2 37.1 26.6 36 26.1 35.6 25 35.2 24 35.8 22.8 36.8 22.5 37.8 22.1 39 22.6 39.4 23.7z"/><path d="M36.6 30.1C37.1 30.8 36.9 31.8 36.2 32.3 35.5 32.9 34.5 32.7 34 32 33.4 31.2 33.6 30.2 34.3 29.7 35.1 29.2 36.1 29.4 36.6 30.1z"/><path d="M56 58C56.5 58.7 56.3 59.7 55.6 60.2 54.9 60.7 53.9 60.5 53.4 59.8 52.9 59.1 53 58.1 53.8 57.6 54.5 57.1 55.5 57.2 56 58z"/><path d="M30.3 36.4C31.1 36.8 31.5 37.7 31.1 38.5 30.7 39.3 29.8 39.7 29 39.3 28.2 38.9 27.8 38 28.2 37.2 28.6 36.4 29.5 36 30.3 36.4z"/><path d="M61.1 50.7C61.9 51.1 62.2 52 61.8 52.8 61.5 53.6 60.5 54 59.7 53.6 58.9 53.2 58.6 52.3 58.9 51.5 59.3 50.7 60.3 50.3 61.1 50.7z"/><path d="M29.7 46.3C29.8 47.2 29.1 48 28.2 48 27.4 48.1 26.6 47.5 26.5 46.6 26.4 45.7 27.1 44.9 28 44.8 28.8 44.8 29.6 45.4 29.7 46.3z"/><path d="M63.5 43.4C63.6 44.3 62.9 45.1 62 45.1 61.2 45.2 60.4 44.6 60.3 43.7 60.2 42.8 60.9 42 61.8 41.9 62.6 41.9 63.4 42.5 63.5 43.4z"/><path d="M32.4 53.8C32.9 54.6 32.8 55.6 32 56.1 31.3 56.6 30.3 56.4 29.8 55.7 29.3 54.9 29.5 53.9 30.2 53.4 30.9 52.9 31.9 53.1 32.4 53.8z"/><path d="M59.8 36.5C60.5 36 60.7 35 60.2 34.3 59.7 33.6 58.7 33.4 58 33.9L58 33.9C57.3 34.4 57.1 35.4 57.6 36.1 58.1 36.8 59.1 37 59.8 36.5z"/><path d="M38.5 58.9C39.3 59.3 39.6 60.3 39.3 61.1 38.9 61.9 37.9 62.2 37.1 61.8 36.3 61.5 36 60.5 36.4 59.7 36.7 58.9 37.7 58.6 38.5 58.9z"/><path d="M52.9 28.2C53.7 28.5 54 29.5 53.7 30.3 53.3 31.1 52.3 31.4 51.5 31.1 50.7 30.7 50.4 29.7 50.8 28.9 51.1 28.1 52.1 27.8 52.9 28.2z"/><path d="M48.1 61.7C48.2 62.6 47.5 63.4 46.6 63.4 45.8 63.5 45 62.9 44.9 62 44.8 61.1 45.5 60.3 46.4 60.2 47.2 60.2 48 60.8 48.1 61.7z"/><path d="M45.1 27.9C45.2 28.8 44.5 29.6 43.6 29.6 42.8 29.7 42 29.1 41.9 28.2 41.8 27.3 42.5 26.5 43.4 26.5 44.2 26.4 45 27 45.1 27.9z"/></svg>
