<svg xmlns="http://www.w3.org/2000/svg" width="128" height="128" viewBox="0 0 128 128"><path d="M64 5.3C90.9 5.3 108.5 19.4 108.5 50.8L108.5 67.6C108.5 103.5 88 99.7 84.6 110.6 81.3 121.4 79.1 122.7 64.2 122.7 48.7 122.7 46.6 121.4 43.2 110.6 39.4 99 19.5 103.5 19.5 67.6L19.5 50.8C19.5 19.4 37.1 5.3 64 5.3zM63.7 92L63.4 92.1C60.1 93.7 58.4 100.9 57.1 103.9 56.3 106.1 60.4 108.2 64.2 108.2 68.3 108.2 71.8 106.1 70.9 103.7 69.5 99.7 68.3 94.9 64.9 92.1 64.3 92.1 64.7 92.1 63.7 92zM45.5 65.9C37.8 66 31.8 69.9 31.6 78.3 31.6 85.1 37 90.4 44.6 90.4 51.9 90.4 57.1 85.1 57.1 78.3 56.8 71.1 52.7 66.8 45.5 65.9zM82.6 65.9C75.6 67 71.2 70.9 71.1 78.3 71.1 85.1 76.1 90.4 83.7 90.4 91.4 90.4 96.5 85.1 96.5 78.3 96.1 70.2 90.5 65.8 82.6 65.9z"/></svg>
