<?xml version="1.0" encoding="UTF-8" standalone="no"?>
<!DOCTYPE svg PUBLIC "-//W3C//DTD SVG 1.1//EN" "http://www.w3.org/Graphics/SVG/1.1/DTD/svg11.dtd">
<svg width="100%" height="100%" viewBox="0 0 256 256" version="1.1" xmlns="http://www.w3.org/2000/svg" xmlns:xlink="http://www.w3.org/1999/xlink" xml:space="preserve" xmlns:serif="http://www.serif.com/" style="fill-rule:evenodd;clip-rule:evenodd;stroke-linejoin:round;stroke-miterlimit:2;">
    <g transform="matrix(0.870232,0,0,0.870232,-111.82,112.508)">
        <path d="M179.194,38.285C169.256,38.285 161.475,34.934 155.85,28.231C150.225,21.528 147.413,12.926 147.413,2.426C147.413,-10.605 150.694,-23.449 157.256,-36.105C163.819,-48.761 172.866,-60.621 184.397,-71.683C195.928,-82.746 209.311,-92.519 224.545,-101.004C239.78,-109.488 256.116,-116.144 273.553,-120.972C290.991,-125.801 308.756,-128.215 326.85,-128.215C360.413,-128.215 377.194,-117.058 377.194,-94.746C377.194,-87.808 375.483,-81.879 372.061,-76.957C368.639,-72.035 364.631,-68.918 360.038,-67.605C357.6,-69.949 354.483,-71.754 350.686,-73.019C346.889,-74.285 343.35,-74.918 340.069,-74.918C337.444,-74.918 333.952,-73.769 329.592,-71.472C325.233,-69.176 321.131,-67.511 317.288,-66.48C310.444,-64.793 304.28,-63.785 298.795,-63.457C293.311,-63.129 288.295,-62.636 283.749,-61.98C279.202,-61.324 274.819,-59.59 270.6,-56.777C265.631,-53.496 261.858,-50.168 259.28,-46.793C256.702,-43.418 254.194,-39.972 251.756,-36.457C249.319,-32.941 245.756,-29.308 241.069,-25.558C237.975,-23.121 234.413,-20.965 230.381,-19.09C226.35,-17.215 222.483,-15.363 218.78,-13.535C215.077,-11.707 212.194,-9.715 210.131,-7.558C206.381,-3.621 203.616,0.457 201.834,4.676C200.053,8.895 198.717,12.996 197.827,16.981C196.936,20.965 195.952,24.574 194.874,27.809C193.795,31.043 192.084,33.598 189.741,35.473C187.397,37.348 183.881,38.285 179.194,38.285ZM277.772,115.629C269.522,108.973 260.03,100.981 249.295,91.653C238.561,82.324 227.475,72.387 216.038,61.84C204.6,51.293 193.538,40.817 182.85,30.41L190.725,22.395C200.194,31.77 210.131,41.285 220.538,50.942C230.944,60.598 241.045,69.739 250.842,78.364C260.639,86.989 269.334,94.535 276.928,101.004L277.772,115.629ZM292.256,164.285C286.538,164.285 282.084,162.364 278.897,158.52C275.709,154.676 273.506,147.973 272.288,138.41C271.069,128.848 270.459,115.582 270.459,98.614C270.459,90.551 269.991,84.246 269.053,79.699C268.116,75.153 266.569,71.942 264.413,70.067L197.194,10.02L203.1,2.004L273.694,65.426C275.475,67.02 276.928,69.317 278.053,72.317C279.178,75.317 279.999,79.114 280.514,83.707C281.03,88.301 281.288,93.832 281.288,100.301C281.288,115.02 281.545,126.153 282.061,133.699C282.577,141.246 283.608,146.356 285.155,149.028C286.702,151.699 289.022,153.035 292.116,153.035C296.709,153.035 299.944,150.621 301.819,145.793C303.694,140.965 304.631,132.364 304.631,119.989C304.631,112.864 305.452,107.309 307.092,103.324C308.733,99.34 310.913,97.348 313.631,97.348C314.569,97.348 315.459,97.559 316.303,97.981C317.147,98.403 318.178,98.989 319.397,99.739C322.678,101.989 327.131,104.778 332.756,108.106C338.381,111.434 344.405,114.809 350.827,118.231C357.249,121.653 363.342,124.582 369.108,127.02C374.874,129.457 379.538,130.864 383.1,131.239L382.678,141.223C379.209,140.754 374.803,139.489 369.459,137.426C364.116,135.364 358.42,132.809 352.374,129.762C346.327,126.715 340.42,123.551 334.655,120.27C328.889,116.989 323.897,113.942 319.678,111.129C319.303,110.848 318.881,110.707 318.413,110.707C317.006,110.707 316.069,112.489 315.6,116.051C315.131,119.614 314.897,124.582 314.897,130.957C314.897,142.207 312.975,150.574 309.131,156.059C305.288,161.543 299.663,164.285 292.256,164.285ZM288.6,79.067C284.381,79.067 280.772,77.543 277.772,74.496C274.772,71.449 273.272,67.817 273.272,63.598C273.272,59.379 274.772,55.746 277.772,52.699C280.772,49.653 284.381,48.129 288.6,48.129C292.819,48.129 296.452,49.653 299.499,52.699C302.545,55.746 304.069,59.379 304.069,63.598C304.069,67.817 302.545,71.449 299.499,74.496C296.452,77.543 292.819,79.067 288.6,79.067ZM248.944,36.879C242.663,36.879 237.342,34.699 232.983,30.34C228.624,25.981 226.444,20.66 226.444,14.379C226.444,8.098 228.624,2.778 232.983,-1.582C237.342,-5.941 242.663,-8.121 248.944,-8.121C255.225,-8.121 260.545,-5.941 264.905,-1.582C269.264,2.778 271.444,8.098 271.444,14.379C271.444,20.66 269.264,25.981 264.905,30.34C260.545,34.699 255.225,36.879 248.944,36.879ZM349.069,101.848C344.569,101.848 340.772,100.301 337.678,97.207C334.584,94.114 333.038,90.317 333.038,85.817C333.038,81.41 334.584,77.66 337.678,74.567C340.772,71.473 344.569,69.926 349.069,69.926C353.475,69.926 357.202,71.473 360.249,74.567C363.295,77.66 364.819,81.41 364.819,85.817C364.819,90.317 363.295,94.114 360.249,97.207C357.202,100.301 353.475,101.848 349.069,101.848ZM307.584,33.504C302.053,33.504 297.319,31.512 293.381,27.528C289.444,23.543 287.475,18.785 287.475,13.254C287.475,7.723 289.444,2.965 293.381,-1.019C297.319,-5.004 302.053,-6.996 307.584,-6.996C313.209,-6.996 318.014,-5.004 321.999,-1.019C325.983,2.965 327.975,7.723 327.975,13.254C327.975,18.785 325.983,23.543 321.999,27.528C318.014,31.512 313.209,33.504 307.584,33.504ZM179.194,27.035C182.194,27.035 184.163,25.817 185.1,23.379C186.038,20.942 186.834,17.684 187.491,13.606C188.147,9.528 189.436,5.004 191.358,0.035C193.28,-4.933 196.678,-9.902 201.553,-14.871C204.459,-17.777 207.834,-20.191 211.678,-22.113C215.522,-24.035 219.413,-25.91 223.35,-27.738C227.288,-29.566 230.756,-31.699 233.756,-34.136C237.6,-37.324 240.788,-40.699 243.319,-44.261C245.85,-47.824 248.709,-51.48 251.897,-55.23C255.084,-58.98 259.444,-62.683 264.975,-66.34C270.131,-69.715 275.709,-71.894 281.709,-72.879C287.709,-73.863 293.733,-74.566 299.78,-74.988C305.827,-75.41 311.475,-76.418 316.725,-78.011C320.381,-79.136 324.038,-80.777 327.694,-82.933C331.35,-85.09 335.475,-86.168 340.069,-86.168C343.538,-86.168 347.1,-85.676 350.756,-84.691C354.413,-83.707 357.788,-82.371 360.881,-80.683C362.475,-82.183 363.717,-84.176 364.608,-86.66C365.499,-89.144 365.944,-91.84 365.944,-94.746C365.944,-102.34 362.967,-107.941 357.014,-111.551C351.061,-115.16 341.006,-116.965 326.85,-116.965C310.069,-116.965 293.545,-114.738 277.28,-110.285C261.014,-105.832 245.756,-99.715 231.506,-91.933C217.256,-84.152 204.67,-75.176 193.749,-65.004C182.827,-54.832 174.249,-43.98 168.014,-32.449C161.78,-20.918 158.663,-9.293 158.663,2.426C158.663,10.207 160.467,16.254 164.077,20.567C167.686,24.879 172.725,27.035 179.194,27.035ZM374.522,164.285C371.897,164.285 368.124,163.348 363.202,161.473C358.28,159.598 352.842,157.207 346.889,154.301C340.936,151.395 335.03,148.395 329.17,145.301C323.311,142.207 318.131,139.442 313.631,137.004L313.631,123.926C330.506,133.301 344.077,140.496 354.342,145.512C364.608,150.528 371.334,153.035 374.522,153.035C376.866,153.035 378.694,151.301 380.006,147.832C381.319,144.364 381.975,139.676 381.975,133.77C381.975,119.332 381.319,105.832 380.006,93.27C378.694,80.707 376.959,68.332 374.803,56.145C372.647,43.957 370.256,31.348 367.631,18.317C365.006,5.285 362.288,-8.871 359.475,-24.152C356.663,-39.433 354.038,-56.543 351.6,-75.48L362.709,-76.886C365.334,-57.105 368.053,-39.433 370.866,-23.871C373.678,-8.308 376.397,6.012 379.022,19.09C381.647,32.168 384.038,44.707 386.194,56.707C388.35,68.707 390.061,80.918 391.327,93.34C392.592,105.762 393.225,119.239 393.225,133.77C393.225,142.864 391.491,150.223 388.022,155.848C384.553,161.473 380.053,164.285 374.522,164.285ZM365.944,57.973C359.288,57.973 353.545,55.582 348.717,50.801C343.889,46.02 341.475,40.254 341.475,33.504C341.475,26.473 344.311,20.473 349.983,15.504C355.655,10.535 362.897,7.864 371.709,7.489L378.881,55.582C376.631,56.239 374.358,56.801 372.061,57.27C369.764,57.739 367.725,57.973 365.944,57.973ZM336.694,-13.465C330.506,-13.465 325.209,-15.668 320.803,-20.074C316.397,-24.48 314.194,-29.777 314.194,-35.965C314.194,-42.152 316.397,-47.449 320.803,-51.855C325.209,-56.261 330.506,-58.465 336.694,-58.465C342.788,-58.465 348.038,-56.261 352.444,-51.855C356.85,-47.449 359.053,-42.152 359.053,-35.965C359.053,-29.777 356.85,-24.48 352.444,-20.074C348.038,-15.668 342.788,-13.465 336.694,-13.465Z" style="fill-rule:nonzero;"/>
    </g>
</svg>
