<svg xmlns="http://www.w3.org/2000/svg" width="357" height="512" viewBox="0 0 357 512"><path d="M299.1 218.4Q330.8 224.4 343.8 245.1 356.8 265.8 356.8 310.5 356.8 399.1 303.5 455.6 250.3 512 167.3 512 134.6 512 103.8 500.2 73 488.4 50.9 467.3 25.6 444.1 12.9 418.3 0.2 392.4 0.2 365.4 0.2 335.1 13.3 318.6 26.3 302.1 54.4 296.1 49.1 283.8 46.7 275.3 44.2 266.9 44.2 262.3 44.2 246.5 60.9 230 77.6 213.5 92.4 213.5 98.7 213.5 105.7 215.7 112.8 218 121.9 223.3 94.8 146.6 82.5 105 70.2 63.3 70.2 47.5 70.2 25.7 81.5 12.8 92.7 0 112.1 0 145.1 0 195.8 147.7 204.6 173 209.1 186.7 213 175.8 220 155.8 270.7 9.5 307.2 9.5 325.2 9.5 335.9 21.6 346.6 33.8 346.6 54.2 346.6 69.6 334.8 110.8 323.1 151.9 299.1 218.4zM273.8 212.4Q297.4 148.4 310.6 106.7 323.8 65.1 323.8 55.6 323.8 45.4 319.4 39.7 315 34.1 307.2 34.1 297.4 34.1 287.2 50.5 277 66.8 264.7 103L229.5 204.7zM187.3 200.4L149.3 90.7Q134.6 48.9 126.5 36 118.4 23.2 108.9 23.2 101.5 23.2 96.9 28.8 92.4 34.5 92.4 44 92.4 60.1 104.7 100.2 117 140.3 141.6 205.4 143.7 201.5 147.6 199.9 151.5 198.3 158.1 198.3 160.2 198.3 166.6 198.7 172.9 199 187.3 200.4zM227.1 307Q211.9 306.3 198.4 303.8 184.9 301.4 172.6 296.8 178.2 308 182.6 319.3 187 330.5 189.8 341.5 198.2 330.9 207.5 322.3 216.9 313.7 227.1 307zM47.4 361.8Q52.3 367.8 61.1 379.4 84.3 411.4 104 411.4 110.7 411.4 115.9 407.2 121.2 403 121.2 398.4 121.2 393.1 114.2 380.8 107.1 368.5 94.8 353.1 80.8 335.1 71.5 326.9 62.1 318.6 56.5 318.6 44.2 318.6 33.8 331.8 23.5 345 23.5 362.9 23.5 377.3 30.7 395.1 37.9 412.8 51.6 430.8 72.3 458.5 103.1 473.5 133.9 488.4 171.1 488.4 239.7 488.4 286 437.3 332.2 386.1 332.2 309.1 332.2 285.5 328.7 271.6 325.2 257.8 317.1 251.4 302.7 239.5 261 230 219.3 220.5 174 220.5 161.3 220.5 156 224.7 150.7 228.9 150.7 239.1 150.7 263 177.5 273.8 204.2 284.5 264 284.5L278.4 284.5Q283.3 284.5 286.3 288.2 289.3 291.9 290.4 299.3 284.4 304.9 265.7 312.1 247.1 319.3 237.3 326.3 216.2 341.8 203.3 363.1 190.5 384.4 190.5 403.3 190.5 414.9 195.9 431.3 201.4 447.6 201.4 451.5L201.4 454 200.7 457.1Q185.2 456.1 176.2 439 167.3 422 167.3 393.5L167.3 390.3Q164.5 392.8 161.8 393.8 159.2 394.9 156 394.9 152.9 394.9 150 394.4 147.2 393.8 143.7 392.8 144.8 396.7 145.3 400.4 145.8 404 145.8 406.2 145.8 419.2 135.6 428.5 125.4 437.8 111.4 437.8 89.2 437.8 66.4 416.2 43.5 394.5 43.5 373.8 43.5 369.9 44.4 366.9 45.3 364 47.4 361.8zM152.9 370.3Q158.8 370.3 163.8 364.8 168.7 359.4 168.7 353.1 168.7 346.4 159 321.9 149.3 297.5 134.9 273.9 124.4 256.4 114.2 247.4 104 238.4 94.8 238.4 87.5 238.4 78.5 247.7 69.5 257.1 69.5 265.1 69.5 273.6 78.3 290.5 87.1 307.3 101.9 326.3 117.3 347.1 131.1 358.7 144.8 370.3 152.9 370.3z"/></svg>
