<svg xmlns="http://www.w3.org/2000/svg" width="128" height="128" viewBox="0 0 128 128"><path d="M65 128Q56.4 128 52.3 122.4 48.1 116.8 48.1 103.9 37.2 103.1 28.9 96.9 20.6 90.8 16 80.4 11.4 70.1 11.4 56.8 11.4 44.9 15.7 38.5 19.9 32 27.7 32 34.2 32 37.6 36.7 41 41.4 41 49.7 41 53.6 40.6 57.8 40.2 61.9 40.2 65.6 40.2 71.1 42.1 74 44 76.9 47.9 77.7L47.9 69.2Q47.9 65.5 47.5 60.4 47.2 55.3 46.7 49.9 46.1 44.4 45.8 39.3 45.4 34.2 45.4 30.5 45.4 17.6 50.6 11.5 55.8 5.5 65 5.5 73.8 5.5 79 10.7 84.2 15.9 84.2 27.2 84.2 30.4 84 35 83.8 39.7 83.4 45 83.1 50.3 82.7 55.3 82.3 60.2 82 63.9 82.8 64.3 83.6 64.5 84.3 64.7 85 64.7 86.8 64.7 87.9 63.5 89.1 62.2 89.1 60.2 89.1 55.3 88.7 51.3 88.3 47.2 88.3 42.4 88.3 27.3 101.4 27.3 109 27.3 112.6 32.8 116.2 38.3 116.2 50.4 116.2 61.9 112.5 70.7 108.7 79.6 102.1 84.6 95.6 89.7 87.2 89.7 84.4 89.7 81.7 89.1L81.7 104.6Q81.7 116.8 77.8 122.4 73.8 128 65 128zM20.9 93.7Q19.7 93.7 19.7 92.1 19.7 91 20.3 89.5 19.5 89.8 18.8 89.9 18.2 90.1 17.6 90.1 16 90.1 16 88.9 16 88.1 16.9 87.2 18.6 85.6 21.8 85.6 22.4 85.6 22.9 85.6 23.5 85.7 24 85.8 24.2 86.6 24.2 87.7 24.2 89.8 23.3 91.8 22.4 93.7 20.9 93.7zM47.1 116.8Q44.9 116.8 44.9 115.5 44.9 114.2 47.8 112.8 44.9 111.5 44.9 110.1 44.9 108.9 47.1 108.9 48.6 108.9 50.3 110 51.9 111.1 53 112.8 51.9 114.5 50.3 115.7 48.6 116.8 47.1 116.8zM11.5 73.3Q9.3 73.3 9.3 72 9.3 70.6 12.3 69.3 9.3 68 9.3 66.6 9.3 65.3 11.5 65.3 13 65.3 14.7 66.4 16.4 67.5 17.4 69.2 16.4 71 14.7 72.1 13 73.3 11.5 73.3zM13 52.9Q9.9 52.9 8.2 51.3 7.3 50.3 7.3 49.6 7.3 48.4 8.9 48.4 9.4 48.4 10.1 48.5 10.8 48.7 11.6 49 11 47.4 11 46.4 11 44.7 12.2 44.7 13.7 44.7 14.6 46.7 15.5 48.6 15.5 50.8 15.5 51.8 15.3 52.7 14.8 52.8 14.2 52.8 13.7 52.9 13 52.9zM24.2 62.7Q21 62.7 19.4 61 18.5 60.1 18.5 59.3 18.5 58.1 20.1 58.1 20.6 58.1 21.3 58.3 21.9 58.5 22.7 58.8 22.2 57.2 22.2 56.1 22.2 54.5 23.3 54.5 24.8 54.5 25.7 56.4 26.6 58.4 26.6 60.6 26.6 61.6 26.5 62.4 25.9 62.5 25.4 62.6 24.8 62.7 24.2 62.7zM83.7 116.8Q82.2 116.8 80.5 115.7 78.9 114.5 77.8 112.8 78.9 111.1 80.5 110 82.2 108.9 83.7 108.9 85.9 108.9 85.9 110.1 85.9 111.5 83 112.8 85.9 114.2 85.9 115.5 85.9 116.8 83.7 116.8zM52.5 93.9Q37.9 93.9 30.3 84.7 22.7 75.5 22.7 57.6 22.7 47.6 25.2 34.6L31.2 35.5Q28.6 48.9 28.6 58.9 28.6 73.6 34.5 80.7 40.3 87.8 52.2 87.8 56 87.8 59.9 87.2L60.6 93.3Q56.5 93.9 52.5 93.9zM46.9 72.3Q44.7 72.3 44.7 71 44.7 69.6 47.7 68.3 44.7 67 44.7 65.6 44.7 64.4 46.9 64.4 48.5 64.4 50.1 65.5 51.8 66.6 52.8 68.3 51.8 70 50.1 71.2 48.5 72.3 46.9 72.3zM85 101.5Q83.4 101.5 81.8 100.4 80.1 99.3 79 97.6 80.1 95.8 81.8 94.7 83.4 93.6 85 93.6 87.1 93.6 87.1 94.9 87.1 96.3 84.2 97.6 87.2 98.9 87.2 100.3 87.2 101.5 85 101.5zM58.4 123.9Q58.4 104.5 58.1 89.6 57.9 74.7 57.3 63 56.7 52.5 56.4 44.1 56 35.7 56 28.5 56 22.5 56.6 17.1 57.1 11.6 58.6 6.3L63.9 7.3Q62.6 13.9 62.1 20.8 61.6 27.7 61.6 36 61.6 41.8 61.8 48.3 62 54.9 62.2 62.7 62.7 74.4 63 89.4 63.3 104.4 63.3 123.9zM28.2 36.2Q26.5 35.2 25.4 33.5 24.3 31.8 24.3 30.2 24.3 28 25.5 28 26.9 28 28.2 31 29.5 28 30.9 28 32.2 28 32.2 30.2 32.2 31.8 31.1 33.5 30 35.2 28.2 36.2zM65 121.9Q70.9 121.9 73.3 118.2 75.6 114.5 75.6 104.6L75.6 80.5Q82.1 83.6 87.2 83.6 93.7 83.6 98.8 79.4 103.8 75.2 106.7 67.7 109.5 60.2 109.5 50.4 109.5 40.6 107.8 37 106 33.4 101.4 33.4 97.6 33.4 96.3 35.4 95 37.4 95 42.4 95 46.1 95.4 51.1 95.8 56.1 95.8 60.2 95.8 64.7 92.6 67.7 89.4 70.8 85 70.8 80 70.8 75.9 66.9 76.1 63.6 76.4 58.3 76.7 53 76.9 47 77.2 41 77.3 35.7 77.5 30.4 77.5 27.2 77.5 18.8 74.3 15.2 71 11.6 65 11.6 58.6 11.6 55 16 51.5 20.5 51.5 30.5 51.5 34.1 51.9 39.1 52.2 44.1 52.8 49.6 53.3 55 53.6 60.2 54 65.3 54 69.2L54 83.8Q53.2 83.9 52.4 83.9 51.6 84 50.8 84 42.7 84 38.1 79.2 33.5 74.5 33.5 65.6 33.5 63.7 33.7 60.6 33.9 57.4 34.1 54.4 34.3 51.3 34.3 49.7 34.3 43.8 32.8 40.9 31.4 38.1 27.7 38.1 22.9 38.1 20.5 42.7 18.1 47.4 18.1 56.8 18.1 69.1 22.5 78.3 26.9 87.6 35.1 92.8 43.3 98 54.9 98L54.9 103.4Q54.9 110.6 55.8 114.6 56.7 118.7 59 120.3 61.2 121.9 65 121.9zM66.5 123.9Q66.5 104.6 66.8 89.8 67.1 74.9 67.5 63.3 67.8 56.2 68 49 68.1 41.8 68.1 36 68.1 27.7 67.7 20.8 67.2 13.9 65.8 7.3L71.2 6.3Q72.7 11.6 73.2 17.1 73.8 22.5 73.8 28.5 73.8 35.7 73.4 44.1 73 52.5 72.5 63 71.9 74.7 71.6 89.6 71.4 104.5 71.4 123.9zM43.2 29Q41.1 29 41.1 27.7 41.1 26.3 44 25.1 41.1 23.8 41.1 22.4 41.1 21.1 43.2 21.1 44.8 21.1 46.5 22.2 48.2 23.3 49.2 25.1 48.2 26.8 46.5 27.9 44.8 29 43.2 29zM61.7 45.6Q61.1 45.6 60.6 45.5 60 45.5 59.5 45.3 59.3 44.5 59.3 43.5 59.3 41.3 60.2 39.4 61.1 37.4 62.6 37.4 63.8 37.4 63.8 39.1 63.8 40.1 63.2 41.7 64 41.4 64.7 41.2 65.3 41.1 65.9 41.1 67.5 41.1 67.5 42.2 67.5 43 66.6 43.9 64.9 45.6 61.7 45.6zM105.1 88Q103.6 88 102.6 85.9 101.7 83.7 101.7 81.8 101.7 80.6 102 79.7 104.7 79.7 107.3 80.5 110 81.4 110 83.2 110 83.7 109.5 84.1 108.9 84.4 108.3 84.4 107.2 84.4 105.7 83.7 106.2 85.3 106.2 86.3 106.2 86.9 106 87.5 105.8 88 105.1 88zM86.2 80.6Q82.5 80.6 78.3 79.1 74 77.5 69.4 74.2L72.2 69.7Q76.1 72.5 79.6 73.8 83.1 75.1 86.1 75.1 92.7 75.1 96.6 69.2 100.5 63.4 100.5 52.9 100.5 48.1 99.6 42.4 98.7 36.8 96.7 30.4L102.1 29.3Q103.9 35.5 104.8 41.2 105.6 46.9 105.6 52 105.6 65.2 100.3 72.9 95 80.6 86.2 80.6zM116.6 69Q115.1 69 113.4 67.9 111.7 66.7 110.6 65 111.7 63.3 113.4 62.2 115.1 61.1 116.6 61.1 118.7 61.1 118.7 62.3 118.7 63.8 115.8 65 118.7 66.4 118.7 67.7 118.7 69 116.6 69zM65.3 8.2Q63.6 7.1 62.5 5.4 61.4 3.7 61.4 2.2 61.4 0 62.7 0 64.1 0 65.3 2.9 66.6 0 68 0 69.3 0 69.3 2.2 69.3 3.7 68.2 5.4 67.1 7.1 65.3 8.2zM82.5 21.2Q81.9 21.2 81.4 21.2 80.8 21.1 80.3 21 80 20.1 80 18.9 80 16.9 81 15 82 13 83.4 13 84.5 13 84.5 14.7 84.5 15.7 84 17.3 84.8 17 85.5 16.9 86.1 16.7 86.7 16.7 88.3 16.7 88.3 17.9 88.3 19.3 86.4 20.3 84.5 21.2 82.5 21.2zM115 45.6Q114.3 45.6 113.8 45.5 113.3 45.5 112.7 45.3 112.5 44.5 112.5 43.5 112.5 41.3 113.4 39.4 114.3 37.4 115.8 37.4 117 37.4 117 39.1 117 40.1 116.4 41.7 117.2 41.4 117.9 41.2 118.6 41.1 119.1 41.1 120.7 41.1 120.7 42.2 120.7 43 119.8 43.9 118.1 45.6 115 45.6zM102 30.7Q100.3 29.7 99.2 28 98.1 26.3 98.1 24.7 98.1 22.6 99.4 22.6 100.8 22.6 102 25.5 103.3 22.6 104.7 22.6 106 22.6 106 24.7 106 26.3 104.9 28 103.8 29.7 102 30.7z"/></svg>
