<?xml version="1.0" encoding="UTF-8" standalone="no"?><!DOCTYPE svg PUBLIC "-//W3C//DTD SVG 1.1//EN" "http://www.w3.org/Graphics/SVG/1.1/DTD/svg11.dtd"><svg width="100%" height="100%" viewBox="0 0 77 74" version="1.1" xmlns="http://www.w3.org/2000/svg" xmlns:xlink="http://www.w3.org/1999/xlink" xml:space="preserve" xmlns:serif="http://www.serif.com/" style="fill-rule:evenodd;clip-rule:evenodd;stroke-linejoin:round;stroke-miterlimit:2;"><g><path d="M29.587,45.851c-1.156,1.084 -1.818,2.596 -1.83,4.18c0.004,1.094 0.906,1.992 2,1.992c0.528,-0 1.035,-0.209 1.41,-0.582c0.818,-0.743 1.364,-1.74 1.55,-2.83c-0,-0.15 0.32,-2.23 -0.31,-2.81c-0.789,-0.757 -2.059,-0.734 -2.82,0.05Z" style="fill-rule:nonzero;"/><path d="M36.477,46.331c-0.173,-0.047 -0.352,-0.072 -0.531,-0.072c-0.899,0 -1.692,0.606 -1.929,1.472c-0.497,1.615 -0.313,3.364 0.51,4.84c0.399,0.708 1.193,1.105 2,1c0.781,-0.116 1.429,-0.674 1.66,-1.43c0.46,-1.19 -0.07,-2.9 -0.24,-3.75c-0.17,-0.85 -0.55,-1.86 -1.47,-2.06Z" style="fill-rule:nonzero;"/><path d="M31.777,41.551c1.9,-2.5 1,-5.62 -1.44,-7.37c-1.209,-0.713 -2.507,-1.261 -3.86,-1.63c-3.12,-0.23 -5.87,2.48 -6.69,5.34c-0.88,3.08 1.31,5.77 4.26,6.43c2.89,0.639 5.903,-0.441 7.73,-2.77Z" style="fill-rule:nonzero;"/><path d="M46.317,32.871c-4.26,-0.54 -9.06,1.21 -9.91,5.9c-0.8,4.43 3.57,7.65 7.46,8.46c4.118,0.925 8.322,-1.419 9.7,-5.41c1.91,-5.84 -7.09,-8.92 -7.25,-8.95Z" style="fill-rule:nonzero;"/><path d="M76.477,11.801c-0.66,-4.27 -5.14,-7.44 -9.12,-5.88c-0.188,-0.358 -0.416,-0.694 -0.68,-1c-1.37,-1.49 -3.49,-1.54 -5.34,-1.27c-4.94,0.73 -5.65,4.87 -4.26,8.78c-1.16,1.52 -2.38,3 -3.67,4.4c-5.46,-2.73 -11.2,-4 -13.6,-3.91c-3.837,-0.137 -7.669,0.384 -11.33,1.54c-2.079,-2.211 -4.382,-4.202 -6.87,-5.94c0.39,-2.55 0.06,-5.07 -2.2,-6.85c-1.213,-0.966 -2.719,-1.493 -4.27,-1.493c-3.623,0 -6.652,2.875 -6.84,6.493c-2.69,1 -4.35,6.38 -3.38,8.81c0.894,2.086 3.038,3.373 5.3,3.18c0.554,-0.044 1.095,-0.187 1.6,-0.42c0.92,-0.42 0.66,-0.57 1.64,-0.18c1.22,0.49 2.64,2.1 3.74,3.15c-1.964,2.008 -3.561,4.343 -4.72,6.9c-3.439,7.393 -2.29,16.145 2.94,22.4l-4.81,4.68c-0.903,1.031 -1.893,1.981 -2.96,2.84c-0.792,0.503 -1.712,0.767 -2.65,0.76c-2.41,0.382 -4.274,2.353 -4.52,4.78c-0.029,0.216 -0.043,0.434 -0.043,0.652c-0,2.743 2.257,5 5,5c0.215,-0 0.43,-0.014 0.643,-0.042c0.118,1.681 1.004,3.216 2.4,4.16c1.757,0.852 3.866,0.554 5.32,-0.75c1.484,-1.246 2.374,-3.063 2.45,-5c0.05,-1.46 -0.6,-2.4 0.38,-3.66c0.405,-0.501 0.846,-0.972 1.32,-1.41c0.438,0.684 1.014,1.27 1.69,1.72c2.56,1.75 5,0.87 7,-0.81c1.1,1.796 3.06,2.893 5.166,2.893c1.611,0 3.157,-0.642 4.294,-1.783c0.879,1.144 2.165,1.907 3.59,2.13c4,0.6 5.48,-1.14 5.74,-4.67c0.11,-1.53 -0.06,-1.2 2.24,-1.89c1,-0.28 2,-0.38 2.92,-0.68c1.282,-0.407 2.527,-0.926 3.72,-1.55c1.545,1.042 2.947,2.283 4.17,3.69c1.1,1.49 -0,2.32 0.06,4c0.326,2.933 2.833,5.176 5.784,5.176c2.539,0 4.799,-1.662 5.556,-4.086c3.69,-1.38 6.14,-5.68 3.9,-9.43c-1,-1.73 -2.8,-2.22 -4.65,-2.63c-2.4,-0.54 -4.52,-2.16 -6.54,-3.73c0.591,-0.785 1.132,-1.606 1.62,-2.46c3.824,-6.929 3.779,-15.372 -0.12,-22.26c-0.18,-0.33 -0.38,-0.65 -0.59,-1l4.4,-6c0.667,0.221 1.366,0.333 2.069,0.333c3.621,0 6.6,-2.979 6.6,-6.6c0,-0.363 -0.03,-0.725 -0.089,-1.083Zm-60.19,3.42c-1.08,-0.9 -2.1,-1.88 -3.61,-1.78c-1.15,0.08 -2.45,1.6 -3.49,1c-1.25,-0.67 -1.37,-2.52 -0.52,-3.82c0.364,-0.737 1.202,-1.123 2,-0.92c1.25,1.47 2.2,3.14 4.23,2.26c2.36,-1 0.39,-2.6 -2,-3.45c-1.42,-0.48 -0.94,-1.6 -0.42,-2.48c0.447,-0.928 1.295,-1.603 2.3,-1.83c1.101,-0.164 2.201,0.344 2.79,1.29c0.664,1.078 0.906,2.365 0.68,3.61c-0.38,1.46 -0,1.86 1.06,2.67c1.84,1.272 3.57,2.697 5.17,4.26c-1.474,0.711 -2.88,1.554 -4.2,2.52c-1.36,-1.1 -2.66,-2.23 -3.99,-3.33Zm0.84,44c-1.7,1.47 -4,3.25 -4.16,5.33c-0.11,1.4 0.57,2.64 0.1,4.06c-0.29,0.88 -1.08,2.17 -2.1,2.23c-1.49,0.09 -2.62,-1.56 -2.73,-2.69c0.64,-0.45 1.91,-1 2.36,-1.73c0.116,-0.218 0.177,-0.461 0.177,-0.708c0,-0.823 -0.677,-1.5 -1.5,-1.5c-0.513,0 -0.993,0.264 -1.267,0.698c-0.51,1.24 -4.14,2.28 -4.83,-0.16c-0.69,-2.44 1.65,-2.58 3.47,-2.89c0.768,-0.007 1.517,-0.244 2.15,-0.68c1.584,-1.307 3.059,-2.742 4.41,-4.29l4.27,-4.23c0.4,0.35 0.8,0.69 1.23,1c-0.917,1.702 -1.456,3.581 -1.58,5.51l-0,0.05Zm49.21,-2.3c1,0.44 2.19,0.45 3.24,0.84c2.85,1.06 2.27,3.94 0.43,5.43c-0.484,-1.772 -1.492,-3.358 -2.89,-4.55c-1.44,-1.28 -3.57,0.84 -2.12,2.12c1.78,1.58 3.8,5.77 0.23,6.9c-1.48,0.353 -3.015,-0.414 -3.62,-1.81l0.48,-1.82c0.21,-0.493 0.342,-1.016 0.39,-1.55c-0,-1.36 -1,-2.2 -1.88,-3c-1.21,-1.08 -2.44,-2.13 -3.68,-3.18c1.338,-0.935 2.581,-2 3.71,-3.18c1.737,1.486 3.656,2.746 5.71,3.75l-0,0.05Zm-4.53,-12.8c-2.564,6.207 -8.088,10.722 -14.68,12c-1.85,0.39 -3.52,0.3 -4.71,2c-0.48,0.68 0.24,1.52 0.23,2.17c-0.142,0.738 -0.604,1.375 -1.26,1.74c-2,0.22 -3.174,-0.59 -3.52,-2.43c-0.236,-0.868 -1.031,-1.475 -1.93,-1.475c-1.098,-0 -2,0.903 -2,2c-0,0.002 -0,0.003 -0,0.005c-0.61,1.59 -4.29,2.52 -4.24,-0.44c0.05,-2.96 -2.29,-3.48 -3.66,-1.54c-1.11,2.59 -4.72,0.9 -4.77,-0.63c-0.05,-1.53 1.08,-2.4 1.81,-3.5c0.179,-0.306 0.274,-0.656 0.274,-1.011c0,-0.711 -0.379,-1.371 -0.994,-1.729c-8.17,-5 -10,-15.38 -5.26,-23.47c5,-8.52 14.71,-11.14 24.13,-10.82c1.24,0 12.67,2.55 17,7.58c4.722,5.34 6.104,12.884 3.58,19.55Zm4.67,-28.09l-4.91,6.72c-1.399,-1.461 -2.967,-2.75 -4.67,-3.84c1.45,-1.64 2.83,-3.32 4.13,-5.09c0.356,-0.618 0.356,-1.382 -0,-2c-0.77,-1.59 -1.55,-3.62 0.79,-4.14c0.174,-0.053 0.355,-0.08 0.538,-0.08c1.009,-0 1.84,0.83 1.84,1.84c-0,0.281 -0.065,0.558 -0.188,0.81c-0.094,0.222 -0.143,0.46 -0.143,0.7c0,0.982 0.808,1.79 1.79,1.79c0.813,-0 1.528,-0.553 1.733,-1.34c0.118,-0.526 0.394,-1.004 0.79,-1.37c0.445,-0.275 0.958,-0.421 1.482,-0.421c1.502,0 2.754,1.2 2.818,2.701c0.44,2.4 -1.78,3.62 -3.83,2.86c-0.209,-0.091 -0.433,-0.139 -0.661,-0.139c-0.657,0 -1.253,0.395 -1.509,0.999Z" style="fill-rule:nonzero;"/></g></svg>