<svg xmlns="http://www.w3.org/2000/svg" width="128" height="128" viewBox="0 0 128 128"><path d="M64 127.1Q44.8 127.1 30.5 121 16.1 114.9 8.2 102.8 0.3 90.8 0.3 73.1 0.3 56 7.2 44.5 14.2 33 27.2 27.1 40.3 21.3 58.4 20.8L58.4 28.1Q42 28.5 30.6 33.3 19.3 38 13.4 47.8 7.5 57.6 7.5 73.1 7.5 89.2 14.5 99.7 21.5 110.2 34.2 115.3 46.9 120.5 64 120.5 81.1 120.5 93.8 115.3 106.6 110.2 113.5 99.7 120.5 89.1 120.5 73.1 120.5 57.5 114.6 47.7 108.7 38 97.3 33.2 85.9 28.5 69.6 28.1L69.6 20.8Q87.9 21.3 100.9 27.2 113.8 33.1 120.8 44.6 127.7 56.1 127.7 73.1 127.7 90.9 119.8 102.9 111.8 114.9 97.5 121 83.2 127.1 64 127.1zM57 123.3L51.1 123.3Q49.4 121 47.8 116.3 46.2 111.6 45 106.2L51.6 110.2Q52.4 113.4 53.9 117.1 55.4 120.8 57 123.3zM71 123.3Q72.6 120.8 74.1 117.1 75.7 113.4 76.4 110.2L83 106.2Q81.8 111.6 80.2 116.3 78.7 121 76.9 123.3zM35.4 119.2L26.7 114.4Q21.1 107.3 18.3 97.6 15.5 88 15.5 77 15.5 62 21.1 51.5 26.7 41 36.2 34.7 45.6 28.5 57.1 26.5L60.2 31.2Q52.8 31.7 45.8 34.9 38.8 38.2 33.1 44.1 27.5 50.1 24.2 58.3 20.9 66.6 20.9 77.1 20.9 89.5 24.6 100.2 28.3 111 35.4 119.2zM55.3 105Q54.6 105 53.8 104.5L46.6 100.1Q45.6 99.5 44.6 99.5 43.8 99.5 43 100L37.1 103Q35.3 103.9 34.5 101.8L28.5 84.4Q28.2 83.6 28.6 83.2 28.9 82.9 29.7 83.3L38.2 87.7Q39 88.1 39.7 88.1 40.7 88.1 41.6 87.2L45.1 83.8Q45.8 83.1 46.9 83.1 47.8 83.1 48.4 83.5L55 87.7Q55.9 88.2 56.7 88.2 57.6 88.2 58.5 87.4L62.7 83.8Q63.6 83 64 83 64.4 83 65.3 83.8L69.5 87.4Q70.4 88.2 71.3 88.2 72.1 88.2 73 87.7L79.6 83.5Q80.3 83.1 81.1 83.1 82.2 83.1 82.9 83.8L86.4 87.2Q87.3 88.1 88.3 88.1 89 88.1 89.8 87.7L98.3 83.3Q99.1 82.9 99.4 83.2 99.8 83.6 99.5 84.4L93.5 101.8Q92.7 103.9 90.9 103L85 100Q84.2 99.5 83.4 99.5 82.4 99.5 81.4 100.1L74.2 104.5Q73.4 105 72.7 105 71.8 105 70.9 104.2L65.3 99.3Q64.7 98.7 64 98.7 63.4 98.7 62.7 99.3L57.1 104.2Q56.2 105 55.3 105zM50.5 72.9L29.1 70.6Q27.9 70.5 27.9 69.7 27.9 69.3 28.3 68.8L40 55.5Q40.5 54.9 41 54.9 41.6 54.9 42.2 55.8L51.7 71.2Q51.9 71.6 51.9 72 51.9 73 50.5 72.9zM57 78.8Q55.2 78.8 55.2 77.6 55.2 76.9 55.8 76.3L62.6 68.5Q63.5 67.5 64 67.5 64.5 67.5 65.4 68.5L72.2 76.3Q72.8 76.9 72.8 77.6 72.8 78.8 71 78.8zM48 55.6L44.1 50.1Q45.5 45.2 48.9 39.4 52.3 33.7 56.7 30L61.2 33.7Q57 36.5 53.3 42.6 49.6 48.7 48 55.6zM92.6 119.2Q99.7 111 103.4 100.2 107.1 89.5 107.1 77.1 107.1 66.6 103.8 58.3 100.5 50.1 94.9 44.1 89.3 38.2 82.2 34.9 75.2 31.7 67.8 31.2L70.9 26.5Q82.4 28.5 91.8 34.7 101.3 41 106.9 51.5 112.5 62 112.5 77 112.5 88 109.8 97.6 107 107.3 101.3 114.4zM77.5 72.9Q76.1 73 76.1 72 76.1 71.6 76.3 71.2L85.8 55.8Q86.4 54.9 87 54.9 87.5 54.9 88 55.5L99.7 68.8Q100.1 69.3 100.1 69.7 100.1 70.5 98.9 70.6zM79.9 55.6Q78.4 48.7 74.7 42.6 70.9 36.5 66.8 33.7L71.3 30Q75.8 33.7 79.2 39.4 82.5 45.2 83.9 50.1zM64.6 36.9Q59.9 36.9 57.2 34.9 54.6 32.8 54.6 28.7L54.6 25.8Q54.6 22.9 53.6 21.5 52.6 20 49.9 18.2L49 17.7Q46.1 15.8 44.8 14 43.4 12.2 43.4 9.4 43.4 6.2 45.8 3.5 48.2 0.9 52.8 0.9 58.6 0.9 63.5 4.7 68.3 8.5 71.2 14.5 74 20.4 74 27 74 31.4 71.5 34.2 68.9 36.9 64.6 36.9zM64.6 30.9Q65.9 30.9 67 30 68 29.1 68 27.3 68 22.2 65.9 17.5 63.8 12.8 60.4 9.8 56.9 6.9 52.8 6.9 51.4 6.9 50.4 7.5 49.5 8.2 49.5 9.4 49.5 10.2 50 10.9 50.5 11.6 52 12.5L53.8 13.6Q57.4 15.7 59.5 19.2 61.6 22.8 61.6 27.4 61.6 29 62.5 29.9 63.4 30.9 64.6 30.9z"/></svg>
