<svg xmlns="http://www.w3.org/2000/svg" width="128" height="128" viewBox="0 0 128 128"><path d="M64.1 76.4Q62.3 73.4 60.1 70.2 57.9 67 55.4 63.6 52.1 58.9 48.7 53.9 45.3 48.9 42.6 43.6 39.9 38.3 38.2 33 36.6 27.6 36.6 22.3 36.6 16.5 38.8 12.2 40.9 8 44.7 5.3 48.5 2.6 53.5 1.3 58.4 0 64.1 0 69.6 0 74.5 1.3 79.5 2.6 83.3 5.3 87.1 8 89.2 12.2 91.4 16.5 91.4 22.3 91.4 27.7 89.7 33.1 88 38.4 85.3 43.7 82.6 49 79.3 54 75.9 59 72.6 63.7 70.2 67.1 68 70.3 65.8 73.5 64.1 76.4zM41.8 104.9Q41.8 100.1 43.6 95.9 45.4 91.6 48.6 88.5 51.7 85.4 55.9 83.6 60.1 81.8 64.9 81.8 69.7 81.8 73.9 83.6 78.1 85.4 81.2 88.5 84.4 91.6 86.2 95.9 88 100.1 88 104.9 88 109.7 86.2 113.9 84.4 118.1 81.2 121.2 78.1 124.4 73.9 126.2 69.7 128 64.9 128 60.1 128 55.9 126.2 51.7 124.4 48.6 121.2 45.4 118.1 43.6 113.9 41.8 109.7 41.8 104.9z"/></svg>
