<svg class="rss" xmlns="http://www.w3.org/2000/svg" width="128" height="128" viewBox="0 0 128 128"><path d="M64 0C28.7 0 0 28.7 0 64 0 99.4 28.7 128 64 128 99.4 128 128 99.4 128 64 128 28.7 99.3 0 64 0zM44.2 92.9C39.5 92.9 35.7 89.1 35.7 84.5 35.7 79.8 39.5 76 44.2 76 48.8 76 52.6 79.8 52.6 84.5 52.6 89.1 48.8 92.9 44.2 92.9zM65.3 92.9C65.3 85 62.2 77.5 56.6 71.9 51 66.3 43.6 63.2 35.7 63.2L35.7 51.1C58.7 51.1 77.4 69.9 77.4 92.9L65.3 92.9zM86.7 92.9C86.7 64.7 63.9 41.7 35.8 41.7L35.8 29.6C70.6 29.6 98.9 58 98.9 92.9L86.7 92.9z"/></svg>
