<svg xmlns="http://www.w3.org/2000/svg" width="200" height="250" viewBox="0 0 200 250"><path d="M100.2 0C141.1 0 163.3 27.6 163.3 56.7 163.3 99 140.8 100.5 135.2 124.8 130.1 146.5 119.7 152.4 100.2 152.4 80.6 152.4 70.3 146.5 65.1 124.8 59.6 100.5 37.1 99 37.1 56.7 37.1 27.6 59.2 0 100.2 0zM100.2 97.9C95 97.9 90.9 105.3 90.9 111.9 90.9 116.4 95 119.7 100.2 119.7 106.4 119.7 110.9 116.4 110.9 111.9 110.9 105.3 106.4 97.9 100.2 97.9zM74 61.5C66.6 61.5 57.4 67.4 57.4 77 57.4 86.2 64.4 92.8 74 92.8 84.3 92.8 90.9 86.2 90.9 77 90.9 67.4 83.2 61.5 74 61.5zM125.6 61.5C116.8 61.5 109 67.4 109 77 109 86.2 115.7 92.8 125.6 92.8 136 92.8 142.6 86.2 142.6 77 142.6 67.4 133.7 61.5 125.6 61.5z"/><path d="M34.9 247.8C15.3 257.4 3.9 231.2 23.8 221.7L67 201 23.8 180.8C3.5 171.6 13.8 144.7 34.9 154.6L100.5 185.2 165.8 154.6C185.4 144.7 196.5 171.6 176.9 180.8L34.9 247.8z"/><path d="M117.9 225.7L150.3 209.1 176.9 221.7C196.5 231.2 185.4 257.7 165.8 247.8z"/></svg>
