<?xml version="1.0" encoding="UTF-8"?>
<!DOCTYPE svg PUBLIC "-//W3C//DTD SVG 1.1//EN" "http://www.w3.org/Graphics/SVG/1.1/DTD/svg11.dtd">
<svg version="1.1" xmlns="http://www.w3.org/2000/svg" xmlns:xlink="http://www.w3.org/1999/xlink" x="0" y="0" width="128" height="128" viewBox="0, 0, 128, 128">
  <g id="Background">
    <rect x="0" y="0" width="128" height="128" fill="#000000" fill-opacity="0"/>
  </g>
  <g id="Layer_1">
    <g>
      <path d="M109.165,8.443 C100.521,3.658 88.051,-0.546 74.258,0.922 C64.216,1.992 52.511,7.13 40.958,11.126 C29.913,14.947 19.351,21.286 13.034,27.239 C8.297,31.696 3.101,39.288 1.218,45.499 C-2.894,59.071 7.164,77.07 16.255,84.17 C20.172,87.228 24.337,87.237 29.146,91.15 C28.921,101.855 21.967,119.875 32.37,123.912 C35.944,125.302 42.728,124.541 46.868,122.839 C51.536,126.381 60.15,124.847 64.054,121.765 C67.913,125.662 75.233,128.192 81.239,127.133 C93.128,125.045 92.757,109.253 94.667,97.059 C114.58,93.644 125.883,75.704 127.43,54.094 C129.15,30.071 123.511,16.383 109.169,8.443 z M118.831,51.41 C118.33,55.93 116.273,62.938 113.463,68.594 C111.156,73.223 107.912,80.106 104.867,82.023 C100.587,84.716 93.452,83.294 88.758,85.782 C77.631,91.674 92.029,119.432 73.182,118.007 C71.528,111.522 76.668,95.539 68.885,94.912 C62.365,94.387 64.639,101.279 63.513,107.263 C62.479,112.761 59.09,118.757 53.309,118.544 C51.102,114.497 57.784,94.202 50.085,94.375 C43.764,94.521 47.284,112.527 44.178,116.395 C41.236,116.473 39.067,115.777 36.658,115.321 C37.778,107.38 37.179,101.105 37.731,94.375 C37.913,92.168 39.133,89.675 38.805,87.395 C37.735,79.909 28.537,79.66 23.232,76.114 C18.705,73.088 12.534,64.799 11.415,57.855 C10.015,49.152 15.337,41.258 19.473,36.91 C29.588,26.268 54.713,13.098 75.864,11.13 C91.763,9.648 105.607,14.321 112.924,23.485 C117.119,28.743 120.185,39.213 118.83,51.411 z" fill="#000000"/>
      <path d="M60.288,55.707 C61.312,48.072 47.878,39.997 43.642,39.056 C41.531,38.586 37.492,38.776 36.121,39.056 C33.169,39.657 30.638,40.566 30.213,44.425 C29.486,51.005 35.854,53.784 39.344,55.707 C45.181,58.92 58.959,65.612 60.288,55.707 z" fill="#000000"/>
      <path d="M99.497,39.056 C97.533,39.901 93.146,40.313 90.368,41.205 C84.196,43.188 74.789,49.907 75.328,56.244 C75.823,62.082 84.73,61.119 89.29,59.466 C91.663,58.608 96.121,55.386 99.496,53.021 C104.302,49.657 108.334,45.069 104.866,40.667 C103.479,40.124 100.9,38.455 99.497,39.056 z" fill="#000000"/>
      <path d="M51.697,82.023 C51.888,84.652 53.685,87.809 57.07,87.393 C61.486,86.852 59.271,81.458 63.514,79.872 C64.79,83.957 68.382,87.641 72.108,85.781 C78.955,82.362 70.9,72.117 68.347,68.058 C61.162,64.655 51.168,74.716 51.697,82.023 z" fill="#000000"/>
    </g>
  </g>
</svg>
