<svg xmlns="http://www.w3.org/2000/svg" width="512" height="512" viewBox="0 0 512 512"><path d="M21.7 460Q21.7 435.4 53.5 409.3 120 355.8 159.1 322.5 89.7 306.6 24.6 287.8 1.4 280.6 1.4 260.3 1.4 240.1 26 215.5 50.6 193.8 83.9 183 117.1 172.1 151.9 173.6 160.5 173.6 164.9 175 162 131.6 170.7 91.1 176.4 63.6 224.9 37.6 273.4 11.5 313.9 11.5 360.1 11.5 361.6 47.7L365.9 96.9Q407.9 75.2 448.4 78.1 468.6 79.5 485.3 88.9 501.9 98.3 501.9 114.2 501.9 122.9 496.1 133 474.4 172.1 432.5 224.2 412.2 258.9 403.5 277.7L402.1 277.7 444 296.5 484.5 315.3Q510.6 325.4 510.6 345.7 510.6 365.9 488.9 388.4 467.2 410.8 434.6 426 402.1 441.2 373.2 441.2 358.7 441.2 341.3 433.9 331.2 428.1 315.3 419.5 299.4 410.8 277.7 399.2L266.1 409.3Q225.6 444 162 477.3 112.8 500.5 78.1 500.5 53.5 500.5 37.6 488.9 21.7 477.3 21.7 460z"/></svg>
