<svg xmlns="http://www.w3.org/2000/svg" width="512" height="512" viewBox="0 0 512 512"><rect width="512" height="512" fill="none"/><path d="M256 21.7C584.4 21.7 492.9 383.8 472.9 441.8 469.9 450.6 463.9 460.6 454.8 471.7 437.6 492.9 405.9 496.5 384.1 479.9 365.3 465.6 359.5 440.4 370.2 419.7 404.4 353.4 461.5 154.4 256 154.4L256 110.1C268.6 110.1 278.8 100.2 278.8 88 278.8 75.8 268.6 65.9 256 65.9L256 21.7zM438.7 375.5C426.1 375.5 415.8 385.4 415.8 397.6 415.8 409.8 426.1 419.7 438.7 419.7 451.3 419.7 461.5 409.8 461.5 397.6 461.5 385.4 451.3 375.5 438.7 375.5zM450.1 264.9C437.5 264.9 427.3 274.8 427.3 287 427.3 299.3 437.5 309.2 450.1 309.2 462.7 309.2 472.9 299.3 472.9 287 472.9 274.8 462.7 264.9 450.1 264.9zM427.3 165.4C414.7 165.4 404.4 175.3 404.4 187.5 404.4 199.7 414.7 209.6 427.3 209.6 439.9 209.6 450.1 199.7 450.1 187.5 450.1 175.3 439.9 165.4 427.3 165.4zM358.8 88C346.1 88 335.9 97.9 335.9 110.1 335.9 122.3 346.1 132.2 358.8 132.2 371.4 132.2 381.6 122.3 381.6 110.1 381.6 97.9 371.4 88 358.8 88zM153.2 88C140.6 88 130.4 97.9 130.4 110.1 130.4 122.3 140.6 132.2 153.2 132.2 165.9 132.2 176.1 122.3 176.1 110.1 176.1 97.9 165.9 88 153.2 88zM84.7 165.4C72.1 165.4 61.9 175.3 61.9 187.5 61.9 199.7 72.1 209.6 84.7 209.6 97.3 209.6 107.6 199.7 107.6 187.5 107.6 175.3 97.3 165.4 84.7 165.4zM61.9 264.9C49.3 264.9 39.1 274.8 39.1 287 39.1 299.3 49.3 309.2 61.9 309.2 74.5 309.2 84.7 299.3 84.7 287 84.7 274.8 74.5 264.9 61.9 264.9zM73.3 375.5C60.7 375.5 50.5 385.4 50.5 397.6 50.5 409.8 60.7 419.7 73.3 419.7 85.9 419.7 96.2 409.8 96.2 397.6 96.2 385.4 85.9 375.5 73.3 375.5zM256 21.7L256 65.9C243.4 65.9 233.2 75.8 233.2 88 233.2 100.2 243.4 110.1 256 110.1L256 154.4C50.5 154.4 107.6 353.4 141.8 419.7 152.5 440.4 146.7 465.6 127.9 479.9 106.1 496.5 74.4 492.9 57.2 471.7 48.1 460.6 42.1 450.6 39.1 441.8 19.1 383.8-72.4 21.7 256 21.7z"/></svg>
