<?xml version="1.0" encoding="UTF-8"?>
<!DOCTYPE svg PUBLIC "-//W3C//DTD SVG 1.1//EN" "http://www.w3.org/Graphics/SVG/1.1/DTD/svg11.dtd">
<svg version="1.1" xmlns="http://www.w3.org/2000/svg" xmlns:xlink="http://www.w3.org/1999/xlink" x="0" y="0" width="128" height="128" viewBox="0, 0, 128, 128">
  <g id="Background">
    <rect x="0" y="0" width="128" height="128" fill="#000000" fill-opacity="0"/>
  </g>
  <g id="Layer_1">
    <path d="M65.415,128 Q56.8,128 53.2,122.369 Q49.6,116.738 49.6,103.754 Q38.585,103.077 30.062,96.954 Q21.538,90.831 16.708,80.462 Q11.877,70.092 11.877,56.738 Q11.877,44.985 16.031,38.646 Q20.185,32.308 27.692,32.308 Q34.031,32.308 36.923,36.892 Q39.815,41.477 39.815,49.6 Q39.815,53.538 39.446,57.692 Q39.077,61.846 39.077,65.662 Q39.077,71.631 41.6,74.738 Q44.123,77.846 48.738,78.523 L48.738,69.231 Q48.738,65.477 48.308,60.369 Q47.877,55.262 47.292,49.692 Q46.708,44.123 46.277,39.015 Q45.846,33.908 45.846,30.154 Q45.846,17.846 51.077,11.692 Q56.308,5.538 65.415,5.538 Q73.969,5.538 78.769,10.831 Q83.569,16.123 83.569,26.892 Q83.569,30.092 83.354,34.892 Q83.138,39.692 82.769,45.077 Q82.4,50.462 82.031,55.477 Q81.662,60.492 81.354,64.185 Q82.277,64.738 83.477,65.015 Q84.677,65.292 85.6,65.292 Q87.692,65.292 88.985,63.877 Q90.277,62.462 90.277,60.185 Q90.277,55.262 89.877,51.108 Q89.477,46.954 89.477,42.154 Q89.477,27.569 102.154,27.569 Q109.538,27.569 112.708,32.923 Q115.877,38.277 115.877,50.277 Q115.877,61.662 112.308,70.492 Q108.738,79.323 102.4,84.308 Q96.062,89.292 87.815,89.292 Q84.8,89.292 81.662,88.554 L81.662,104.985 Q81.662,117.108 77.846,122.554 Q74.031,128 65.415,128 z M20.431,93.662 Q19.385,93.662 19.385,92.123 Q19.385,91.015 19.877,89.723 Q19.138,90.031 18.523,90.154 Q17.908,90.277 17.415,90.277 Q15.938,90.277 15.938,89.231 Q15.938,88.554 16.8,87.692 Q18.338,86.154 21.231,86.154 Q21.723,86.154 22.246,86.215 Q22.769,86.277 23.262,86.4 Q23.446,87.138 23.446,88.062 Q23.446,90.092 22.615,91.877 Q21.785,93.662 20.431,93.662 z M47.077,116.923 Q45.046,116.923 45.046,115.754 Q45.046,114.523 47.754,113.292 Q45.108,112.062 45.108,110.831 Q45.108,109.662 47.077,109.662 Q48.492,109.662 50.031,110.677 Q51.569,111.692 52.554,113.292 Q51.569,114.892 50.031,115.908 Q48.492,116.923 47.077,116.923 z M11.138,72.985 Q9.169,72.985 9.169,71.815 Q9.169,70.585 11.877,69.354 Q9.169,68.123 9.169,66.892 Q9.169,65.723 11.138,65.723 Q12.554,65.723 14.092,66.708 Q15.631,67.692 16.615,69.292 Q15.631,70.954 14.092,71.969 Q12.554,72.985 11.138,72.985 z M12.677,52.431 Q9.785,52.431 8.246,50.892 Q7.385,50.031 7.385,49.354 Q7.385,48.308 8.862,48.308 Q9.354,48.308 9.969,48.431 Q10.585,48.554 11.323,48.862 Q10.831,47.569 10.831,46.462 Q10.831,44.923 11.877,44.923 Q13.231,44.923 14.062,46.708 Q14.892,48.492 14.892,50.523 Q14.892,51.446 14.708,52.185 Q14.215,52.308 13.692,52.369 Q13.169,52.431 12.677,52.431 z M23.692,62.277 Q20.8,62.277 19.262,60.738 Q18.4,59.877 18.4,59.2 Q18.4,58.154 19.877,58.154 Q20.369,58.154 20.985,58.277 Q21.6,58.4 22.338,58.708 Q21.846,57.415 21.846,56.308 Q21.846,54.769 22.892,54.769 Q24.246,54.769 25.077,56.554 Q25.908,58.338 25.908,60.369 Q25.908,61.292 25.723,62.031 Q25.231,62.154 24.708,62.215 Q24.185,62.277 23.692,62.277 z M83.754,116.923 Q82.4,116.923 80.862,115.908 Q79.323,114.892 78.277,113.292 Q79.323,111.692 80.862,110.677 Q82.4,109.662 83.754,109.662 Q85.723,109.662 85.723,110.831 Q85.723,112.062 83.077,113.292 Q85.785,114.523 85.785,115.754 Q85.785,116.923 83.754,116.923 z M52.246,93.046 Q37.969,93.046 30.738,84.215 Q23.508,75.385 23.508,58.031 Q23.508,47.692 26.092,34.4 L29.662,35.138 Q27.138,48.492 27.138,58.215 Q27.138,73.846 33.415,81.569 Q39.692,89.292 52.308,89.292 Q56.062,89.292 59.938,88.677 L60.431,92.369 Q55.877,93.046 52.246,93.046 z M46.892,72 Q44.923,72 44.923,70.831 Q44.923,69.6 47.631,68.369 Q44.923,67.138 44.923,65.908 Q44.923,64.738 46.892,64.738 Q48.308,64.738 49.846,65.754 Q51.385,66.769 52.369,68.369 Q51.385,69.969 49.846,70.985 Q48.308,72 46.892,72 z M84.985,101.538 Q83.631,101.538 82.092,100.523 Q80.554,99.508 79.508,97.908 Q80.554,96.308 82.092,95.292 Q83.631,94.277 84.985,94.277 Q86.954,94.277 86.954,95.446 Q86.954,96.677 84.308,97.908 Q87.015,99.138 87.015,100.369 Q87.015,101.538 84.985,101.538 z M58.954,124.431 Q58.954,104.985 58.646,89.969 Q58.338,74.954 57.908,63.077 Q57.662,55.2 57.477,48.523 Q57.292,41.846 57.292,36.062 Q57.292,27.815 57.754,20.769 Q58.215,13.723 59.508,7.015 L63.138,7.692 Q61.908,14.215 61.415,21.077 Q60.923,27.938 60.923,36 Q60.923,41.785 61.108,48.369 Q61.292,54.954 61.538,62.831 Q61.969,74.646 62.308,89.754 Q62.646,104.862 62.646,124.431 z M27.815,35.569 Q26.215,34.585 25.2,33.046 Q24.185,31.508 24.185,30.092 Q24.185,28.062 25.354,28.062 Q26.585,28.062 27.815,30.769 Q29.046,28.062 30.277,28.062 Q31.446,28.062 31.446,30.092 Q31.446,31.508 30.431,33.046 Q29.415,34.585 27.815,35.569 z M65.415,123.077 Q71.631,123.077 74.185,119.138 Q76.738,115.2 76.738,104.985 L76.738,81.538 Q82.831,84.369 87.815,84.369 Q94.585,84.369 99.815,80.031 Q105.046,75.692 108,68 Q110.954,60.308 110.954,50.277 Q110.954,40.123 109.015,36.308 Q107.077,32.492 102.154,32.492 Q98.031,32.492 96.215,34.708 Q94.4,36.923 94.4,42.154 Q94.4,46.831 94.8,51.169 Q95.2,55.508 95.2,60.185 Q95.2,64.492 92.462,67.354 Q89.723,70.215 85.6,70.215 Q80.308,70.215 76.431,66.646 Q76.677,63.508 77.046,58.031 Q77.415,52.554 77.785,46.4 Q78.154,40.246 78.4,34.954 Q78.646,29.662 78.646,26.892 Q78.646,18.092 75.231,14.277 Q71.815,10.462 65.415,10.462 Q58.585,10.462 54.677,15.138 Q50.769,19.815 50.769,30.154 Q50.769,33.723 51.2,38.8 Q51.631,43.877 52.215,49.446 Q52.8,55.015 53.231,60.185 Q53.662,65.354 53.662,69.231 L53.662,83.446 Q53.046,83.508 52.4,83.538 Q51.754,83.569 51.138,83.569 Q43.138,83.569 38.646,78.985 Q34.154,74.4 34.154,65.662 Q34.154,63.754 34.338,60.554 Q34.523,57.354 34.708,54.246 Q34.892,51.138 34.892,49.6 Q34.892,43.385 33.292,40.308 Q31.692,37.231 27.692,37.231 Q22.523,37.231 19.662,42.092 Q16.8,46.954 16.8,56.738 Q16.8,69.292 21.446,78.769 Q26.092,88.246 34.554,93.569 Q43.015,98.892 54.523,98.892 L54.523,103.754 Q54.523,111.2 55.538,115.415 Q56.554,119.631 58.954,121.354 Q61.354,123.077 65.415,123.077 z M67.077,124.431 Q67.077,104.923 67.415,89.908 Q67.754,74.892 68.185,63.138 Q68.492,55.077 68.646,48.308 Q68.8,41.538 68.8,35.692 Q68.8,27.631 68.308,20.862 Q67.815,14.092 66.585,7.631 L70.215,6.954 Q71.508,13.785 71.969,20.831 Q72.431,27.877 72.431,36.308 Q72.431,42.031 72.308,48.615 Q72.185,55.2 71.877,62.954 Q71.446,74.769 71.108,89.846 Q70.769,104.923 70.769,124.431 z M43.2,28.308 Q41.231,28.308 41.231,27.138 Q41.231,25.908 43.938,24.677 Q41.231,23.446 41.231,22.215 Q41.231,21.046 43.2,21.046 Q44.615,21.046 46.154,22.062 Q47.692,23.077 48.677,24.677 Q47.692,26.277 46.154,27.292 Q44.615,28.308 43.2,28.308 z M61.846,45.046 Q61.354,45.046 60.831,44.985 Q60.308,44.923 59.815,44.8 Q59.631,44.062 59.631,43.138 Q59.631,41.108 60.462,39.323 Q61.292,37.538 62.646,37.538 Q63.692,37.538 63.692,39.077 Q63.692,40.185 63.2,41.477 Q63.938,41.169 64.554,41.046 Q65.169,40.923 65.662,40.923 Q67.138,40.923 67.138,41.969 Q67.138,42.646 66.277,43.508 Q64.738,45.046 61.846,45.046 z M105.538,87.877 Q104.185,87.877 103.323,85.908 Q102.462,83.938 102.462,82.154 Q102.462,80.985 102.708,80.185 Q105.169,80.185 107.631,80.985 Q110.092,81.785 110.092,83.446 Q110.092,83.938 109.569,84.215 Q109.046,84.492 108.431,84.492 Q107.569,84.492 106.092,83.938 Q106.585,85.231 106.585,86.277 Q106.585,86.892 106.369,87.385 Q106.154,87.877 105.538,87.877 z M86.154,80.123 Q81.969,80.123 77.785,78.308 Q73.6,76.492 68.985,73.169 L71.2,70.215 Q75.323,73.169 78.892,74.769 Q82.462,76.369 86.031,76.369 Q93.169,76.369 97.446,69.938 Q101.723,63.508 101.723,51.385 Q101.723,46.215 100.923,41.231 Q100.123,36.246 98.215,30.092 L101.785,29.231 Q103.692,35.508 104.523,40.554 Q105.354,45.6 105.354,50.954 Q105.354,64.738 100.062,72.431 Q94.769,80.123 86.154,80.123 z M116.923,68.677 Q115.508,68.677 113.969,67.662 Q112.431,66.646 111.385,64.985 Q112.431,63.385 113.969,62.4 Q115.508,61.415 116.923,61.415 Q118.831,61.415 118.831,62.523 Q118.831,63.815 116.185,65.046 Q118.892,66.277 118.892,67.508 Q118.892,68.677 116.923,68.677 z M65.354,8.246 Q63.631,7.2 62.492,5.477 Q61.354,3.754 61.354,2.215 Q61.354,0 62.646,0 Q64.062,0 65.354,2.954 Q66.646,0 68.062,0 Q69.354,0 69.354,2.215 Q69.354,3.754 68.246,5.477 Q67.138,7.2 65.354,8.246 z M82.831,20.431 Q82.338,20.431 81.815,20.369 Q81.292,20.308 80.8,20.185 Q80.554,19.385 80.554,18.277 Q80.554,16.431 81.477,14.677 Q82.4,12.923 83.631,12.923 Q84.677,12.923 84.677,14.462 Q84.677,15.569 84.185,16.862 Q84.923,16.554 85.538,16.431 Q86.154,16.308 86.646,16.308 Q88.123,16.308 88.123,17.354 Q88.123,18.708 86.369,19.569 Q84.615,20.431 82.831,20.431 z M115.323,45.046 Q114.831,45.046 114.308,44.985 Q113.785,44.923 113.292,44.8 Q113.108,44.062 113.108,43.138 Q113.108,41.108 113.938,39.323 Q114.769,37.538 116.123,37.538 Q117.169,37.538 117.169,39.077 Q117.169,40.185 116.677,41.477 Q117.415,41.169 118.031,41.046 Q118.646,40.923 119.138,40.923 Q120.615,40.923 120.615,41.969 Q120.615,42.646 119.754,43.508 Q118.215,45.046 115.323,45.046 z M102.4,30.031 Q100.8,29.046 99.785,27.508 Q98.769,25.969 98.769,24.554 Q98.769,22.523 99.938,22.523 Q101.169,22.523 102.4,25.231 Q103.631,22.523 104.862,22.523 Q106.031,22.523 106.031,24.554 Q106.031,25.969 105.015,27.508 Q104,29.046 102.4,30.031 z" fill="#000000"/>
  </g>
</svg>
