<svg xmlns="http://www.w3.org/2000/svg" version="1.1" xmlns:xlink="http://www.w3.org/1999/xlink" xmlns:svgjs="http://svgjs.com/svgjs" width="128" height="128"><svg xmlns="http://www.w3.org/2000/svg" width="128" height="128" viewBox="0 0 128 128"><path d="M64.1 1.2L64.1 13.1C60.8 13.1 58.2 15.7 58.2 19 58.2 22.3 60.8 24.9 64.1 24.9L64.1 24.9 64.1 24.9 64.1 24.9 64.1 36.8 64.1 36.8 64.1 36.8C10.3 36.8 24.8 90.1 33.8 107.9 36.6 113.4 35.1 120.2 30.2 124 24.4 128.5 16.1 127.5 11.6 121.8 9.3 118.8 7.7 116.2 6.9 113.8 1.6 98.3-21.9 1.2 64.1 1.2zM15.9 96C12.5 96 9.9 98.7 9.9 101.9 9.9 105.2 12.5 107.9 15.9 107.9 19.2 107.9 21.8 105.2 21.8 101.9 21.8 98.7 19.2 96 15.9 96zM13.3 66.4C10 66.4 7.3 69 7.3 72.3 7.3 75.6 10 78.2 13.3 78.2 16.6 78.2 19.3 75.6 19.3 72.3 19.3 69 16.6 66.4 13.3 66.4zM19.3 39.7C16 39.7 13.3 42.4 13.3 45.6 13.3 48.9 16 51.6 19.3 51.6 22.6 51.6 25.3 48.9 25.3 45.6 25.3 42.4 22.6 39.7 19.3 39.7zM37.2 19C33.9 19 31.2 21.6 31.2 24.9 31.2 28.2 33.9 30.8 37.2 30.8 40.5 30.8 43.2 28.2 43.2 24.9 43.2 21.6 40.5 19 37.2 19zM91.1 19C94.4 19 97 21.6 97 24.9 97 28.2 94.4 30.8 91.1 30.8 87.8 30.8 85.1 28.2 85.1 24.9 85.1 21.6 87.8 19 91.1 19zM109 39.7C112.3 39.7 115 42.4 115 45.7 115 48.9 112.3 51.6 109 51.6 105.7 51.6 103 48.9 103 45.7 103 42.4 105.7 39.7 109 39.7L109 39.7zM115 66.4C118.3 66.4 121 69 121 72.3 121 75.6 118.3 78.2 115 78.2 111.7 78.2 109 75.6 109 72.3 109 69 111.7 66.4 115 66.4zM112 96C115.3 96 118 98.7 118 102 118 105.2 115.3 107.9 112 107.9 108.7 107.9 106 105.2 106 102 106 98.7 108.7 96 112 96zM64.1 1.2L64.1 13.1C67.5 13.1 70.1 15.7 70.1 19 70 22.2 67.5 24.9 64.1 24.9L64.1 36.8C75.7 36.8 88.2 39.2 95.9 48.5 108.7 64.2 102 91.3 94.1 107.9 91.3 113.4 92.8 120.2 97.7 124 103.4 128.5 111.7 127.5 116.2 121.8 118.6 118.8 120.2 116.2 121 113.8 126.2 98.3 150.2 1.2 64.1 1.2z"></path></svg><style>@media (prefers-color-scheme: light) { :root { filter: none; } }
@media (prefers-color-scheme: dark) { :root { filter: contrast(0.3846153846153846) brightness(4.5); } }
</style></svg>