<svg xmlns="http://www.w3.org/2000/svg" version="1.1" xmlns:xlink="http://www.w3.org/1999/xlink" xmlns:svgjs="http://svgjs.com/svgjs" width="512" height="512"><svg xmlns="http://www.w3.org/2000/svg" width="512" height="512" viewBox="0 0 512 512"><path d="M110.4 471.3L110.4 395 164.5 395 164.5 370.4 110.4 370.4 110.4 318.5 57.1 318.5 57.1 267.3 3.8 267.3 3.8 141.2 79.6 141.2 79.6 244.7 110.4 244.7 110.4 141.2 164.5 141.2 164.5 116.5 110.4 116.5 110.4 40.7 187.1 40.7 187.1 94 240.4 94 240.4 141.2 271.6 141.2 271.6 94 324.9 94 324.9 40.7 401.6 40.7 401.6 116.5 347.5 116.5 347.5 141.2 401.6 141.2 401.6 244.7 432.4 244.7 432.4 141.2 508.2 141.2 508.2 267.3 454.9 267.3 454.9 318.5 401.6 318.5 401.6 370.4 347.5 370.4 347.5 395 401.6 395 401.6 471.3 324.9 471.3 324.9 417.6 271.6 417.6 271.6 370.4 240.4 370.4 240.4 417.6 187.1 417.6 187.1 471.3zM133 448.8L164.5 448.8 164.5 417.6 133 417.6zM26.3 244.7L57.1 244.7 57.1 163.7 26.3 163.7zM347.5 448.8L379 448.8 379 417.6 347.5 417.6zM175.4 256L175.4 202.5 229.1 202.5 229.1 256zM187.1 395L217.9 395 217.9 347.9 294.1 347.9 294.1 395 324.9 395 324.9 347.9 379 347.9 379 296 432.4 296 432.4 267.3 379 267.3 379 163.7 324.9 163.7 324.9 116.5 294.1 116.5 294.1 163.7 217.9 163.7 217.9 116.5 187.1 116.5 187.1 163.7 133 163.7 133 267.3 79.6 267.3 79.6 296 133 296 133 347.9 187.1 347.9zM133 94L164.5 94 164.5 63.2 133 63.2zM282.9 256L282.9 202.5 336.6 202.5 336.6 256zM454.9 244.7L485.7 244.7 485.7 163.7 454.9 163.7zM347.5 94L379 94 379 63.2 347.5 63.2z"></path></svg><style>@media (prefers-color-scheme: light) { :root { filter: none; } }
@media (prefers-color-scheme: dark) { :root { filter: invert(100%); } }
</style></svg>