<svg xmlns="http://www.w3.org/2000/svg" width="512" height="420" viewBox="0 0 512 420"><path d="M46.1 0L46.1 46.1 0 46.1 0 92.2 46.7 92.2 92.2 92.2 92.2 46.6 92.2 0z" fill="#FF0033"/><path d="M373.9 138.3L373.9 92.2 138.3 92.2 138.3 138.3 92.2 138.3 92.2 186.3 92.2 232.8 92.2 281.7 138.3 281.7 138.3 325.9 138.3 373.9 184.4 373.9 184.4 327.8 230.5 327.8 230.5 373.9 281.7 373.9 281.7 327.8 327.8 327.8 327.8 373.9 373.9 373.9 373.9 325.9 373.9 281.7 420 281.7 420 232.8 420 186.3 420 138.3 373.9 138.3zM138.3 184.4L230.5 184.4 230.5 230.5 138.3 230.5 138.3 184.4zM373.9 230.5L281.7 230.5 281.7 184.4 373.9 184.4 373.9 230.5z" fill="#FF0033"/><path d="M420 327.8L420 372.5 420 420 466.1 420 466.1 373.9 512.2 373.9 512.2 327.8z" fill="#FF0033"/><path d="M466.1 46.1L466.1 0 420 0 420 46.6 420 92.2 512.2 92.2 512.2 46.1z" fill="#FF0033"/><path d="M0 327.8L0 373.9 46.1 373.9 46.1 420 92.2 420 92.2 372.5 92.2 327.8z" fill="#FF0033"/></svg>
