<?xml version="1.0" encoding="UTF-8"?>
<!DOCTYPE svg PUBLIC "-//W3C//DTD SVG 1.1//EN" "http://www.w3.org/Graphics/SVG/1.1/DTD/svg11.dtd">
<svg version="1.1" xmlns="http://www.w3.org/2000/svg" xmlns:xlink="http://www.w3.org/1999/xlink" x="0" y="0" width="357" height="512" viewBox="0, 0, 357, 512">
  <g id="Background">
    <rect x="0" y="0" width="357" height="512" fill="#000000" fill-opacity="0"/>
  </g>
  <g id="Layer_1">
    <path d="M299.1,218.4 Q330.8,224.4 343.8,245.1 Q356.8,265.8 356.8,310.5 Q356.8,399.1 303.5,455.6 Q250.3,512 167.3,512 Q134.6,512 103.8,500.2 Q73,488.4 50.9,467.3 Q25.6,444.1 12.9,418.3 Q0.2,392.4 0.2,365.4 Q0.2,335.1 13.3,318.6 Q26.3,302.1 54.4,296.1 Q49.1,283.8 46.7,275.3 Q44.2,266.9 44.2,262.3 Q44.2,246.5 60.9,230 Q77.6,213.5 92.4,213.5 Q98.7,213.5 105.7,215.7 Q112.8,218 121.9,223.3 Q94.8,146.6 82.5,105 Q70.2,63.3 70.2,47.5 Q70.2,25.7 81.5,12.8 Q92.7,0 112.1,0 Q145.1,0 195.8,147.7 Q204.6,173 209.1,186.7 Q213,175.8 220,155.8 Q270.7,9.5 307.2,9.5 Q325.2,9.5 335.9,21.6 Q346.6,33.8 346.6,54.2 Q346.6,69.6 334.8,110.8 Q323.1,151.9 299.1,218.4 z M273.8,212.4 Q297.4,148.4 310.6,106.7 Q323.8,65.1 323.8,55.6 Q323.8,45.4 319.4,39.7 Q315,34.1 307.2,34.1 Q297.4,34.1 287.2,50.5 Q277,66.8 264.7,103 L229.5,204.7 z M187.3,200.4 L149.3,90.7 Q134.6,48.9 126.5,36 Q118.4,23.2 108.9,23.2 Q101.5,23.2 96.9,28.8 Q92.4,34.5 92.4,44 Q92.4,60.1 104.7,100.2 Q117,140.3 141.6,205.4 Q143.7,201.5 147.6,199.9 Q151.5,198.3 158.1,198.3 Q160.2,198.3 166.6,198.7 Q172.9,199 187.3,200.4 z M227.1,307 Q211.9,306.3 198.4,303.8 Q184.9,301.4 172.6,296.8 Q178.2,308 182.6,319.3 Q187,330.5 189.8,341.5 Q198.2,330.9 207.5,322.3 Q216.9,313.7 227.1,307 z M47.4,361.8 Q52.3,367.8 61.1,379.4 Q84.3,411.4 104,411.4 Q110.7,411.4 115.9,407.2 Q121.2,403 121.2,398.4 Q121.2,393.1 114.2,380.8 Q107.1,368.5 94.8,353.1 Q80.8,335.1 71.5,326.9 Q62.1,318.6 56.5,318.6 Q44.2,318.6 33.8,331.8 Q23.5,345 23.5,362.9 Q23.5,377.3 30.7,395.1 Q37.9,412.8 51.6,430.8 Q72.3,458.5 103.1,473.5 Q133.9,488.4 171.1,488.4 Q239.7,488.4 286,437.3 Q332.2,386.1 332.2,309.1 Q332.2,285.5 328.7,271.6 Q325.2,257.8 317.1,251.4 Q302.7,239.5 261,230 Q219.3,220.5 174,220.5 Q161.3,220.5 156,224.7 Q150.7,228.9 150.7,239.1 Q150.7,263 177.5,273.8 Q204.2,284.5 264,284.5 L278.4,284.5 Q283.3,284.5 286.3,288.2 Q289.3,291.9 290.4,299.3 Q284.4,304.9 265.7,312.1 Q247.1,319.3 237.3,326.3 Q216.2,341.8 203.3,363.1 Q190.5,384.4 190.5,403.3 Q190.5,414.9 195.9,431.3 Q201.4,447.6 201.4,451.5 L201.4,454 L200.7,457.1 Q185.2,456.1 176.2,439 Q167.3,422 167.3,393.5 L167.3,390.3 Q164.5,392.8 161.8,393.8 Q159.2,394.9 156,394.9 Q152.9,394.9 150,394.4 Q147.2,393.8 143.7,392.8 Q144.8,396.7 145.3,400.4 Q145.8,404 145.8,406.2 Q145.8,419.2 135.6,428.5 Q125.4,437.8 111.4,437.8 Q89.2,437.8 66.4,416.2 Q43.5,394.5 43.5,373.8 Q43.5,369.9 44.4,366.9 Q45.3,364 47.4,361.8 z M152.9,370.3 Q158.8,370.3 163.8,364.8 Q168.7,359.4 168.7,353.1 Q168.7,346.4 159,321.9 Q149.3,297.5 134.9,273.9 Q124.4,256.4 114.2,247.4 Q104,238.4 94.8,238.4 Q87.5,238.4 78.5,247.7 Q69.5,257.1 69.5,265.1 Q69.5,273.6 78.3,290.5 Q87.1,307.3 101.9,326.3 Q117.3,347.1 131.1,358.7 Q144.8,370.3 152.9,370.3 z" fill="#000000"/>
  </g>
</svg>
